<svg xmlns="http://www.w3.org/2000/svg" viewBox="0 0 568.03 776.89"><defs><style>.cls-1{opacity:0.1;}.cls-2{fill:#fff;}</style></defs><g id="Capa_2" data-name="Capa 2"><g id="Capa_1-2" data-name="Capa 1"><g class="cls-1"><path class="cls-2" d="M93.33,393.22q2.49,1,4.9,2.2L106,374.3c-1.44-1.27-2.87-2.55-4.28-3.86Z"/><path class="cls-2" d="M65.59,468.4q2.39,1.32,4.65,2.85l7.42-20.09q-2.14-2-4.18-4.15Z"/><path class="cls-2" d="M197.21,677.3a17,17,0,0,1,.44-3.18,3.07,3.07,0,0,1,.33-.84L47.34,617.69a29.25,29.25,0,0,1-17.29-37.52L49,528.7c-1.2-1.13-2.37-2.29-3.58-3.4a4,4,0,0,1-.61-.7L25,578.32a34.61,34.61,0,0,0,20.46,44.39l151.73,56,.06-.16a3,3,0,0,1-.06-1.24"/><path class="cls-2" d="M545.44,102.13l-271-100A34.59,34.59,0,0,0,230.11,22.6L113.29,339.14a10.22,10.22,0,0,1,5.24,1.27l116.6-316A29.24,29.24,0,0,1,272.64,7.16l270.94,100a29.23,29.23,0,0,1,17.29,37.51L449.19,447.28a51.23,51.23,0,0,1,3.53,5.91L565.89,146.51a34.59,34.59,0,0,0-20.45-44.38"/><path class="cls-2" d="M90.09,462.42l0,0a1.57,1.57,0,0,1-.32-.24l-.22-.21a10,10,0,0,1-1-1,3.32,3.32,0,0,1-.6-1l-1.35-1-6.43,17.42q1.09.63,2.16,1.29c.62.39,1.26.79,1.9,1.22l6-16.26-.13-.12"/><path class="cls-2" d="M68.75,594.34A25.51,25.51,0,0,1,53.66,561.6l7.1-19.24-.15-.12c-.9-.75-1.76-1.54-2.65-2.28a3,3,0,0,1-.86-1.17L49.28,560a30.19,30.19,0,0,0,17.85,38.74L208.78,651c.74-1.4,1.51-2.77,2.32-4.13Z"/><path class="cls-2" d="M437,434.91a46.64,46.64,0,0,1,3.87,3l95-257.32-305-112.55-102.6,278q2.15,1,4.21,2.11L233.59,74.05,529.83,183.37Z"/><path class="cls-2" d="M108,401c1.35.88,2.67,1.8,4,2.74L117.36,389l-3.3-4.54Z"/><path class="cls-2" d="M451.86,96c-5.63-2.44-11.54-4.37-17.28-6.54l-34.41-13-39-14.74c-2.48-.94-3.91,2.93-1.43,3.86L421.68,89,437.36,95l7.26,2.75c2.35.89,5.06,1.55,7.18,2.93,1,.63,2.41,2,.47,2.3s-4.4-.89-6.26-1.52L430.63,96.2l-35.38-12c-2.51-.84-3.95,3-1.43,3.87l35,11.85,17.3,5.86c3.36,1.13,8.82,2.68,10.82-1.5,1.85-3.87-1.91-6.88-5.08-8.26"/><path class="cls-2" d="M487.12,114.85a2.62,2.62,0,0,0-.57-1,1.37,1.37,0,0,0,.76-.22c1.14-.71,2.61-.1,2.19,1.22a1.25,1.25,0,0,1-2.38,0m4.67-4.49a5.54,5.54,0,0,0-6.2-.52,2.14,2.14,0,0,0-1,2.74,2.09,2.09,0,0,0,.42.58l-.26,0a2.08,2.08,0,0,0-1.67,2.39,5.64,5.64,0,0,0,4.75,4.21,5.36,5.36,0,0,0,4-9.42"/><path class="cls-2" d="M433.09,625.14a615.53,615.53,0,0,0,18.62-70.56q3.66-18.15,6.22-36.5c1.58-11.35,3.15-22.83,3.48-34.3.56-19.49-4.27-41-22.22-51.76a31.31,31.31,0,0,0-26.31-3.14c-8.83,3-16.27,9.57-21.4,17.23-6.7,10-10,21.75-13.19,33.24q-5,18.18-10.06,36.37-10.07,36.36-20.12,72.72l-3.91,14.12a117.94,117.94,0,0,0-81.6.89,109.54,109.54,0,0,0-28.72,16.34,116.73,116.73,0,0,0-41.65,67.36,114.72,114.72,0,0,0-2.29,30.09c.16,2.64,4.21,1.9,4.06-.72a107.85,107.85,0,0,1,2.22-28.45A113.18,113.18,0,0,1,224,634.38c19.91-21.58,48.49-33.79,77.74-34.54,14.7-.38,29.14,2.8,43.12,7.06,13.32,4.05,26.31,9.93,36.44,19.76.62.61,1.24,1.23,1.84,1.86,1.82,1.91,5-.7,3.18-2.62a76.13,76.13,0,0,0-36.77-21.24l-1.47-.62,18.36-66.34L376,502.91c3.23-11.67,6.14-23.49,9.9-35,3.3-10.06,7.79-20.12,15.7-27.42,6.62-6.1,15.3-10.12,24.45-8.94a27.63,27.63,0,0,1,12.64,5.51,46.23,46.23,0,0,1,13.38,15.66c3.39,6.34,4.54,13.8,5,20.95.74,10.47-.47,21-1.7,31.43q-2.07,17.6-5.17,35a607.64,607.64,0,0,1-16.39,68.76,590,590,0,0,1-23.74,65.17c-8.52,19.56-18.56,38.68-32,55.32-12.45,15.37-27.84,28.16-46.17,35.82-16.76,7-35.89,9.84-53.71,5.42-1.09-.27-2.17-.57-3.25-.9-17.71-9.39-37-14.88-56.38-19.56-19.77-4.78-39.61-9.32-59.42-14-7.34-1.72-14.81-2.91-22.09-4.93-3.18-.89-7.17-1.7-9.87-3.69-2.26-1.66-4.36-3.23-6.81-4.7a154.52,154.52,0,0,1-60.6-68.55,144,144,0,0,1-9.63-30l-4.57-1.69a152.66,152.66,0,0,0,23.72,57.15,158.43,158.43,0,0,0,45.08,44.24c5.46,3.52,10.45,6.88,16.67,9.11a177.72,177.72,0,0,0,19.39,5.22q16.44,3.86,32.89,7.71c19.25,4.51,38.72,8.54,57.64,14.33,5.61,1.72,11.16,3.62,16.61,5.79,6.43,2.56,12.18,6.49,18.93,8.24a77.86,77.86,0,0,0,17.52,2.42,94,94,0,0,0,34.79-6.11,117,117,0,0,0,41.27-26.42c15.61-15.41,27.33-34.17,36.95-53.76,10.34-21.06,18.71-43.17,26-65.44"/><path class="cls-2" d="M127.86,516.9A173.25,173.25,0,0,0,112.23,499a187.2,187.2,0,0,0-38.15-29.67,175.21,175.21,0,0,0-21.42-10.79,75.22,75.22,0,0,0-12.49-4s0-.07,0-.1c-2-12.43-4.16-25.48-1.13-37.93,2.64-10.85,9.18-20.79,20-24.79,9.5-3.52,20.28-1.93,29.64,1.25,10.34,3.51,19.94,9.25,28.58,15.86a121.57,121.57,0,0,1,40,53.88c3.68,9.91,6.72,22.84,1.26,32.71-5.57,10.07-18.21,10.58-27.62,6.05-5.91-2.85-10.84-7.46-15.34-12.14-4.76-5-9.36-10.1-14-15.16l-8.08-8.78a3,3,0,0,1-1.3-.86l-.88-1c-.35-.36-.72-.7-1.13-1.07a2.05,2.05,0,0,1-.32-.24l-.22-.21a10,10,0,0,1-1-1,3,3,0,0,1-.66-1.29,3,3,0,0,1-.42-.76l-14.7-16-7.17-7.78c-1.79-1.95-5,.66-3.18,2.61l31.17,33.82Q101.26,480,109,488.3c4.67,5.05,9.48,10.14,15.24,14,9.31,6.2,22.49,8.93,32.09,1.72,9.75-7.34,10.23-21.08,8-32-2.47-11.83-8-23.27-14.42-33.45a127.25,127.25,0,0,0-23.66-27.77,116.38,116.38,0,0,0-30-19.38,65.83,65.83,0,0,0-23.22-5.8c-.63-13.92-1.06-31.44,10.67-41.24,12.51-10.44,30.84-6,43.57,1.61a132.33,132.33,0,0,1,14.4,10.3c5.63,4.48,11.28,9.08,15.75,14.77,4.18,5.33,7.13,11.65,7,18.54-.07,6.08-2.37,12.4-7.71,15.77-6.1,3.85-14.1,2.85-20.33-.12a39.37,39.37,0,0,1-10.26-7.39,71.55,71.55,0,0,1-9.8-11.21c-2.87-4.23-5.34-8.6-8-13-1.26-2.12-3-5.9-5.36-7s-3.83,1.74-2.55,3.67c4.54,6.83,8.73,14,13.54,20.65a64.29,64.29,0,0,0,5.5,5.82,71.47,71.47,0,0,0,9.66,8.74c7,5.08,15.35,8,23.95,5.81,14.9-3.86,18.52-21.52,12.82-34.19-3.25-7.22-8.78-13.06-14.66-18.22a156.07,156.07,0,0,0-21.09-15.92c-7.89-4.83-17.18-8.45-26.47-8.86a89.89,89.89,0,0,0-7-12.11,2.13,2.13,0,0,0-.18-.22l-33.55-48.2-16.71-24c-4.34-6.24-8.88-12.67-11.11-20-2.07-6.87-1.41-14.47,4-19.62s13.39-6.82,20.72-5.78C68.68,205.35,76.71,210,84,214.78a146.75,146.75,0,0,1,19.27,15.05c13.36,12.34,25.47,29.55,33.45,45.94l2-5.33a151.13,151.13,0,0,0-29.42-40.55,151.7,151.7,0,0,0-19.76-16.37c-7.57-5.24-15.79-10.32-24.79-12.6-7.88-2-16.37-1.7-23.56,2.41A21.66,21.66,0,0,0,29.86,221c-.4,7.79,3,15.29,7,21.8,5,8.23,10.82,16,16.31,23.86l40.47,58.13.09.12a82.07,82.07,0,0,1,5.37,9.2,33.09,33.09,0,0,0-12.69,3.5c-17.67,9-18.33,30.66-17.54,47.95a43.63,43.63,0,0,0-4.84.51C52.44,388,43.37,395.54,38.34,406c-5.79,12.07-5.47,25.8-3.78,38.77.39,3,.85,6,1.32,8.92-.88-.12-1.76-.22-2.64-.28-6.41-.49-13,.56-18.47,4a29.47,29.47,0,0,0-12,15.83c-4.7,13.74-2.64,29.33.46,43.19a142.56,142.56,0,0,0,16.5,41.67q2.81,4.71,5.95,9.21a2.54,2.54,0,0,0,.2.24l2,3.23,1.79-4.87c-3.8-6.13-7.83-12-11.08-18.48a139.1,139.1,0,0,1-8.21-20.19c-4.14-13-7.07-27.47-6-41.21.52-6.47,2-13.13,5.74-18.56a22.66,22.66,0,0,1,15.2-9.66c12.87-2.14,26.12,4.19,37.26,9.86A183.16,183.16,0,0,1,99.91,493,181.31,181.31,0,0,1,116,509a118,118,0,0,1,13.48,17.61c3.68,6.17,6.36,13.15,6.07,20.44-.27,6.84-3.14,13.11-8.75,17.16-12.11,8.74-28,4.35-39.84-2.43a133.51,133.51,0,0,1-25.36-18.94,3,3,0,0,1-1-.57c-.89-.75-1.75-1.53-2.64-2.29a3.27,3.27,0,0,1-1-1.57,2.8,2.8,0,0,1-.5-.75q-4.85-5.1-9.18-10.65c-.59-.57-1.18-1.13-1.78-1.68a3.5,3.5,0,0,1-1.2-2.28c-.19-.26-.38-.51-.56-.77l-.64-.77a3.09,3.09,0,0,1-.51-.86A143.65,143.65,0,0,1,30.76,500.4c-1.5-3.12-2.87-6.3-4.14-9.52-1-2.47-4.71-.74-3.74,1.73a147.69,147.69,0,0,0,55.36,68.56c12.69,8.41,28.11,15.37,43.41,10.19a26.22,26.22,0,0,0,15.08-12.48c3.4-6.53,3.69-14.44,1.86-21.49-2-7.56-6.08-14.3-10.73-20.49"/></g></g></g></svg>