<svg xmlns="http://www.w3.org/2000/svg" viewBox="0 0 95.97 84.45"><defs><style>.cls-1{fill:#fff;}</style></defs><g id="Capa_2" data-name="Capa 2"><g id="Capa_1-2" data-name="Capa 1"><g id="LExz4q"><path class="cls-1" d="M14.09,84.45c-2.64,0-3.86-.93-4.35-3.26Q6.37,64.84,3,48.49,1.55,41.26.07,34a4.82,4.82,0,0,1,3.51-5.22l42.5-8.33q18.09-3.52,36.19-7a21.67,21.67,0,0,1,2.53-.35,1.37,1.37,0,0,1,1.56,1.27c.78,3.95,1.65,7.89,2.4,11.85q3.06,16.25,6.06,32.52c.38,2.08.69,4.18,1,6.28.24,1.72-.24,1.92-1.48,2.21-6.64,1.56-13.27,3.19-19.9,4.82C58.34,76,42.1,79.26,25.85,82.4c-3.55.69-7.12,1.29-10.68,1.93C14.73,84.41,14.29,84.43,14.09,84.45ZM13.51,81,93.73,64.7c-2.12-11.16-4.22-22.21-6.34-33.33-27,4.35-53.85,9.31-80.6,14.94C9,57.83,11.24,69.24,13.51,81ZM84.44,15.34,3.71,30.93,4.9,36.81c26.81-5.63,53.64-10.6,80.7-15Z"/><path class="cls-1" d="M84.31,6.73c-1,0-1.58-.61-1.34-1.35C83.52,3.73,84.1,2.09,84.81.5A1.43,1.43,0,0,1,86.14,0a1.44,1.44,0,0,1,.63,1.26C86.28,2.93,85.66,4.52,85,6.1,84.89,6.41,84.46,6.6,84.31,6.73Z"/><path class="cls-1" d="M87.53,9.58a2.57,2.57,0,0,1,.6-.73c1.3-.81,2.64-1.57,4-2.34a1.07,1.07,0,0,1,1.6.34,1,1,0,0,1-.44,1.57c-1.33.81-2.68,1.62-4.06,2.36C88.38,11.22,87.53,10.7,87.53,9.58Z"/><path class="cls-1" d="M93.09,15.55c-.74-.06-1.49-.09-2.23-.18a1.1,1.1,0,0,1,.16-2.2,37.08,37.08,0,0,1,4,.3,1.6,1.6,0,0,1,1,1c.15.66-.38,1.07-1,1.11a13.89,13.89,0,0,1-1.82-.11Z"/><path class="cls-1" d="M14.3,70c-.31-.38-.8-.72-.9-1.15-.16-.7.33-1.12,1-1.27l6.4-1.35L40.05,62.2c.79-.17,1.41,0,1.6.8s-.34,1.23-1.11,1.4L14.91,69.82a2.7,2.7,0,0,1-.41.05Z"/><path class="cls-1" d="M16.11,62.08c-2.25,0-3.62-1-4-2.59-.46-1.86-.85-3.73-1.19-5.61a3.27,3.27,0,0,1,2.44-3.67c2.36-.56,4.74-1,7.13-1.39a3.35,3.35,0,0,1,3.63,2.8c.37,1.84.68,3.69,1,5.55a3.2,3.2,0,0,1-2.24,3.6C20.41,61.35,18,61.73,16.11,62.08Zm4.38-11.87c-2.14.45-4.28.86-6.4,1.35a1.88,1.88,0,0,0-1.62,2.5c.31,1.67.67,3.34,1.06,5a1.88,1.88,0,0,0,2.22,1.5q3-.48,6.05-1.06a1.86,1.86,0,0,0,1.74-2.4c-.24-1.72-.55-3.43-.9-5.14A2.07,2.07,0,0,0,20.49,50.21Z"/><path class="cls-1" d="M15.35,76.2c-.3-.38-.77-.72-.87-1.15-.18-.72.32-1.12,1-1.27,2.24-.47,4.47-1,6.71-1.4,4.1-.76,8.2-1.44,12.3-2.18.77-.13,1.42,0,1.6.82s-.4,1.25-1.22,1.4Q25.43,74.19,16,76l-.41.05Z"/><path class="cls-1" d="M87.74,59c.76.09,1.26.41,1.33,1.13s-.38,1.14-1.07,1.26L75.69,63.51c-.67.12-1.27,0-1.46-.75a1,1,0,0,1,.83-1.39C79.29,60.57,83.52,59.81,87.74,59Z"/><path class="cls-1" d="M78.37,58.56c-.27,0-.62.11-.8,0-.39-.3-1-.71-1-1.09a1.42,1.42,0,0,1,.93-1.06,13.11,13.11,0,0,0,5.22-1.28,1.54,1.54,0,0,1,1.32.52c.45.61.06,1.17-.54,1.51A11.17,11.17,0,0,1,78.37,58.56Z"/><path class="cls-1" d="M21.91,55.27a7.73,7.73,0,0,1-1.54,1.13,21.12,21.12,0,0,1-3.28.94A1.79,1.79,0,0,1,15.7,57a.94.94,0,0,1,.26-1.5,6.23,6.23,0,0,1,4.42-1.22C20.82,54.3,21.2,54.77,21.91,55.27Z"/></g></g></g></svg>