<svg xmlns="http://www.w3.org/2000/svg" viewBox="0 0 101.65 86.82"><defs><style>.cls-1{fill:#fff;}</style></defs><g id="Capa_2" data-name="Capa 2"><g id="Capa_1-2" data-name="Capa 1"><g id="DBEo3D"><path class="cls-1" d="M61.54,48.57c2.18,8,.35,14.79-4.74,20.74a28.09,28.09,0,0,1-13,8.34,38.64,38.64,0,0,1-12.44,1.88,2.81,2.81,0,0,0-2.31,1q-2.59,2.86-5.33,5.59a2.33,2.33,0,0,1-1.43.62c-1.41.1-2.83.06-4.25.07a2.25,2.25,0,0,1-2.39-2c-.52-3.16-1-6.32-1.45-9.5A1.87,1.87,0,0,0,13,73.71a25.51,25.51,0,0,1-10.31-9.5C-1.76,56.64-.64,48,5.63,41.52a31.43,31.43,0,0,1,14.54-8.18,41.27,41.27,0,0,1,10.69-1.88c.05-.35.11-.64.13-.92.26-5.88.5-11.77.79-17.65a2.32,2.32,0,0,1,.52-1.29A76.71,76.71,0,0,1,43,1,2.43,2.43,0,0,1,44.27.45,259.06,259.06,0,0,1,80.38.86c3.9.3,7.82.49,11.69,1a19.25,19.25,0,0,1,5.77,1.93c2.59,1.32,3.33,3.88,3.55,6.58a119.41,119.41,0,0,1-.56,21.22c-.36,3.6-.71,7.2-1.22,10.78-.71,5-3.64,7.67-8.7,7.66A5.59,5.59,0,0,0,86,52.44c-1.76,2.27-3.72,4.37-5.65,6.5a3.48,3.48,0,0,1-1.48.82c-.92.28-1.88.41-2.81.67A2.36,2.36,0,0,1,73,58.79c-.5-1.68-.84-3.4-1.32-5.08-.33-1.14-.73-2.26-1.17-3.37a2.69,2.69,0,0,0-2.72-1.77ZM33.33,31.41a6.46,6.46,0,0,0,.77.12,37,37,0,0,1,12.65,3C52.39,37,57.21,40.36,60.31,45.85a1.39,1.39,0,0,0,1.07.51c1.82,0,3.65-.09,5.47-.13,3.38-.08,4.91.91,6.15,4.07a34.42,34.42,0,0,1,1.11,3.62c.37,1.35.68,2.71,1.06,4.27.44-.5.7-.81,1-1.12,2.38-2.86,4.78-5.72,7.14-8.6a5.34,5.34,0,0,1,4.47-2.12,38.5,38.5,0,0,0,4,0A4.5,4.5,0,0,0,96,42.3c.52-5.83,1.2-11.65,1.33-17.49.12-5.43-.35-10.87-.63-16.3a4.72,4.72,0,0,0-4.33-4.26L87,3.76A287,287,0,0,0,55.86,2.4c-3.35.05-6.69.17-10.1.26,0,.5,0,.86,0,1.23,0,2.31,0,4.62,0,6.93s-.88,3.54-3.12,4.35c-.77.27-1.56.5-2.34.74A9,9,0,0,0,34,22.18C33,25.21,33.57,28.31,33.33,31.41ZM18,84.44l1-.84c2.6-2.4,5.18-4.83,7.83-7.18a3.54,3.54,0,0,1,2-.75c2.15-.16,4.33,0,6.47-.27a30.76,30.76,0,0,0,17-7.07c7.11-6.15,8.3-15.41,2.92-22.73a22.87,22.87,0,0,0-6.83-6.2c-8.13-4.83-16.89-6-26.07-4.13A27.27,27.27,0,0,0,6.83,43.64,15.94,15.94,0,0,0,5.48,64.18a23.11,23.11,0,0,0,8.93,7.6,3.34,3.34,0,0,1,2.08,2.84C16.9,77.83,17.43,81,18,84.44ZM43.39,4l-.33-.22-7.65,7.62.21.4H42.3a1,1,0,0,0,1.09-1.11Z"/><path class="cls-1" d="M73.17,25.2h7.15c1.15,0,2.31,0,3.47,0s1.5.38,1.5,1.58A13.49,13.49,0,0,1,58.5,28.6,13.46,13.46,0,0,1,69.3,13.14,15.23,15.23,0,0,1,72.74,13c1.23,0,1.56.49,1.44,1.71q-.47,4.5-.92,9C73.21,24.1,73.2,24.55,73.17,25.2Zm-1.39-9.85A10.91,10.91,0,0,0,60.71,25.61,11.08,11.08,0,0,0,71.36,37.45c5.79.28,11.31-4.47,11.42-9.91H73.52c-3,0-3.08-.15-2.73-3.13S71.45,18.42,71.78,15.35Z"/><path class="cls-1" d="M78.23,22.36c-1.26.09-1.8-.35-1.6-1.6.37-2.41.82-4.82,1.39-7.2.32-1.35,1.1-1.54,2.24-.73a15.45,15.45,0,0,1,5.58,6.66c.67,1.59.32,2.23-1.38,2.4C82.39,22.09,80.31,22.21,78.23,22.36Z"/><path class="cls-1" d="M46.57,21c-1.9,0-3.8,0-5.69,0-.84,0-1.57-.2-1.6-1.14s.74-1.25,1.61-1.25H52.38c.85,0,1.63.19,1.58,1.25S53.18,21,52.37,21Z"/><path class="cls-1" d="M44.76,28c-1.34,0-2.68,0-4,0-.82,0-1.45-.29-1.47-1.16s.62-1.19,1.44-1.19h8c.8,0,1.46.23,1.46,1.15S49.52,28,48.68,28Z"/><path class="cls-1" d="M32.83,45.41H21.43a2,2,0,0,1-1.08-.13,1.68,1.68,0,0,1-.77-1.07,1.66,1.66,0,0,1,.79-1.06A2.44,2.44,0,0,1,21.56,43q11.18,0,22.36,0c.29,0,.68-.11.87,0,.43.32,1.05.77,1,1.16s-.63.83-1.06,1.15c-.2.14-.58,0-.88,0Z"/><path class="cls-1" d="M29.3,55.06c-2.27,0-4.54,0-6.81,0-.87,0-1.64-.17-1.64-1.2s.75-1.17,1.56-1.17H36.25c.87,0,1.63.18,1.58,1.25,0,.9-.71,1.11-1.5,1.11C34,55.05,31.64,55.06,29.3,55.06Z"/><path class="cls-1" d="M29,64H24.07c-.83,0-1.54-.25-1.54-1.2s.69-1.2,1.54-1.2h9.81c.8,0,1.46.23,1.49,1.13S34.72,64,33.89,64C32.26,64,30.62,64,29,64Z"/><path class="cls-1" d="M14.11,55.51a2.89,2.89,0,0,1-2.86-2.72,3,3,0,0,1,2.88-2.86,2.84,2.84,0,0,1,2.69,2.75A2.8,2.8,0,0,1,14.11,55.51Z"/><path class="cls-1" d="M16.83,61.42a2.83,2.83,0,0,1-2.75,2.81,2.88,2.88,0,0,1-2.83-2.74,3,3,0,0,1,2.91-2.84A2.87,2.87,0,0,1,16.83,61.42Z"/><path class="cls-1" d="M14,47.24a2.64,2.64,0,0,1-2.61-2.63A2.73,2.73,0,0,1,14.14,42a2.68,2.68,0,0,1,2.54,2.6A2.64,2.64,0,0,1,14,47.24Z"/></g></g></g></svg>