<svg xmlns="http://www.w3.org/2000/svg" viewBox="0 0 63.53 87.85"><defs><style>.cls-1{fill:#fff;}</style></defs><g id="Capa_2" data-name="Capa 2"><g id="Capa_1-2" data-name="Capa 1"><g id="INv2p7"><path class="cls-1" d="M0,51A61.26,61.26,0,0,1,9.82,19.11a30.86,30.86,0,0,1,7.73-8.53A17.2,17.2,0,0,1,28.23,7a13.16,13.16,0,0,1,5.7,1.45,2.06,2.06,0,0,0,1,.29c5.15-.57,9,1.73,11.95,5.66a31.53,31.53,0,0,1,5.45,13.05c1.53,7.47,1.29,15,.32,22.49a77.22,77.22,0,0,1-2.18,12,56.41,56.41,0,0,1-7.4,16.58,22,22,0,0,1-9,8,17.45,17.45,0,0,1-10.72.91,56.9,56.9,0,0,1-7.53-1.92A19.35,19.35,0,0,1,3.56,73.57C1.08,67.08,0,60.36,0,51Zm12.11,3.61a59.06,59.06,0,0,0,1.31,13.87c1,4.25,2.44,8.3,5.29,11.7,2.55,3,5.68,4.81,9.82,4.2a14.31,14.31,0,0,0,7-3.34A33.64,33.64,0,0,0,44.4,69.39a67.59,67.59,0,0,0,6.43-39.34,32,32,0,0,0-4.34-12.89,13.35,13.35,0,0,0-6.41-5.81c-3.74-1.46-7.17-.54-10.37,1.57a28.85,28.85,0,0,0-8.82,9.85A65.62,65.62,0,0,0,12.11,54.59ZM10.3,62c-.07-1.12-.16-2.16-.19-3.2A70.26,70.26,0,0,1,11.7,41.34a1.06,1.06,0,0,0-.77-1.44,10.44,10.44,0,0,0-6.71-.42,1,1,0,0,0-.85.92A63.84,63.84,0,0,0,2.14,57.06c.1,1.8.36,3.59.56,5.51A12,12,0,0,1,10.3,62ZM20.52,19.5a11.17,11.17,0,0,0-5.9-2.2,1.53,1.53,0,0,0-1.55.69A53.85,53.85,0,0,0,5.24,33.44c-.41,1.27-.77,2.56-1.19,4a12.71,12.71,0,0,1,8.31.9A61,61,0,0,1,20.52,19.5ZM10.57,64.23a9.45,9.45,0,0,0-6.71.08c-.47.19-.77.39-.63,1A37.59,37.59,0,0,0,6.77,75.52c.64,1.14,1.44,2.2,2,3.09l5.36-1.78A41.37,41.37,0,0,1,10.57,64.23ZM21.8,17.53c1.33-1.37,2.69-3,4.28-4.34s3.42-2.47,5.07-3.64c-4-2-13.18,1.32-15.51,5.54ZM19.74,84.29l-4.16-5a.57.57,0,0,0-.36-.24,7.63,7.63,0,0,0-4.6,1.19A18.72,18.72,0,0,0,19.74,84.29Z"/><path class="cls-1" d="M63.52,14.3c-.17.14-.46.55-.83.65-1.9.51-3.82,1-5.74,1.42a.94.94,0,0,1-1.25-.65.93.93,0,0,1,.69-1.3c2-.5,4-1,5.93-1.44C63,12.82,63.55,13.31,63.52,14.3Z"/><path class="cls-1" d="M52.47,10.24c-.89,0-1.49-.83-1-1.46,1.21-1.67,2.48-3.31,3.8-4.88a1.34,1.34,0,0,1,1.28,0A1.23,1.23,0,0,1,56.77,5C55.57,6.72,54.28,8.33,53,10,52.87,10.12,52.59,10.18,52.47,10.24Z"/><path class="cls-1" d="M48.65,1.6c-.11,1.42-.21,2.77-.32,4.12,0,.68-.38,1.13-1.11,1.07s-.95-.59-.91-1.26c.1-1.41.22-2.82.3-4.24,0-.72.26-1.33,1.1-1.29s1,.66.95,1.39A2.07,2.07,0,0,0,48.65,1.6Z"/><path class="cls-1" d="M47.05,41.46c-.44,9.47-2.21,17.19-6.55,24.17a19.83,19.83,0,0,1-6.27,6.58c-4.36,2.72-8.8,2-12-2a20.08,20.08,0,0,1-4.1-9.8A45,45,0,0,1,23.9,29.82,18.56,18.56,0,0,1,30.52,23a8.66,8.66,0,0,1,11.76,2.14,19.12,19.12,0,0,1,3.92,9.08C46.68,37,46.88,39.92,47.05,41.46Zm-2.08,0c-.15-1.48-.28-3.7-.63-5.89a19.31,19.31,0,0,0-3.46-8.89c-2.6-3.43-6.17-4.05-9.78-1.71a17.34,17.34,0,0,0-5.43,5.87,43,43,0,0,0-5.54,29.24,18.35,18.35,0,0,0,3.6,8.83C26.21,72,29.61,72.62,33,70.56a16.38,16.38,0,0,0,5.17-5.11C42.89,58.42,44.66,50.52,45,41.45Z"/><path class="cls-1" d="M40.91,18.83c-.28.29-.49.72-.76.75a1.56,1.56,0,0,1-1.2-.33,4.32,4.32,0,0,0-3.8-1.49,6,6,0,0,0-1.73.54c-.64.29-1.16.24-1.5-.39s0-1.05.51-1.39a6.53,6.53,0,0,1,7.8,1.11A7.65,7.65,0,0,1,40.91,18.83Z"/><path class="cls-1" d="M28.31,80.83A10.26,10.26,0,0,1,23,79.27c-.62-.38-1-.87-.57-1.59s1-.52,1.62-.16A8.43,8.43,0,0,0,29,78.8c.95,0,1.52.34,1.47,1-.05.83-.63,1.06-1.37,1Z"/><path class="cls-1" d="M31.57,59.68c-1.12,0-2,.07-2.89,0a3,3,0,0,1-2.51-1.82c-.29-.6-.28-1.17.37-1.51s1,0,1.39.5a2.59,2.59,0,0,0,3.22.65.58.58,0,0,0,.26-.42c0-2.74,0-5.48,0-8.26-1.14.12-2,.28-3,.3a2.66,2.66,0,0,1-2.95-3,8.26,8.26,0,0,1,.63-2.68,13.69,13.69,0,0,1,4.49-5.68,1.75,1.75,0,0,0,.58-1.1c.09-.88,0-1.79,0-2.68,0-.7.28-1.24,1.08-1.2s1,.56.95,1.22,0,1.6,0,2.48h1.14A4.81,4.81,0,0,1,38.77,39c.36.59.47,1.21-.2,1.62s-1.18.08-1.53-.54A2.81,2.81,0,0,0,34,38.54c-.24,0-.63.31-.64.48,0,2.34,0,4.67,0,7.06.8-.13,1.46-.22,2.13-.34A3.64,3.64,0,0,1,39.48,50a12.05,12.05,0,0,1-5.29,8.26,1.31,1.31,0,0,0-.69,1.35c.08,1,.08,2,.1,3,0,.72-.26,1.25-1,1.25s-1-.5-1-1.18Zm1.86-11.5v7.93l.24.13c.66-.74,1.38-1.45,2-2.24a8.58,8.58,0,0,0,1.82-4.2,1.62,1.62,0,0,0-1.93-2C34.82,47.87,34.1,48.05,33.43,48.18Zm-2.21-8.06L31,40c-.49.54-1,1-1.47,1.62a9,9,0,0,0-2,4.12c-.16,1,.24,1.44,1.21,1.35s1.66-.3,2.46-.44Z"/></g></g></g></svg>