<svg xmlns="http://www.w3.org/2000/svg" viewBox="0 0 33.57 33.57"><defs><style>.cls-1{fill:#f1e337;}</style></defs><g id="Capa_2" data-name="Capa 2"><g id="Capa_1-2" data-name="Capa 1"><rect class="cls-1" width="33.57" height="33.57"/><path d="M20.62,17.36a2.93,2.93,0,0,1-5.86.1c.07-1.62.67-3,3.36-2.91A2.68,2.68,0,0,1,20.62,17.36Z"/><path d="M10.47,17.67a3.07,3.07,0,0,1-3.05,3,2.84,2.84,0,0,1-2.78-2.87,3.28,3.28,0,0,1,3.24-2.92A2.68,2.68,0,0,1,10.47,17.67Z"/><path d="M26,19.91a3,3,0,0,1-2.94-3c.15-1.79,1-2.47,3.2-2.45a2.71,2.71,0,0,1,2.62,2.71A2.86,2.86,0,0,1,26,19.91Z"/></g></g></svg>