<svg xmlns="http://www.w3.org/2000/svg" viewBox="0 0 33.57 33.57"><defs><style>.cls-1{fill:#f9eb37;}</style></defs><g id="Capa_2" data-name="Capa 2"><g id="TEXTOS"><rect class="cls-1" width="33.57" height="33.57"/><path d="M4.4,18.85c2.48,5.33,7.86,8.83,13.29,8.34s9.94-4.49,11.84-10a.72.72,0,1,0-1.38-.43c-1.7,4.89-6,8.53-10.8,8.82S7.85,22.8,5.64,18.05c-.42-.91-1.66-.11-1.24.8Z"/><path d="M19.31,8.78a.74.74,0,0,0-.6.21,4.62,4.62,0,0,0,2,3.38,6.88,6.88,0,0,0,3.82,1.17,4.89,4.89,0,0,0,1.94-.28c1.53-.59,4.73-4.07,1.67-4.49A53.13,53.13,0,0,0,19.31,8.78Z"/><path d="M14.59,8.78a.74.74,0,0,1,.6.21,4.65,4.65,0,0,1-2,3.38,6.88,6.88,0,0,1-3.82,1.17,4.89,4.89,0,0,1-1.94-.28C5.9,12.67,2.7,9.19,5.76,8.77A53.13,53.13,0,0,1,14.59,8.78Z"/><rect x="15.65" y="0.96" width="0.85" height="16.34" transform="translate(6.9 25.18) rotate(-89.81)"/></g></g></svg>