<svg xmlns="http://www.w3.org/2000/svg" viewBox="0 0 33.57 33.57"><defs><style>.cls-1{fill:#f9eb37;}</style></defs><g id="Capa_2" data-name="Capa 2"><g id="TEXTOS"><rect class="cls-1" width="33.57" height="33.57"/><path d="M17.52,28.8c-.48,0-1,0-1.55-.05a.34.34,0,0,1-.33-.33c0-.4-.05-.78-.08-1.2l0-.23-.17,0c-3.63-.67-4.87-3.08-5.83-5.49a.33.33,0,0,1,.2-.43l0,0c1-.37,2-.76,3-1.08a.25.25,0,0,1,.12,0,.36.36,0,0,1,.32.2c.53,1.13,1.74,3,3.85,3h0a3,3,0,0,0,1.68-.51,1.91,1.91,0,0,0,.78-1.6c0-2.48-2.17-2.9-4.65-3.38s-5.53-1.07-5.55-4.49a6.35,6.35,0,0,1,4.94-6.48l.18-.05,0-.18,0-.37v0c0-.22,0-.44-.07-.65A.35.35,0,0,1,14.68,5a16.1,16.1,0,0,1,3-.26l1.13,0a.33.33,0,0,1,.25.12.33.33,0,0,1,.08.25c-.05.39-.07.73-.08,1.06v.18l.18,0a6.7,6.7,0,0,1,5,4.33.33.33,0,0,1-.15.42l-.63.32h0c-.53.27-1.13.57-1.68.9a.37.37,0,0,1-.48-.1,5.38,5.38,0,0,0-4.21-2.4h0a4.29,4.29,0,0,0-1.06.14,2.39,2.39,0,0,0-1.68,2.1c0,1.67,1.52,1.89,3.6,2.2,2.63.38,6.22.92,7,5.42a.33.33,0,0,1-.29.38h-.06a.36.36,0,0,1-.35-.28c-.73-4-3.76-4.48-6.44-4.88-2.15-.31-4.18-.61-4.2-2.85a3.06,3.06,0,0,1,2.18-2.74,4.9,4.9,0,0,1,1.26-.17h0a5.85,5.85,0,0,1,4.47,2.29l.12.15.17-.1c.42-.23.84-.44,1.25-.65l.38-.19-.09-.18A5.87,5.87,0,0,0,18.68,7a.34.34,0,0,1-.3-.32c0-.08,0-.16,0-.24,0-.26,0-.52,0-.8l0-.23h-.73a14.73,14.73,0,0,0-2.34.17l-.21,0,0,.36c0,.28.06.57.1.86a.32.32,0,0,1-.27.37,5.8,5.8,0,0,0-4.89,6c0,2.68,2,3.26,5,3.84,2.55.49,5.19,1,5.21,4a2.5,2.5,0,0,1-1,2.05,3.6,3.6,0,0,1-2.19.72h0a4.94,4.94,0,0,1-4.27-3l-.09-.17-.19.07c-.7.23-1.39.49-2,.73l-.21.08.09.2c.87,2.08,2,4.15,5.51,4.63a.33.33,0,0,1,.3.31c0,.15,0,.49,0,.49l.06.74v.19h.2l1,0a13.15,13.15,0,0,0,2.36-.2l.23,0-.05-.22a10.88,10.88,0,0,1-.27-1.18.33.33,0,0,1,.23-.37,6.27,6.27,0,0,0,2.59-1.58.39.39,0,0,1,.25-.1.32.32,0,0,1,.25.1.3.3,0,0,1,.11.23.37.37,0,0,1-.1.24,7.33,7.33,0,0,1-2.41,1.58l-.18.07,0,.17c.08.36.18.72.27,1.07l0,.15a.33.33,0,0,1-.25.4,12.25,12.25,0,0,1-3,.34Z"/><path d="M17.52,28.93h0c-.48,0-1,0-1.56-.06a.46.46,0,0,1-.44-.44c0-.4,0-.79-.08-1.2v-.14h-.08C11.66,26.4,10.4,24,9.43,21.51a.4.4,0,0,1,0-.34.44.44,0,0,1,.26-.24l.05,0c1-.38,2-.76,3.05-1.09a.51.51,0,0,1,.58.24c.52,1.11,1.69,3,3.74,3a2.75,2.75,0,0,0,1.64-.48,1.79,1.79,0,0,0,.73-1.5c0-2.38-2.12-2.79-4.55-3.26-2.64-.51-5.63-1.09-5.66-4.61a6.49,6.49,0,0,1,5-6.6l.08,0-.05-.49c0-.23,0-.44-.07-.65a.47.47,0,0,1,.38-.5,17.17,17.17,0,0,1,4.18-.23.42.42,0,0,1,.33.16.4.4,0,0,1,.11.34c-.05.39-.07.73-.08,1.06v.07l.08,0a6.82,6.82,0,0,1,5.14,4.41.43.43,0,0,1-.21.57l-.62.32c-.55.28-1.15.58-1.7.9a.48.48,0,0,1-.64-.13,5.25,5.25,0,0,0-4.11-2.35,4.11,4.11,0,0,0-1.06.14,2.25,2.25,0,0,0-1.59,2c0,1.57,1.4,1.78,3.5,2.09,2.66.39,6.31.93,7.14,5.52a.42.42,0,0,1-.09.34.42.42,0,0,1-.3.18.47.47,0,0,1-.55-.37c-.71-3.94-3.7-4.39-6.34-4.78-2.11-.31-4.28-.63-4.3-3a3.17,3.17,0,0,1,2.27-2.85,4.67,4.67,0,0,1,1.29-.18h0a6,6,0,0,1,4.58,2.33l.05.07.09,0c.4-.23.81-.44,1.22-.64l.3-.15,0-.08a5.74,5.74,0,0,0-4.67-3.48.46.46,0,0,1-.41-.43,2.18,2.18,0,0,1,0-.25q0-.39,0-.81v-.1h-.11a15.19,15.19,0,0,0-2.82.16h-.09l0,.25c0,.25.06.56.1.85a.45.45,0,0,1-.37.51,5.68,5.68,0,0,0-4.79,5.83c0,2.58,1.95,3.15,4.9,3.72,2.59.5,5.28,1,5.3,4.15a2.62,2.62,0,0,1-1,2.15,3.76,3.76,0,0,1-2.27.74h0c-1.77,0-3.32-1.08-4.38-3l0-.08-.09,0-2,.73-.09,0,0,.08c.86,2,2,4.09,5.42,4.56a.46.46,0,0,1,.4.42l0,.49q0,.36.06.75V28h.09a14.37,14.37,0,0,0,3.32-.17l.1,0,0-.09c-.1-.37-.2-.77-.27-1.19A.45.45,0,0,1,20,26a6.09,6.09,0,0,0,2.54-1.55.5.5,0,0,1,.67,0,.44.44,0,0,1,0,.64,7.32,7.32,0,0,1-2.45,1.61l-.08,0,0,.07c.08.36.17.71.27,1.06L21,28a.45.45,0,0,1-.05.34.46.46,0,0,1-.29.22,13,13,0,0,1-3,.35ZM13,20h-.08c-1,.33-2,.71-3,1.08l-.06,0a.28.28,0,0,0-.12.12.2.2,0,0,0,0,.15c.95,2.38,2.18,4.76,5.75,5.42l.25.05,0,.32c0,.42.07.81.08,1.21a.23.23,0,0,0,.21.21c.57,0,1.07.05,1.55.05h.14a12.5,12.5,0,0,0,2.94-.34.21.21,0,0,0,.14-.1.16.16,0,0,0,0-.15l0-.15c-.1-.36-.2-.71-.28-1.07l-.06-.28.27-.1A7.11,7.11,0,0,0,23,24.93a.21.21,0,0,0,.07-.15.27.27,0,0,0-.07-.14.24.24,0,0,0-.33,0,6.37,6.37,0,0,1-2.64,1.6.21.21,0,0,0-.15.24c.07.41.17.8.26,1.17l.09.34-.36.07a14.73,14.73,0,0,1-3.37.18l-.31,0,0-.3-.06-.74,0-.49a.23.23,0,0,0-.19-.2c-3.57-.49-4.73-2.59-5.62-4.71l-.13-.31.33-.12c.65-.25,1.34-.5,2-.74l.29-.09.14.25c1,1.88,2.48,2.92,4.16,2.92h0A3.56,3.56,0,0,0,19.27,23a2.38,2.38,0,0,0,.92-2c0-2.93-2.61-3.43-5.11-3.91C12,16.54,10,15.94,10,13.17A5.91,5.91,0,0,1,15,7.1a.2.2,0,0,0,.17-.23c0-.3-.07-.62-.1-.87l0-.48.32,0a15.52,15.52,0,0,1,2.86-.16h.36l0,.34c0,.29,0,.54,0,.79a2.18,2.18,0,0,1,0,.25.22.22,0,0,0,.2.2,6,6,0,0,1,4.86,3.62l.14.29-.51.26c-.4.2-.82.41-1.22.63l-.26.14-.18-.22a5.76,5.76,0,0,0-4.38-2.25h0a5.14,5.14,0,0,0-1.23.17,2.93,2.93,0,0,0-2.09,2.62c0,2.13,1.91,2.41,4.09,2.73,2.72.41,5.81.86,6.55,5a.23.23,0,0,0,.27.18.38.38,0,0,0,.15-.09.23.23,0,0,0,0-.16c-.8-4.42-4.35-4.94-6.93-5.32-2.07-.31-3.69-.55-3.71-2.32A2.51,2.51,0,0,1,16,10a4.64,4.64,0,0,1,1.1-.16h0a5.52,5.52,0,0,1,4.31,2.46.24.24,0,0,0,.32.06c.55-.32,1.15-.63,1.68-.9l.65-.32a.22.22,0,0,0,.1-.27,6.61,6.61,0,0,0-5-4.26L19,6.51V6.23A8.73,8.73,0,0,1,19,5.15.17.17,0,0,0,19,5a.21.21,0,0,0-.16-.08,17.26,17.26,0,0,0-4.13.23.22.22,0,0,0-.18.23c0,.21.05.43.07.65l.08.7-.29.08a6.23,6.23,0,0,0-4.85,6.36c0,3.32,2.91,3.88,5.45,4.37s4.73.92,4.75,3.5a2,2,0,0,1-.83,1.7,3.1,3.1,0,0,1-1.75.53c-2.21,0-3.45-1.94-4-3.1A.23.23,0,0,0,13,20Z"/></g></g></svg>