<svg xmlns="http://www.w3.org/2000/svg" viewBox="0 0 63.07 63.02"><defs><style>.cls-1{fill:#f5f5f5;}</style></defs><g id="Capa_2" data-name="Capa 2"><g id="TEXTOS"><ellipse cx="31.54" cy="31.51" rx="31.54" ry="31.51"/><path class="cls-1" d="M47.09,46.88a.47.47,0,0,1-.17,0l-.07,0-1-.88a.51.51,0,0,1-.15-.25.38.38,0,0,1,.08-.3.43.43,0,0,1,.25-.15h0a.4.4,0,0,1,.24.07l1,.88a.43.43,0,0,1,.16.25.38.38,0,0,1-.08.3.43.43,0,0,1-.25.15Z"/><path class="cls-1" d="M47.09,47a.65.65,0,0,1-.21,0,.35.35,0,0,1-.12-.07L45.81,46a.54.54,0,0,1-.19-.33.51.51,0,0,1,.09-.39.54.54,0,0,1,.34-.2.5.5,0,0,1,.4.1l.95.87a.54.54,0,0,1,.19.33.49.49,0,0,1-.1.39.49.49,0,0,1-.33.2Zm-1-1.66h0a.29.29,0,0,0-.17.1.27.27,0,0,0-.06.2.36.36,0,0,0,.12.19l1,.87,0,0,.15,0a.32.32,0,0,0,.17-.1.27.27,0,0,0,.06-.2.36.36,0,0,0-.12-.19l-.95-.87A.22.22,0,0,0,46.12,45.35Z"/><path class="cls-1" d="M52.39,38.89a1.29,1.29,0,0,1-.51-.1,1.21,1.21,0,0,1-.59-.47,1.41,1.41,0,0,1,0-1.55l0,0,0,0,0,0a.51.51,0,0,1,.09-.1,1.23,1.23,0,0,1,.89-.35,1.45,1.45,0,0,1,.76.21,1.34,1.34,0,0,1,.58,1.33,1.32,1.32,0,0,1-1.05,1.09,1.24,1.24,0,0,1-.27,0Zm-.46-1a.61.61,0,0,0,.24.21.53.53,0,0,0,.39,0,.59.59,0,0,0,.34-.72.52.52,0,0,0-.32-.31.68.68,0,0,0-.44.06.38.38,0,0,0-.13.06.36.36,0,0,0-.07.1A.59.59,0,0,0,51.93,37.87Z"/><path class="cls-1" d="M52.39,39a1.55,1.55,0,0,1-.56-.11,1.33,1.33,0,0,1-.64-.52,1.53,1.53,0,0,1,0-1.69.33.33,0,0,1,.06-.06l0,0a.91.91,0,0,1,.11-.12,1.37,1.37,0,0,1,1-.39,1.56,1.56,0,0,1,.82.23A1.47,1.47,0,0,1,52.68,39,1.36,1.36,0,0,1,52.39,39Zm0-2.67a1.09,1.09,0,0,0-.8.32l-.07.07-.08.09a1.25,1.25,0,0,0,0,1.42,1.06,1.06,0,0,0,.52.43,1.24,1.24,0,0,0,.71.06,1.2,1.2,0,0,0,.43-2.19A1.27,1.27,0,0,0,52.37,36.35Zm0,1.9a.58.58,0,0,1-.26-.06.57.57,0,0,1-.29-.26h0a.7.7,0,0,1,0-.71.5.5,0,0,1,.1-.14A.65.65,0,0,1,52.1,37a.8.8,0,0,1,.52-.06.65.65,0,0,1,.39.39.7.7,0,0,1,0,.43.76.76,0,0,1-.41.45A.85.85,0,0,1,52.38,38.25ZM52,37.8a.42.42,0,0,0,.18.17.39.39,0,0,0,.3,0,.42.42,0,0,0,.26-.29.42.42,0,0,0,0-.27.39.39,0,0,0-.24-.23.6.6,0,0,0-.36,0l-.09.05a.15.15,0,0,0,0,.06.45.45,0,0,0,0,.46Z"/><path class="cls-1" d="M31.73,57.68a25.91,25.91,0,0,1-9.59-1.84C16.59,53.62,11.91,49.39,7.82,42.9,3,35.23,6.45,25,7.62,22.08a26,26,0,1,1,24.11,35.6ZM31.79,6.5A25.22,25.22,0,0,0,8.35,22.37c-1.14,2.86-4.49,12.76.13,20.11,4,6.35,8.56,10.48,14,12.63a25,25,0,0,0,9.3,1.79,25.29,25.29,0,0,0,14-4.24A25.19,25.19,0,0,0,41.09,8.29,25,25,0,0,0,31.79,6.5Z"/><path class="cls-1" d="M31.73,58.06h0A26.07,26.07,0,0,1,22,56.18C16.38,53.94,11.63,49.66,7.5,43.1c-4.92-7.82-1.42-18.17-.22-21.16A26.13,26.13,0,0,1,17.15,9.77,26.35,26.35,0,1,1,31.73,58.06Zm.07-52A25.65,25.65,0,0,0,8,22.22c-1.16,2.9-4.57,13,.17,20.48,4,6.42,8.67,10.61,14.14,12.79A25.63,25.63,0,0,0,55.55,41.18,25.61,25.61,0,0,0,31.8,6.08Zm-.07,51.19a25.27,25.27,0,0,1-9.43-1.82C16.83,53.28,12.2,49.1,8.17,42.68,3.44,35.18,6.85,25.13,8,22.23a25.56,25.56,0,1,1,23.72,35Zm.06-50.4A24.89,24.89,0,0,0,8.7,22.51c-1.12,2.81-4.43,12.57.1,19.77,3.95,6.28,8.46,10.36,13.77,12.48A24.82,24.82,0,1,0,41,8.64,24.47,24.47,0,0,0,31.79,6.87Z"/><path class="cls-1" d="M52.38,30a.41.41,0,0,1-.16,0l-.09-.05a.4.4,0,0,1-.15-.26.35.35,0,0,1,.08-.29.39.39,0,0,1,.25-.15l.94-.12h0a.46.46,0,0,1,.25.08.39.39,0,0,1,.07.55.39.39,0,0,1-.25.15l-.94.11Z"/><path class="cls-1" d="M52.38,30.08a.45.45,0,0,1-.2,0,.34.34,0,0,1-.12-.06.53.53,0,0,1-.2-.33.49.49,0,0,1,.1-.4.57.57,0,0,1,.34-.2l.93-.11a.52.52,0,0,1,.49.83.57.57,0,0,1-.34.2l-.93.11Zm.92-.89h0l-.93.11a.27.27,0,0,0-.17.1.31.31,0,0,0-.06.2.39.39,0,0,0,.1.18l.07,0a.25.25,0,0,0,.15,0l.93-.11a.3.3,0,0,0,.17-.1.25.25,0,0,0,0-.2.24.24,0,0,0-.27-.23Z"/><path class="cls-1" d="M14.31,44l-.15,0a.4.4,0,0,1-.24-.28.38.38,0,0,1,0-.29.42.42,0,0,1,.24-.18L15.3,43h.09a.39.39,0,0,1,.38.3.38.38,0,0,1,0,.29.38.38,0,0,1-.24.18l-1.1.22Z"/><path class="cls-1" d="M14.31,44.1a.45.45,0,0,1-.2,0,.52.52,0,0,1-.31-.35.45.45,0,0,1,.06-.39.48.48,0,0,1,.32-.24l1.09-.22a.51.51,0,0,1,.62.38.46.46,0,0,1-.06.39.51.51,0,0,1-.32.24l-1.09.22Zm1.08-1h-.07l-1.09.22a.28.28,0,0,0-.16.13.22.22,0,0,0,0,.19.26.26,0,0,0,.16.19.32.32,0,0,0,.17,0l1.09-.22a.27.27,0,0,0,.16-.12.22.22,0,0,0,0-.19A.27.27,0,0,0,15.39,43.1Z"/><path class="cls-1" d="M18.47,16.13h0l-.09,0a.39.39,0,0,1-.17-.13l-.75-.78a.41.41,0,0,1-.08-.28.39.39,0,0,1,.4-.35h0a.45.45,0,0,1,.27.15l.74.79a.36.36,0,0,1,.08.27h0a.44.44,0,0,1-.15.27.49.49,0,0,1-.25.08Z"/><path class="cls-1" d="M18.47,16.25h0l-.12,0a.62.62,0,0,1-.23-.16l-.74-.79a.48.48,0,0,1-.11-.37.5.5,0,0,1,.57-.46.5.5,0,0,1,.35.19l.74.78a.48.48,0,0,1,.11.37.54.54,0,0,1-.19.36A.52.52,0,0,1,18.47,16.25Zm-.72-1.57a.3.3,0,0,0-.18.05.28.28,0,0,0-.1.18.26.26,0,0,0,0,.19l.75.79a.49.49,0,0,0,.13.1h.08a.26.26,0,0,0,.17-.05.26.26,0,0,0,.1-.18.3.3,0,0,0,0-.19L18,14.8a.29.29,0,0,0-.19-.12Z"/><path class="cls-1" d="M29.87,11.91l-.1,0a.45.45,0,0,1-.22-.21l-.34-.78a.42.42,0,0,1,0-.31.39.39,0,0,1,.21-.21l.12,0h.06l.1,0h0a.36.36,0,0,1,.21.21l.34.78a.39.39,0,0,1,0,.3.38.38,0,0,1-.21.22l-.12,0h-.07Z"/><path class="cls-1" d="M29.87,12h0l-.14,0a.55.55,0,0,1-.3-.28l-.33-.78a.5.5,0,0,1,0-.4.49.49,0,0,1,.27-.28.39.39,0,0,1,.18,0h.05a.5.5,0,0,1,.16,0,.57.57,0,0,1,.3.29l.33.78a.48.48,0,0,1,0,.39.54.54,0,0,1-.27.29.39.39,0,0,1-.18,0Zm-.27-1.56h-.13a.34.34,0,0,0-.15.14.33.33,0,0,0,0,.22l.33.78a.39.39,0,0,0,.16.15h.09l.1,0a.22.22,0,0,0,.14-.14.26.26,0,0,0,0-.21l-.33-.79a.47.47,0,0,0-.14-.14Z"/><path class="cls-1" d="M11.56,33.46l-1.07-.11h0l-.13,0,0,0-.1-.07a.42.42,0,0,1-.11-.27.38.38,0,0,1,.11-.28.42.42,0,0,1,.25-.12l1.09.1h0a.41.41,0,0,1,.18,0l.09.07a.36.36,0,0,1,.12.27h0a.43.43,0,0,1-.11.28.42.42,0,0,1-.26.12Z"/><path class="cls-1" d="M11.57,33.58h0l-1.08-.1a.28.28,0,0,1-.18,0l0,0-.12-.08A.52.52,0,0,1,10,33a.5.5,0,0,1,.14-.38.54.54,0,0,1,.34-.16l1.1.11a.44.44,0,0,1,.23.06l.12.08a.49.49,0,0,1,.16.36.54.54,0,0,1-.14.38A.59.59,0,0,1,11.57,33.58Zm0-.25h0a.3.3,0,0,0,.16-.08.28.28,0,0,0,0-.37l-.09-.06-.1,0-1.11-.11a.32.32,0,0,0-.15.08.29.29,0,0,0-.08.19.33.33,0,0,0,.08.19l.1.06.08,0Z"/><path class="cls-1" d="M12.5,23.93a1.49,1.49,0,0,1-.51-.1,1.23,1.23,0,0,1-.59-.48,1.36,1.36,0,0,1,1.08-2.09,1.55,1.55,0,0,1,.76.21,1.34,1.34,0,0,1,.58,1.33,1.32,1.32,0,0,1-1.05,1.1A1.24,1.24,0,0,1,12.5,23.93Zm-.48-1a.69.69,0,0,0,1.12,0,.67.67,0,0,0-.06-.75l-.1-.1a.74.74,0,0,0-.65-.15.65.65,0,0,0-.3.27A.61.61,0,0,0,12,22.93Z"/><path class="cls-1" d="M12.5,24.05a1.55,1.55,0,0,1-.56-.11,1.33,1.33,0,0,1-.64-.52,1.53,1.53,0,0,1,0-1.55,1.38,1.38,0,0,1,1.21-.73,1.56,1.56,0,0,1,.82.23,1.46,1.46,0,0,1,.64,1.45A1.42,1.42,0,0,1,12.79,24,1.36,1.36,0,0,1,12.5,24.05Zm0-2.66a1.11,1.11,0,0,0-1,.6,1.29,1.29,0,0,0,0,1.3,1.08,1.08,0,0,0,.53.42,1.29,1.29,0,0,0,.7.07,1.22,1.22,0,0,0,.44-2.2A1.32,1.32,0,0,0,12.48,21.39Zm.12,1.94a.85.85,0,0,1-.67-.32.75.75,0,0,1,0-.89.81.81,0,0,1,.37-.32.87.87,0,0,1,.76.17l.13.12a.79.79,0,0,1,.06.89.73.73,0,0,1-.6.35ZM12.49,22l-.11,0a.61.61,0,0,0-.25.22.49.49,0,0,0,0,.6h0a.62.62,0,0,0,.51.23.47.47,0,0,0,.4-.23.55.55,0,0,0,0-.6l-.09-.08A.77.77,0,0,0,12.49,22Z"/><path class="cls-1" d="M35.67,53a.32.32,0,0,1-.14,0,.35.35,0,0,1-.22-.21l-.47-1a.39.39,0,0,1,0-.3.36.36,0,0,1,.21-.21.33.33,0,0,1,.15,0l.15,0a.41.41,0,0,1,.21.22l.47,1a.47.47,0,0,1,0,.31.43.43,0,0,1-.21.21.41.41,0,0,1-.16,0Z"/><path class="cls-1" d="M35.67,53.13a.65.65,0,0,1-.19,0,.53.53,0,0,1-.28-.27l-.47-1a.55.55,0,0,1,0-.4.48.48,0,0,1,.28-.28.5.5,0,0,1,.4,0,.57.57,0,0,1,.28.27l.47,1a.55.55,0,0,1,0,.4.49.49,0,0,1-.27.28A.46.46,0,0,1,35.67,53.13Zm-.47-1.81-.1,0a.31.31,0,0,0-.14.14.25.25,0,0,0,0,.21l.46,1a.31.31,0,0,0,.15.15.34.34,0,0,0,.2,0,.31.31,0,0,0,.15-.15.27.27,0,0,0,0-.2l-.47-1a.28.28,0,0,0-.15-.15Z"/><path class="cls-1" d="M26.13,48.36a.41.41,0,0,1-.16,0h0a.32.32,0,0,1-.21-.42l5.8-17.46,0-.06a1.06,1.06,0,0,1,0-.82,1,1,0,0,1,1-.65h.25l12.42-7.29a.36.36,0,0,1,.2-.06.41.41,0,0,1,.33.2.37.37,0,0,1-.13.52L33.38,29.44l.06.15a1,1,0,0,1-1,1.4h-.27L26.51,48.09A.39.39,0,0,1,26.13,48.36Z"/><path class="cls-1" d="M26.13,48.73a.86.86,0,0,1-.28,0,.71.71,0,0,1-.46-.91l5.75-17.32a1.49,1.49,0,0,1,0-1,1.44,1.44,0,0,1,1.5-.88l12.3-7.23a.76.76,0,0,1,1,.28.8.8,0,0,1,.1.52.68.68,0,0,1-.36.51l-11.88,7a1.42,1.42,0,0,1-1.38,1.76h0l-5.6,16.84A.75.75,0,0,1,26.13,48.73Zm6.33-19.45a.67.67,0,0,0-.61.94l.06.14v.2L26.1,48l0,0h0l5.78-17.42.46.05h0a.68.68,0,0,0,.68-.41.72.72,0,0,0,0-.48l-.17-.44L45.34,22,32.78,29.33l-.13,0Z"/><path class="cls-1" d="M23.52,52.64h-.21L23,52.55a1.34,1.34,0,0,1-.8-1,1.3,1.3,0,0,1,.54-1.37,1.48,1.48,0,0,1,.78-.23,1.4,1.4,0,0,1,.77.24l0,0,0,0,0,0,.12.1a1.37,1.37,0,0,1,.13,1.65,1.33,1.33,0,0,1-1.12.59Zm.3-.82a.68.68,0,0,0,.16-.29A.64.64,0,0,0,24,51a.6.6,0,0,0-.22-.16.65.65,0,0,0-.33-.11.43.43,0,0,0-.35.2.65.65,0,0,0-.07.49h0v0a.55.55,0,0,0,.44.36.47.47,0,0,0,.33,0Z"/><path class="cls-1" d="M23.52,52.77l-.23,0a1.92,1.92,0,0,1-.32-.09,1.41,1.41,0,0,1-.87-1.06,1.43,1.43,0,0,1,.6-1.5,1.55,1.55,0,0,1,1.69,0l.06.06v0a.45.45,0,0,1,.13.11,1.5,1.5,0,0,1,.16,1.8A1.47,1.47,0,0,1,23.52,52.77Zm0-2.66a1.33,1.33,0,0,0-.71.21,1.18,1.18,0,0,0-.49,1.23,1.19,1.19,0,0,0,.73.88.77.77,0,0,0,.26.07A1.23,1.23,0,0,0,24.54,52a1.27,1.27,0,0,0-.12-1.5l-.09-.07-.08-.08A1.24,1.24,0,0,0,23.54,50.11Zm.09,1.9a.85.85,0,0,1-.23,0,.67.67,0,0,1-.51-.42h0v0A.83.83,0,0,1,23,50.9a.54.54,0,0,1,.45-.26h0a.82.82,0,0,1,.39.13.63.63,0,0,1,.26.2.7.7,0,0,1,0,.6.64.64,0,0,1-.19.35h0l-.07,0A.37.37,0,0,1,23.63,52Zm-.51-.57h0a.55.55,0,0,0,.59.3l0,0a.67.67,0,0,0,.12-.61.48.48,0,0,0-.17-.13.72.72,0,0,0-.27-.09h0a.29.29,0,0,0-.24.15.54.54,0,0,0-.06.4Z"/><path class="cls-1" d="M47.15,17.8l-.16,0a.39.39,0,0,1,0-.72l1-.57a.25.25,0,0,1,.13,0,.45.45,0,0,1,.16,0,.38.38,0,0,1,.22.21.39.39,0,0,1,0,.3.41.41,0,0,1-.21.22l-1,.56A.26.26,0,0,1,47.15,17.8Z"/><path class="cls-1" d="M47.15,17.93a.79.79,0,0,1-.2,0,.53.53,0,0,1-.28-.27.51.51,0,0,1,0-.4.49.49,0,0,1,.27-.28l1-.57a.5.5,0,0,1,.68.27.5.5,0,0,1,0,.4.61.61,0,0,1-.27.28l-1,.56A.39.39,0,0,1,47.15,17.93Zm1-1.35h-.07l-1,.57a.29.29,0,0,0-.16.15.34.34,0,0,0,0,.2.36.36,0,0,0,.15.15.3.3,0,0,0,.19,0l1-.56a.33.33,0,0,0,.16-.15.34.34,0,0,0,0-.2.29.29,0,0,0-.14-.15Z"/><path class="cls-1" d="M39.47,10.51l-.11-.1h0l0,0,0,0a1.43,1.43,0,0,0-.77-.24,1.48,1.48,0,0,0-.78.23,1.33,1.33,0,0,0-.55,1.37,1.35,1.35,0,0,0,.81,1,1.38,1.38,0,0,0,.29.08h.2a1.33,1.33,0,0,0,1.13-.59A1.36,1.36,0,0,0,39.47,10.51Zm-.8,1.64a.73.73,0,0,1-.89-.54.73.73,0,0,1,.53-.89.74.74,0,0,1,.36,1.43Z"/><path class="cls-1" d="M38.48,12.88l-.22,0a.9.9,0,0,1-.32-.09,1.46,1.46,0,0,1-.28-2.55,1.55,1.55,0,0,1,1.69,0,.17.17,0,0,1,.06.06l0,0a.63.63,0,0,1,.13.11,1.5,1.5,0,0,1,.16,1.8A1.46,1.46,0,0,1,38.48,12.88Zm0-2.66a1.31,1.31,0,0,0-.71.21,1.17,1.17,0,0,0-.49,1.23,1.2,1.2,0,0,0,.72.88,1.38,1.38,0,0,0,.27.08,1.22,1.22,0,0,0,1.08-2h0l-.09-.07-.07-.07A1.18,1.18,0,0,0,38.51,10.22Zm0,2.08a.82.82,0,0,1-.43-.12.86.86,0,0,1-.3-1.19.84.84,0,0,1,.52-.4.87.87,0,0,1,.65.1.9.9,0,0,1,.39.54.87.87,0,0,1-.09.65.84.84,0,0,1-.53.39h0Zm0-1.48a.39.39,0,0,0-.15,0,.57.57,0,0,0-.37.27.65.65,0,0,0-.07.47.59.59,0,0,0,.29.38.55.55,0,0,0,.45.07h0a.58.58,0,0,0,.37-.28.62.62,0,0,0,.07-.46.6.6,0,0,0-.28-.38A.59.59,0,0,0,38.49,10.82Z"/></g></g></svg>