<svg xmlns="http://www.w3.org/2000/svg" viewBox="0 0 153.19 255.84"><defs><style>.cls-1{fill:#fff;opacity:0.2;}</style></defs><g id="Capa_2" data-name="Capa 2"><g id="Capa_1-2" data-name="Capa 1"><path class="cls-1" d="M123.64,253.73c-.41,0-.83,0-1.26,0H69A54.1,54.1,0,0,1,69.73,218a51.57,51.57,0,0,1,10.93-17.42,54.27,54.27,0,0,1,13.62-10.41A53.19,53.19,0,0,1,114.36,184a1.21,1.21,0,0,0,1-.71,1.29,1.29,0,0,0-.09-1.25,1,1,0,0,0-1-.42,56.15,56.15,0,0,0-28.32,11c-.12,0-.35-.06-.46-.08l-.23,0-1.05-.13-2-.25c-1.53-.19-2.8-.38-4-.59-2.29-.41-4.58-1-6.79-1.62l-.67-.18a23.15,23.15,0,0,1-4.9-2.23l-.19-.1a25,25,0,0,1-5.19-3.78,17.63,17.63,0,0,1-5.59-10.49,16.52,16.52,0,0,1,2.72-10.77,26,26,0,0,1,10.13-9.22c.61-.29,1.2-.63,1.78-1A26.14,26.14,0,0,1,72,150.92a42.94,42.94,0,0,1,5.32-1.86,55.29,55.29,0,0,1,21.28-1.6,62.82,62.82,0,0,1,22.14,6.93,59.52,59.52,0,0,1,17.53,14c9.48,11.18,13.93,26.5,12.21,42s-9.1,29.64-20.28,39.11c-.79.67-1.6,1.31-2.43,1.93l-1.3.94a13,13,0,0,1-1.14.8,3.29,3.29,0,0,1-.62.23l-.56.17a2.36,2.36,0,0,1-.46.1m-70.09,0H30.1c-5.68,0-8.15-5.71-10.35-10q-2.67-5.19-4.95-10.56t-4.15-10.92Q8.78,216.7,7.31,211c-.15-.61-.31-1.21-.45-1.82a157.68,157.68,0,0,1-3.93-23.78c-.56-6.63-1.21-14.14.46-21a17.87,17.87,0,0,1,3.84-8,12,12,0,0,1,8.12-3.95c6.31-.39,12.7,3.32,17.11,9.92a56.6,56.6,0,0,1,5.13,10.1l.14.32c2.69,6.54,6.38,15.5,4.72,22.42a12.56,12.56,0,0,1-5.16,7.86c-5.18,3.3-12.08.82-16.22-3.32-5.36-5.37-6.24-13.77-6.4-20.48-.05-1.92,0-3.87,0-5.71a1.1,1.1,0,0,0-.54-1,1.28,1.28,0,0,0-1.27,0,1.14,1.14,0,0,0-.58,1c-.06,7.9-.14,16.87,4.28,24.24,3.6,6,10.43,9.78,16.61,9.14,4.55-.47,10.25-3.94,11.81-12.13a19.8,19.8,0,0,0,1.43,1.94c3.69,4.48,8.84,6.45,13.79,5.27,4.64-1.1,8.73-4.79,11-9.9a57.13,57.13,0,0,0,8.07,1.86c1.24.2,2.55.38,4.16.59-1.29,1.08-2.53,2.22-3.69,3.39A54.94,54.94,0,0,0,64,234.84a56.19,56.19,0,0,0,2.54,18.9h-13ZM72.09,64.46Q70.55,59.53,69,54.6c-2.17-6.88-4.41-14-6.51-21-2.72-9.09-4.62-19.38,1.93-26.73,2.74-3.08,6.29-4.73,9.71-4.52C77.84,2.59,81.61,5,84.46,9a57.45,57.45,0,0,1,5.71,11.28c.25.58.49,1.16.73,1.73,2,4.65,3.95,9.56,5.85,14.57a585.92,585.92,0,0,1,18.5,58.65c5.35,20.24,10,40.75,14.25,60a7.07,7.07,0,0,0,.2.71,12.07,12.07,0,0,1,.42,1.7l-.43-.29c-4.53-3-9.21-6.06-14.36-8.11a64.3,64.3,0,0,0-11.64-3.42c-1.64-.32-3.34-.58-5-.77-2-4.93-3.79-10-5.47-15.09-.37-.94-.76-1.88-1.15-2.82s-.72-1.62-1.1-2.44l-.07-.12ZM64.6,148.77c.41.84.79,1.71,1.17,2.66a33.75,33.75,0,0,0-7.58,6.26,21.76,21.76,0,0,0-5.53,10.9,18,18,0,0,0,2.47,12.16c2.88,4.71,7.51,8.3,13.76,10.66a15.41,15.41,0,0,1-6.66,7.38,10.82,10.82,0,0,1-12.6-2,18.71,18.71,0,0,1-4.35-6.15,8.35,8.35,0,0,1-.37-2.75,13.68,13.68,0,0,0-.17-2,33.25,33.25,0,0,0-1.46-5.19l-.55-1.47c-1.41-3.73-2.86-7.58-4.5-11.16l-.37-.79a42.42,42.42,0,0,0-5-8.26,24.47,24.47,0,0,0-3.3-3.49A8.74,8.74,0,0,1,27.22,152a12.07,12.07,0,0,1-.91-3.73,14.16,14.16,0,0,1,1.53-7.55,15.1,15.1,0,0,1,11.62-8,18.8,18.8,0,0,1,2.71-.2,21.88,21.88,0,0,1,12.36,4A31.59,31.59,0,0,1,64.6,148.77m-24.08-48c-3.73-7.61-7.17-15.45-10.21-23.3-1.51-3.9-3-7.89-4.31-11.85L25.77,65a71.74,71.74,0,0,1-2.91-10.17c-.71-3.9-.59-7,.35-9.62a9.22,9.22,0,0,1,6.86-5.86,12.6,12.6,0,0,1,2.48-.26c6.62,0,12,5.49,15.39,10.4,2.19,3.12,4.22,6.43,6.19,9.64l.54.87c2.28,3.72,4.55,7.52,6.72,11.29,4.3,7.47,8.44,15.17,12.31,22.88a453.9,453.9,0,0,1,20.75,48.06l.93,2.57a58.16,58.16,0,0,0-15.2,1.09,46.3,46.3,0,0,0-12.34,4.35c-.39-1-1.55-3.28-4.38-8.91-.27-.55-.46-.92-.51-1a129.29,129.29,0,0,0-7-11.93c-1.3-2-2.64-4.16-3.88-6.24-4.12-6.92-8-14.09-11.53-21.31m111.61,91.46a55.2,55.2,0,0,0-9.19-21.66,59.22,59.22,0,0,0-10-10.8c-2.16-9.73-4.27-19.24-6.44-28.69-2.66-11.53-5.1-21.6-7.46-30.76-2.83-11-5.6-21-8.48-30.45-3.21-10.6-6.46-20.34-9.95-29.78-1.85-5-3.77-10-5.73-14.71l-.79-1.94c-1.64-4-3.34-8.2-5.4-12.09C86.09,6.48,83,3.21,79.36,1.4a13.12,13.12,0,0,0-11.91.06,18.46,18.46,0,0,0-8.09,8.88c-1.76,4-2.24,8.6-1.46,14.17a86,86,0,0,0,3.51,13.77c.2.61.39,1.23.58,1.84l21.62,69.3c-1.75-3.86-3.55-7.7-5.38-11.46A445,445,0,0,0,51.89,51.12c-4.38-6.78-9.54-13.19-17.52-14.23a12.77,12.77,0,0,0-10.06,2.66,13,13,0,0,0-4.2,8.9A29.79,29.79,0,0,0,21.37,59c1,3.81,2.39,7.59,3.7,11.25l.21.58C28.19,79,31.5,87.09,35.12,95a302.79,302.79,0,0,0,23.05,41.35,23.93,23.93,0,0,0-15.94-6.27h-.12c-6.11,0-11.49,2.54-14.77,6.89a16.58,16.58,0,0,0-2.85,14.49c.08.26.16.53.26.79a20,20,0,0,0-2-.87,17.07,17.07,0,0,0-10.61-.7,14.66,14.66,0,0,0-8,5.88C.21,162.3-.12,170,0,176.07A159.65,159.65,0,0,0,20.2,249.65c1.73,3.09,3.75,5.51,7.48,5.85,1.42.13,2.85.33,4.26.33h82.37c3.63,0,7.64.21,11.28-.81,3.4-1,6.11-3.67,8.61-6.09a59.87,59.87,0,0,0,9.12-11A64.68,64.68,0,0,0,152,215.84a62.67,62.67,0,0,0,.12-23.56"/></g></g></svg>