<svg xmlns="http://www.w3.org/2000/svg" viewBox="0 0 162 181.56"><g id="Capa_2" data-name="Capa 2"><g id="Capa_1-2" data-name="Capa 1"><path d="M78,64.38c-.1,9.81-.41,19.62-1,29.41-.06,1.07-.13,2.13-.2,3.2a173.68,173.68,0,0,0-20.91-.19q-3.29.17-6.55.45a.49.49,0,0,0,.15-.37L48.85,64l-.6-32.89c0-2.65,0-5.3-.17-8,0-1.08-.06-2.16-.14-3.23a12.29,12.29,0,0,0-.6-2.65,13.27,13.27,0,0,1-.1-6.17,12.54,12.54,0,0,1,6.34-8.41,13.28,13.28,0,0,1,10.32-1,16.16,16.16,0,0,1,8.36,7,30,30,0,0,1,3.91,12.13c.62,4.7.8,9.47,1,14.21q.39,7.55.57,15.12c0,2.47.21,4.89.21,7.38C78,59.77,78,62.07,78,64.38ZM31.29,99.77c-.91.17-1.82.36-2.73.55q-.42-10.44-.85-20.86l-.44-10.63c-.13-3.13-.15-6.29-.45-9.41a32.77,32.77,0,0,0-.59-3.91,200.86,200.86,0,0,1,.25-21.39q.27-3.9.67-7.8a57.54,57.54,0,0,1,1.07-7.18c1-4.08,3.3-8.34,7.63-9.53,4.08-1.11,7.75,1.78,9.47,5.28a18.86,18.86,0,0,1,1.61,6.83c.2,2.48.18,5,.23,7.47q.29,16,.58,31.94T48.32,93c0,1.31,0,2.61.07,3.92a.5.5,0,0,0,.25.43A174.94,174.94,0,0,0,31.29,99.77Zm69.48-16a22.59,22.59,0,0,1,8.4-9.67,15.55,15.55,0,0,1,11.93-2c8.17,2.27,10.85,11.49,14.67,18,2,3.37,4.52,6.66,7.93,8.66a11,11,0,0,0,10.62.5,14.35,14.35,0,0,0,6.92-8.65c1.4-4.66.68-9.7-.65-14.28a59.56,59.56,0,0,0-12.17-22.43A49,49,0,0,0,127,39.38a42.35,42.35,0,0,0-25.92-.48A38.17,38.17,0,0,0,82.14,52.39,34,34,0,0,0,79,57.62q-.09-10.71-.61-21.4c-.25-5-.44-9.95-1-14.88A32.68,32.68,0,0,0,73.58,8.77a17.92,17.92,0,0,0-8.24-7.7,14.11,14.11,0,0,0-10.79,0,13.74,13.74,0,0,0-7.66,7.56,14.39,14.39,0,0,0-1,5.1,10,10,0,0,0-7.47-5.39c-4.24-.43-8,2.77-9.76,6.37a23.73,23.73,0,0,0-2,6.9c-.38,2.52-.63,5.08-.86,7.62a200.91,200.91,0,0,0-.76,22.62,9.88,9.88,0,0,0-3.54-4.32c-4.52-3-10.23-.32-13.06,3.71a21.41,21.41,0,0,0-3.16,8.24c-.63,3.18-1,6.42-1.43,9.63Q2.5,79.46,1.61,89.86q-1.77,20.92-1.59,42T2.3,173.48c.17,1.71.41,5.85.6,7.56.07.67,1.08.36,1-.32C2.39,167.24,1.47,151.57,1.17,138s0-27.07.92-40.56q.69-10.16,1.84-20.28c.38-3.41.81-6.81,1.27-10.21A83.76,83.76,0,0,1,6.72,57.9a16.08,16.08,0,0,1,4-7.66,9.48,9.48,0,0,1,6.94-2.92,7.5,7.5,0,0,1,1.33.2,6.82,6.82,0,0,1,3.41,2.15,9.05,9.05,0,0,1,1.93,3,26.83,26.83,0,0,1,1.09,3.85c.9,4.3.68,8.64.86,13,.08,1.87.15,3.74.23,5.61q.42,10.29.85,20.6c.06,1.6.13,3.2.19,4.81q-5,1.06-9.86,2.42a.53.53,0,0,0,.28,1,175.53,175.53,0,0,1,48.9-6.34q7,.09,13.9.72c.68.06.67-1,0-1.06-1-.09-1.94-.17-2.92-.24Q78.82,82,79,66.8c0-2.21,0-4.43,0-6.64A35.22,35.22,0,0,1,92.15,44.35,38.1,38.1,0,0,1,116,38.26a45.58,45.58,0,0,1,24.57,9.55,55.05,55.05,0,0,1,15.59,19.76,52,52,0,0,1,4.34,12.82c.83,4.52.64,9.4-1.89,13.38-2.1,3.32-5.66,5.76-9.71,5.5s-7.21-3-9.61-6c-4.9-6.07-6.56-14.52-12.79-19.59a14.06,14.06,0,0,0-10.64-3.08,19,19,0,0,0-10.49,5A28.07,28.07,0,0,0,98.54,86.2a59.45,59.45,0,0,0-3.33,13.46c-1.19,8.76-.21,18.08,5.49,25.17a20.22,20.22,0,0,0,9.18,6.6,16.63,16.63,0,0,0,10.39,0,14.62,14.62,0,0,0,8-6.09c2.11-3.46,2.16-7.63,2.49-11.54s1.14-8.08,4.58-10.42a12.2,12.2,0,0,1,9.85-1.34c8.18,2.15,11.58,11,12.22,18.62a48.05,48.05,0,0,1-4.18,23.48A51.53,51.53,0,0,1,138.85,163c-6.9,5.64-15.25,8.94-23.91,10.76-9.34,1.95-18.93,2.31-28.43,2.78L54.6,178.15l-31.91,1.59-19.31.77c-.67,0-.68,1.09,0,1.05,10.79-.53,25.39-1.07,36.18-1.6l32.53-1.62c10.18-.51,20.41-.78,30.56-1.73,9.35-.87,18.76-2.57,27.28-6.67a50.29,50.29,0,0,0,18.43-15.39,52.39,52.39,0,0,0,9.5-21.94c1.37-7.81,1.26-16.8-2.79-23.86a16.09,16.09,0,0,0-8.09-7.26,14.18,14.18,0,0,0-10.06-.14,10.89,10.89,0,0,0-6.55,7.85c-1,4.07-.56,8.35-1.67,12.4-2.06,7.48-10.68,11.07-17.83,9-8.17-2.33-13.22-10.45-14.59-18.42a43.71,43.71,0,0,1,.44-15.3A50.39,50.39,0,0,1,100.77,83.72Z"/><path d="M62.89,146.66a71.78,71.78,0,0,0-24-21.78,74.32,74.32,0,0,0-8.42-4c-.63-.25-.9.78-.28,1a70.39,70.39,0,0,1,26.2,18.18A67.06,67.06,0,0,1,62,147.2C62.36,147.75,63.28,147.22,62.89,146.66Z"/></g></g></svg>