<svg xmlns="http://www.w3.org/2000/svg" viewBox="0 0 142.83 181.56"><g id="Capa_2" data-name="Capa 2"><g id="Capa_1-2" data-name="Capa 1"><path d="M142,115.73a14.64,14.64,0,0,1-3.53,6.81c-1.88,2.2-4,4.16-6.12,6.18l-6.86,6.67q-6.59,6.41-13.17,12.81c-4,3.93-8.13,7.83-12.31,11.61s-8.48,7.45-13,10.89a139.86,139.86,0,0,1-12.09,8.38,32.92,32.92,0,0,1-15.4,1,.43.43,0,0,0-.23,0l-10.76-1.35c-6.61-.83-13.27-1.51-19.85-2.54-5.58-.88-11.33-2.33-15.74-6.05-4.11-3.46-6.63-8.37-8.24-13.42a86.57,86.57,0,0,1-3.29-17.19A128,128,0,0,1,8,83.27c1.82-5.13,4-10.86,8.52-14.2,3.42-2.51,8.8-3.09,12.23-.22a6.66,6.66,0,0,1,1.35,1.55c-.3,1.9-.45,3.83-.6,5.74-.19,2.32-.33,4.66-.41,7-.06,2,0,4-.15,6s-.34,4-.53,6c-.29,3-.56,6-.86,9-.26,2.59-.61,5.33-2,7.57A6.67,6.67,0,0,1,20,114.93c-2.35-.08-4.26-1.88-5.27-3.87-1.26-2.46-1.49-5.34-1.78-8-.32-3-.52-5.94-.61-8.92q-.11-3,0-5.93c0-.81.08-1.61.1-2.42,0-.53,0-1.07,0-1.6,0-.16,0-.45-.12-.56a.31.31,0,0,0-.48.22,6.32,6.32,0,0,0-.09,1.37c0,.8-.06,1.6-.08,2.4,0,1.6,0,3.2,0,4.8.05,3.07.23,6.14.52,9.2.14,1.48.3,3,.51,4.44a20.23,20.23,0,0,0,.92,4.06,8.44,8.44,0,0,0,4.74,5.22,6.34,6.34,0,0,0,6.36-1.55,11.57,11.57,0,0,0,3.27-6.81c.24-1.37.37-2.76.5-4.15l.45-4.68.33-3.45a149.73,149.73,0,0,0,1.72,17.16c.45,2.81.93,5.65,1.6,8.43a14.58,14.58,0,0,0,2.5,5.68,5.67,5.67,0,0,0,5.45,2.2,8,8,0,0,0,5.42-4.42,29,29,0,0,0,2.22-7.88c.42-2.24.77-4.5,1.06-6.76h0a32.92,32.92,0,0,0,4,12.25,13.23,13.23,0,0,0,4,4.78,5.27,5.27,0,0,0,5.72-.08,12.92,12.92,0,0,0,4.22-4.68c2.22-3.86,3.08-8.34,3.88-12.66a115.85,115.85,0,0,0,1.83-14.23Q73,91,73,87.57c0-.86,0-1.72-.1-2.57s-.12-1.81-.19-2.71a.35.35,0,0,0,.1-.21q3.3-21.42,8.5-42.47,2.58-10.47,5.62-20.8a84.36,84.36,0,0,1,3.17-9.73,14.39,14.39,0,0,1,5.72-7,7.94,7.94,0,0,1,8.12-.15,11.39,11.39,0,0,1,4.87,6.3c1.09,3.34.91,6.93.51,10.37s-.94,7.12-1.46,10.67q-3.15,21.62-7.48,43.05T90.8,114.68q-.61,2.47-1.24,4.93c-1.92,1.06-3.82,2.17-5.68,3.33-1.17.73-2.33,1.49-3.48,2.26-.38.25,0,.85.35.6,1.78-1.19,3.58-2.33,5.42-3.43,3-1.8,6-3.4,9.13-4.94a121.72,121.72,0,0,1,31.9-10.36c4.23-.74,10-1.65,13.19,2A8,8,0,0,1,142,115.73ZM30.37,74a25.55,25.55,0,0,1,.48-3.37,24.52,24.52,0,0,1,1.5-5.52A9.4,9.4,0,0,1,37,60.42a6,6,0,0,1,6,.5,10,10,0,0,1,3.23,5.28,52.29,52.29,0,0,1,1.57,7.66,42.57,42.57,0,0,1,.45,5.29l.22,11,.21,10.93c0,1.74.07,3.47.1,5.21a104,104,0,0,1-2.07,12.78c-.56,2.44-1.36,5-3.25,6.75A5.43,5.43,0,0,1,37.4,127,7.84,7.84,0,0,1,34,122.55a40.33,40.33,0,0,1-1.69-7,148.6,148.6,0,0,1-2.17-17.2c-.11-1.64-.28-3.27-.36-4.91C29.56,89.67,30,86,30,82.27c0-1.24-.05-2.44,0-3.67C30.16,77.08,30.24,75.53,30.37,74Zm18.76,1.42a33.5,33.5,0,0,1,.65-5.53c1-3.81,3.48-7.39,7.37-8.65A7.92,7.92,0,0,1,67,65.07,28.72,28.72,0,0,1,69.55,71a51.2,51.2,0,0,1,1.69,6.58,61,61,0,0,1,1,9.24l-.06.53a.32.32,0,0,0,.08.24c0,1.18,0,2.37,0,3.55a100.76,100.76,0,0,1-1.32,13.77c-.35,2.23-.76,4.46-1.22,6.67a44.38,44.38,0,0,1-1.67,6.1,19.43,19.43,0,0,1-3,5.49c-1.23,1.52-3,3-5,3.1s-3.64-1.44-4.77-3a28.1,28.1,0,0,1-3.11-5.63,37.2,37.2,0,0,1-2.59-12.37c-.23-4-.36-8.05-.32-12,0-1.18,0-2.35,0-3.52-.06-2.7-.11-5.39-.16-8.09A49.64,49.64,0,0,1,49.13,75.44Zm93.33,36a7.52,7.52,0,0,0-4.4-4.83,14.58,14.58,0,0,0-6.87-.77,65.72,65.72,0,0,0-7.86,1.3q-4.15.87-8.25,2A122.07,122.07,0,0,0,99,114.94c-1.6.7-3.17,1.45-4.73,2.22a.74.74,0,0,1,0-.14l-.19.1c-.22.15-.45.29-.68.43v0l-.19.09-.66.34h0c-.69.36-1.38.72-2.07,1.1q5.36-21.19,9.78-42.61,4.5-21.85,7.84-43.94.83-5.49,1.57-11a40.22,40.22,0,0,0,.5-10.56,14,14,0,0,0-3.45-7.82,9.19,9.19,0,0,0-7-3.17,10.8,10.8,0,0,0-7.29,3.73,22.87,22.87,0,0,0-4.35,8.44c-2.27,7-4.19,14.06-6,21.15Q76.47,54.75,72.85,76.6c-.16,1-.31,1.93-.46,2.89A48.39,48.39,0,0,0,69.58,68.9c-.28-.73-.58-1.44-.9-2.15a12.78,12.78,0,0,0-3.62-5,8.3,8.3,0,0,0-5.51-1.64A10.35,10.35,0,0,0,54.09,62a12.47,12.47,0,0,0-3.88,4.75,18.67,18.67,0,0,0-1.74,6.81c-.24-1.67-.54-3.33-.9-5a17.93,17.93,0,0,0-2.3-6.28,6.77,6.77,0,0,0-5.21-3.2,8.4,8.4,0,0,0-6,2.39A12.78,12.78,0,0,0,30.61,68c-.12.46-.22.93-.3,1.4-2.27-2.89-6.54-3.68-10-2.85-5.21,1.23-8.5,6.07-10.59,10.66a84.4,84.4,0,0,0-3.18,8.41q-1.57,4.73-2.77,9.58A129,129,0,0,0,.53,114.35a127.31,127.31,0,0,0-.27,19.72A111.27,111.27,0,0,0,2.87,152.7C4.11,158,6,163.22,9.4,167.49a22,22,0,0,0,6.1,5.32,30.38,30.38,0,0,0,8,3.1,78,78,0,0,0,8.83,1.52l10.35,1.3,16.47,2.06a.38.38,0,0,0,.16.06,35.66,35.66,0,0,0,4,.46l.79.09.91.12h.22a16.89,16.89,0,0,1,1.74,0,.31.31,0,0,1,.21-.15,9.16,9.16,0,0,1,1.54-.32l.15,0h0a.62.62,0,0,1,.24,0,33,33,0,0,0,3.28-.55l-.38.22h0l.1,0c1.32-.41,2.62-.9,3.92-1.38a.36.36,0,0,0,0-.23c2.83-1.76,5.59-3.64,8.29-5.61,4.59-3.36,9-7,13.27-10.74s8.52-7.75,12.67-11.74c4.39-4.23,8.75-8.5,13.13-12.76l7-6.78c2.22-2.16,4.48-4.3,6.66-6.51a21.85,21.85,0,0,0,4.81-6.56A10.6,10.6,0,0,0,142.46,111.41Z"/></g></g></svg>