<svg xmlns="http://www.w3.org/2000/svg" viewBox="0 0 26.81 26.82"><g id="Capa_2" data-name="Capa 2"><g id="TEXTOS"><g id="SLMGqG"><path d="M6.86,0H20c.27,0,.55.07.82.13a7.31,7.31,0,0,1,5.82,5.53,12.07,12.07,0,0,1,.22,1.2V20c0,.09,0,.19,0,.28a12,12,0,0,1-.57,2.08,7.16,7.16,0,0,1-6.81,4.48c-4,.06-8,0-11.94,0a7.11,7.11,0,0,1-4.23-1.31A7.27,7.27,0,0,1,0,19.26Q0,13.41,0,7.54A6.9,6.9,0,0,1,.15,6,7.24,7.24,0,0,1,5.66.22,12.07,12.07,0,0,1,6.86,0Zm18,13.41v-6a5.45,5.45,0,0,0-.28-1.87A5.19,5.19,0,0,0,19.47,2Q13.41,2,7.34,2a5.8,5.8,0,0,0-1.81.28A5.14,5.14,0,0,0,2,7.33V19.47a5.43,5.43,0,0,0,.28,1.83A5.2,5.2,0,0,0,7.3,24.84c4.07,0,8.14,0,12.22,0a5.25,5.25,0,0,0,5.32-5.38Z"/><path d="M20.31,13.4A6.91,6.91,0,1,1,13.4,6.49,6.93,6.93,0,0,1,20.31,13.4Zm-2.22,0a4.69,4.69,0,1,0-4.68,4.69A4.69,4.69,0,0,0,18.09,13.4Z"/><text/></g></g></g></svg>