<svg width="35" height="35" viewBox="0 0 35 35" fill="none" xmlns="http://www.w3.org/2000/svg">
<g clip-path="url(#clip0_280_1759)">
<path d="M8.75013 0H25.4501C25.8001 0.06 26.1501 0.09 26.5001 0.17C28.2824 0.49175 29.9328 1.32475 31.2502 2.56757C32.5675 3.8104 33.4952 5.40944 33.9201 7.17C34.0501 7.67 34.1001 8.17 34.2001 8.71V25.44C34.2001 25.56 34.2001 25.68 34.1301 25.8C33.9693 26.7062 33.7284 27.5964 33.4101 28.46C32.7159 30.1838 31.5116 31.6543 29.9586 32.6748C28.4056 33.6952 26.5778 34.2169 24.7201 34.17C19.6401 34.25 14.5701 34.17 9.49013 34.17C7.56201 34.2084 5.67254 33.6265 4.10013 32.51C2.80369 31.6386 1.7482 30.454 1.03149 29.066C0.314778 27.678 -0.0399682 26.1316 0.000128527 24.57C0.000128527 19.59 0.000128527 14.59 0.000128527 9.57C-0.00419709 8.93833 0.0595034 8.30803 0.190129 7.69C0.505213 5.90599 1.33613 4.2534 2.58019 2.93647C3.82425 1.61955 5.42692 0.696012 7.19013 0.28C7.72013 0.14 8.24013 0.09 8.75013 0ZM31.6901 17.1V9.41C31.7145 8.59165 31.5926 7.77551 31.3301 7C30.8775 5.64936 30.0018 4.48042 28.8329 3.66632C27.664 2.85222 26.2639 2.43624 24.8401 2.48C19.6801 2.48 14.5201 2.48 9.36013 2.48C8.57648 2.48402 7.79784 2.60537 7.05013 2.84C5.68708 3.28048 4.50601 4.15564 3.68783 5.33144C2.86965 6.50724 2.45947 7.91883 2.52013 9.35C2.52013 14.51 2.52013 19.67 2.52013 24.83C2.49929 25.6285 2.62121 26.4243 2.88013 27.18C3.33053 28.5186 4.19785 29.6778 5.35499 30.4876C6.51212 31.2974 7.89821 31.7153 9.31013 31.68C14.5101 31.68 19.7035 31.68 24.8901 31.68C25.9811 31.7096 27.0624 31.4673 28.0365 30.9751C29.0105 30.4828 29.8469 29.7559 30.4701 28.86C31.2938 27.6913 31.7213 26.2894 31.6901 24.86C31.6801 22.25 31.6901 19.67 31.6901 17.1Z" fill="black"/>
<path d="M25.91 17.0903C25.91 18.8323 25.3936 20.5352 24.426 21.9838C23.4584 23.4324 22.083 24.5616 20.4738 25.2287C18.8646 25.8958 17.0937 26.0708 15.385 25.7317C13.6763 25.3926 12.1065 24.5545 10.874 23.3234C9.64147 22.0923 8.80161 20.5235 8.46055 18.8151C8.11948 17.1068 8.29252 15.3357 8.9578 13.7258C9.62307 12.1158 10.7507 10.7391 12.1982 9.76989C13.6457 8.80063 15.348 8.28225 17.09 8.28027C19.4251 8.28817 21.6624 9.21858 23.3145 10.8688C24.9666 12.519 25.8995 14.7552 25.91 17.0903ZM23.07 17.0903C23.07 15.9036 22.7181 14.7435 22.0589 13.7569C21.3996 12.7702 20.4625 12.0011 19.3661 11.547C18.2698 11.0929 17.0634 10.9741 15.8995 11.2056C14.7356 11.4371 13.6665 12.0085 12.8274 12.8476C11.9883 13.6867 11.4168 14.7558 11.1853 15.9197C10.9538 17.0836 11.0726 18.29 11.5268 19.3864C11.9809 20.4827 12.7499 21.4198 13.7366 22.0791C14.7233 22.7384 15.8834 23.0903 17.07 23.0903C18.6613 23.0903 20.1875 22.4581 21.3127 21.3329C22.4379 20.2077 23.07 18.6816 23.07 17.0903Z" fill="black"/>
<path d="M26.3303 5.72986C26.7659 5.74173 27.1882 5.88212 27.5443 6.13338C27.9003 6.38464 28.1742 6.73555 28.3313 7.142C28.4885 7.54845 28.522 7.99229 28.4276 8.41772C28.3332 8.84315 28.1152 9.23118 27.8008 9.53303C27.4865 9.83487 27.09 10.0371 26.6611 10.1142C26.2322 10.1913 25.7901 10.1399 25.3903 9.9664C24.9906 9.79293 24.651 9.50514 24.4144 9.13923C24.1777 8.77331 24.0545 8.3456 24.0603 7.90986C24.0734 7.32015 24.3196 6.75966 24.7451 6.35108C25.1705 5.94251 25.7405 5.71913 26.3303 5.72986Z" fill="black"/>
</g>
<defs>
<clipPath id="clip0_280_1759">
<rect width="34.2" height="34.21" fill="white"/>
</clipPath>
</defs>
</svg>
