<svg xmlns="http://www.w3.org/2000/svg" viewBox="0 0 34.2 34.21"><defs><style>.cls-1{fill:#f9eb37;}</style></defs><g id="Capa_2" data-name="Capa 2"><g id="TEXTOS"><g id="SLMGqG"><path class="cls-1" d="M8.75,0h16.7c.35.06.7.09,1.05.17a9.34,9.34,0,0,1,7.42,7c.13.5.18,1,.28,1.54V25.44c0,.12,0,.24-.07.36a15.55,15.55,0,0,1-.72,2.66,9.12,9.12,0,0,1-8.69,5.71c-5.08.08-10.15,0-15.23,0A9,9,0,0,1,4.1,32.51,9.28,9.28,0,0,1,0,24.57q0-7.47,0-15A8.8,8.8,0,0,1,.19,7.69a9.27,9.27,0,0,1,7-7.41C7.72.14,8.24.09,8.75,0ZM31.69,17.1V9.41A6.88,6.88,0,0,0,31.33,7a6.63,6.63,0,0,0-6.49-4.52c-5.16,0-10.32,0-15.48,0a7.85,7.85,0,0,0-2.31.36A6.55,6.55,0,0,0,2.52,9.35q0,7.74,0,15.48a6.71,6.71,0,0,0,.36,2.35,6.61,6.61,0,0,0,6.43,4.5q7.8,0,15.58,0a6.58,6.58,0,0,0,5.58-2.82,6.69,6.69,0,0,0,1.22-4C31.68,22.25,31.69,19.67,31.69,17.1Z"/><path class="cls-1" d="M25.91,17.09a8.81,8.81,0,1,1-8.82-8.81A8.85,8.85,0,0,1,25.91,17.09Zm-2.84,0a6,6,0,1,0-6,6A6,6,0,0,0,23.07,17.09Z"/><path class="cls-1" d="M26.33,5.73a2.21,2.21,0,1,1-2.27,2.18A2.23,2.23,0,0,1,26.33,5.73Z"/></g></g></g></svg>