<svg xmlns="http://www.w3.org/2000/svg" viewBox="0 0 585.25 654.15"><defs><style>.cls-1,.cls-3{fill:none;stroke:#fff;stroke-miterlimit:10;}.cls-1{stroke-width:7.4px;}.cls-2{fill:#fff;}.cls-3{stroke-width:7.29px;}</style></defs><g id="Capa_2" data-name="Capa 2"><g id="TEXTOS"><rect class="cls-1" x="117.51" y="3.7" width="370.83" height="646.74" rx="44.09"/><path class="cls-2" d="M119,619V35.13c0-13.21,8.7-24.5,21-29.15l19.29-6C124.07,0,107,9,107,36.57V620.14c0,21.09,23.83,33.93,51.41,33.93l-18.31-5.9C127.74,643.52,119,632.23,119,619Z"/><path class="cls-3" d="M139.17,79.25H465.81a0,0,0,0,1,0,0V583.36a37.88,37.88,0,0,1-37.88,37.88H177a37.88,37.88,0,0,1-37.88-37.88V79.25A0,0,0,0,1,139.17,79.25Z"/><path class="cls-2" d="M351.64,27.4c-6.45-.34-13-.11-19.44-.15L293.51,27l-43.84-.32a2,2,0,1,0,0,4.06l69.63.51,17.63.13,8.16.06c2.64,0,5.56-.29,8.15.26,1.2.25,3.11,1,1.3,2s-4.66.68-6.72.73l-17.08.43-39.28,1c-2.78.07-2.79,4.13,0,4.06l38.85-1,19.21-.48c3.73-.1,9.68-.53,10.13-5.08C360.07,29.09,355.26,27.59,351.64,27.4Z"/><path class="cls-2" d="M396.25,27a6.05,6.05,0,0,0-6.31,1.63,2,2,0,0,0,0,2.87,2.1,2.1,0,0,0,.63.39l-.25.12a2,2,0,0,0-.78,2.78,6.13,6.13,0,0,0,6.22,2.27,5.26,5.26,0,0,0,4.17-4.92A5.2,5.2,0,0,0,396.25,27Zm-3,5.74a2.61,2.61,0,0,0-.95-.77,1.58,1.58,0,0,0,.67-.47c.87-1,2.54-1,2.6.38A1.32,1.32,0,0,1,393.28,32.76Z"/><path d="M533.85,324.76a9.5,9.5,0,0,0,7.87-8.2,9.87,9.87,0,0,0,6.64-1.7,8.93,8.93,0,0,0,3.83-6.14,8.79,8.79,0,0,0-2.24-7.2,9.86,9.86,0,0,0-6.55-3.17,8.28,8.28,0,0,0-4.89-7.15A15.69,15.69,0,0,0,542,276a17.87,17.87,0,0,0-23.95-10.08,15.14,15.14,0,0,0-7.1,7.23,12.65,12.65,0,0,0-15.38-1,11.76,11.76,0,0,0-5.22,9.48,9.55,9.55,0,0,0-3.28-1,10,10,0,0,0-7.61,2.32,9.08,9.08,0,0,0-10.42-1.68,2.54,2.54,0,0,0-.55.34,13.45,13.45,0,0,0-5.32-.13,12.84,12.84,0,0,0-14.63-13.72,12.6,12.6,0,0,0-11.7,13.32,14.12,14.12,0,0,0-18.37,15.22,15,15,0,0,0,6.61,10.9,16.45,16.45,0,0,0,2.41,1.32c-4.62,4.46-6.84,12.07-2.77,18.23a17.56,17.56,0,0,0,13.05,7.55,15.91,15.91,0,0,0,13.89-6.06,17.92,17.92,0,0,0,3.9-12.33,94,94,0,0,1,19.07,22c-5,.13-9.15.26-13,.42a2.61,2.61,0,0,0-2.44,2,2.37,2.37,0,0,0,1.21,2.67c9.15,5,12.22,16.09,12.07,24-.21,11.14-6,21.48-12.32,31-1.22,1.85-2.5,3.73-3.73,5.55-5.37,7.9-10.93,16.07-14.18,25.27a58.21,58.21,0,0,0-3.11,22.76q1.05.66,2.07,1.38a13.88,13.88,0,0,1,1.77,1.25l.22.21c.49.38,1,.76,1.44,1.15a54.21,54.21,0,0,1,2.67-25.74c3.08-8.48,8.46-16.35,13.66-24l.44-.64H528.8l.44.64c5.2,7.61,10.58,15.48,13.66,24a54.72,54.72,0,0,1,2,29.72,55.78,55.78,0,0,1-13.63,26.69,3.07,3.07,0,0,0-.24.29h-.13v5h6.74v-4.92h1v-.1h-.91a60.9,60.9,0,0,0,12.48-27.45A59.54,59.54,0,0,0,548,428.85c-3.25-9.2-8.8-17.37-14.17-25.27-1.24-1.82-2.52-3.7-3.74-5.55-6.27-9.51-12.11-19.84-12.32-31-.15-7.94,2.92-19,12.08-24a2.37,2.37,0,0,0,1.21-2.67,2.61,2.61,0,0,0-2.44-2c-3.09-.13-6.42-.24-10.37-.35l8.7-14.11A11.51,11.51,0,0,0,533.85,324.76Zm3.7-28.22a3.13,3.13,0,0,1,.38,3.56,2.68,2.68,0,0,0,.4,3,2.3,2.3,0,0,0,2.58.65,5,5,0,0,1,4.82.69,3.82,3.82,0,0,1,1.41,3.62,3.89,3.89,0,0,1-2.4,3.14,5,5,0,0,1-4.82-.6,2.23,2.23,0,0,0-2.33-.24,5,5,0,0,0,.58-4.75,5.12,5.12,0,0,0-2.91-2.95,5.41,5.41,0,0,0-1.61-.35,13.24,13.24,0,0,0-2.29-6.07l-.05-.07,2.24-.57a3.87,3.87,0,0,1,4,1ZM534,308.13c-.23.25-.51.38-1.19.3a12.66,12.66,0,0,0,.64-2.12l.24.07a1.07,1.07,0,0,1,.52.35A1.17,1.17,0,0,1,534,308.13Zm-22.42-19.79a2.13,2.13,0,0,1,1.08-1.43,2.2,2.2,0,0,1,1.06-.27,2.61,2.61,0,0,1,.86.16,1.86,1.86,0,0,1,.61,3.24c-.54.6-1.19.74-2.48.53l-.18,0h0A1.79,1.79,0,0,1,511.62,288.34Zm-19.56,4.55h4.56a3.77,3.77,0,0,0,3-1.22,2.52,2.52,0,0,0-.72-3.64,7.15,7.15,0,0,1-3.42-6,6.76,6.76,0,0,1,3.2-5.83,7.27,7.27,0,0,1,6.84-.58,7.49,7.49,0,0,1,4.44,5.37,2.35,2.35,0,0,0,.8,1.35l-.13.05a7.15,7.15,0,0,0-3.78,4.2,6.74,6.74,0,0,0,3.79,8.5,8.39,8.39,0,0,0,3.09.59,7.29,7.29,0,0,0,6.57-3.77,7.07,7.07,0,0,0-3.73-9.71,7.88,7.88,0,0,0-2.07-.48,2.47,2.47,0,0,0,.43-1.91c-.58-3.32,1.42-7,4.88-9.07a11.54,11.54,0,0,1,9.9-.55,12,12,0,0,1,7.23,7.08,10.42,10.42,0,0,1-.94,8.88,12.48,12.48,0,0,1-9.52,6.23,2.51,2.51,0,0,0-1.28,4.63,8.56,8.56,0,0,1,3.32,8.39,7.06,7.06,0,0,1-.67,2h0a8.3,8.3,0,0,1-5.9,4.17,8.14,8.14,0,0,1-8.38-3.11,8.38,8.38,0,0,1-.37-9.12,2.45,2.45,0,0,0-.68-3.26,2.63,2.63,0,0,0-1.59-.56,2.37,2.37,0,0,0-1.75.78c-4.23,4.48-10.61,9.19-17,6.23-2-.91-4-2.81-3.64-5.39C488.74,295.23,490,293.2,492.06,292.89ZM500,308l.14,0a20.06,20.06,0,0,0,6.23-2.7,131.63,131.63,0,0,0-8.21,32.27l-2.87-.07h-.12c-.25,0-.32,0-.32,0a3.77,3.77,0,0,1-.32-.58c-.34-.69-.65-1.41-1-2.1s-.73-1.69-1.16-2.53l-6.63-13.15a12.93,12.93,0,0,0,8.13.1,9.71,9.71,0,0,0,5.88-5.5A8.22,8.22,0,0,0,500,308Zm-20.91-18.06a2.3,2.3,0,0,0,2.37-1.31,5.05,5.05,0,0,1,5-3,4.73,4.73,0,0,1,3.66,2.62,9.94,9.94,0,0,0-6.71,10.1,5.15,5.15,0,0,0-1.54-1,5.63,5.63,0,0,0-2.33-.35,14.66,14.66,0,0,0-.64-6.52c-.07-.2-.15-.4-.23-.59Zm-.39,12a1.22,1.22,0,0,1,.59-.79,1.35,1.35,0,0,1,.59-.14,1.41,1.41,0,0,1,.49.09,1.14,1.14,0,0,1,.52.35,1.17,1.17,0,0,1-.21,1.4c-.26.28-.57.41-1.44.27l-.09,0h0C478.7,302.92,478.56,302.35,478.67,301.89Zm-1.09,4.81a6,6,0,0,0,2.22.43,5.29,5.29,0,0,0,4.78-2.75,5,5,0,0,0,.47-1.45,11.06,11.06,0,0,0,2.72,2.79,14.34,14.34,0,0,0,6.65,2.53,2.63,2.63,0,0,0,.28.4,2.86,2.86,0,0,1,.53,2.74,5,5,0,0,1-3.22,3.1,8.16,8.16,0,0,1-6-.75,3.27,3.27,0,0,1-1.6-2.07,9.79,9.79,0,0,0-.14-1.35,2.27,2.27,0,0,0-2.54-1.89,2.62,2.62,0,0,0-2.51,2.45,8,8,0,0,0,.13,1.61,4.27,4.27,0,0,1-1.46,2.89,4.39,4.39,0,0,1-3.35,1.07,4.1,4.1,0,0,1-3.17-1.88,4.52,4.52,0,0,1-.43-3.93,2.76,2.76,0,0,0,.08-.27,19.82,19.82,0,0,0,5-4.69A4.49,4.49,0,0,0,477.58,306.7Zm-24.8,3.16h0l-1.61-.09a2.31,2.31,0,0,0-2.55,2.13,2.62,2.62,0,0,0,1.61,2.71A13.39,13.39,0,0,1,448,324.69a10.65,10.65,0,0,1-7.75,4.6,12.43,12.43,0,0,1-10.91-5,8.41,8.41,0,0,1-.9-8.62,9.89,9.89,0,0,1,8.1-6l.24,0a5,5,0,0,0,1.69-.28,2.19,2.19,0,0,0,1.47-2.21,2.12,2.12,0,0,0-1.3-1.65,4.62,4.62,0,0,0-1.53-.34c-.56-.06-1.13-.1-1.7-.13a20.39,20.39,0,0,1-4-.55,12.13,12.13,0,0,1-3.85-1.89,9.79,9.79,0,0,1-4-6.93,7.49,7.49,0,0,1,.11-1.68,11.27,11.27,0,0,0,.15-1.46,9,9,0,0,1,7.14-7A10,10,0,0,1,439.3,288a12.17,12.17,0,0,0,1.37,1.63,2.56,2.56,0,0,0,3.48.08,2.32,2.32,0,0,0,.5-3.17,12.4,12.4,0,0,0-1.32-1.63,8.28,8.28,0,0,1-.95-7.09,7.81,7.81,0,0,1,6.82-5.12,7.91,7.91,0,0,1,7.68,3.48,8.19,8.19,0,0,1,0,8.62,2.33,2.33,0,0,0,.49,3.12,2.64,2.64,0,0,0,3.48,0c2.67-2.4,6.77-1.83,9.44-.28,3.32,1.91,4.85,5.63,4,9.7-1.07,5.2-5.14,9.28-11.16,11.19A31.63,31.63,0,0,1,452.78,309.86Zm8.57,4.35a30.38,30.38,0,0,0,4.25-1.16,9.46,9.46,0,0,0,8.82,8.41,9.24,9.24,0,0,0,6-1.64l9,17.75-2,0-6.88.15A98.07,98.07,0,0,0,461.35,314.21Zm64.7,87H464.22c5.21-7.78,10.28-16.14,12.4-25.56h37C515.78,385.07,520.85,393.43,526.05,401.21Zm-4.61-58.15c-5.67,5.77-9,14.74-8.84,24a43.77,43.77,0,0,0,.34,4.52H477.33a41.16,41.16,0,0,0,.34-4.52c.18-9.28-3.16-18.25-8.83-24,6.24-.23,12.66-.34,18.89-.45l7.39-.14,7.42.14C508.77,342.72,515.2,342.83,521.44,343.06Zm-9-5.5c-.05.09-.1.18-.14.27l-9.09-.21a126.32,126.32,0,0,1,6.23-26.21,12.47,12.47,0,0,0,6.89,4.8,13.94,13.94,0,0,0,3.91.5,14.36,14.36,0,0,0,2.53,4.09Zm12.91-21.88a13.77,13.77,0,0,0,5.34-3.76l.24.11a6.05,6.05,0,0,0,2.23.43,5.63,5.63,0,0,0,3.22-1,2.65,2.65,0,0,0-.1,2.46,3.56,3.56,0,0,1-.07,3.48,5.15,5.15,0,0,1-4,2.53A7.17,7.17,0,0,1,525.39,315.68Z"/><path d="M454.26,305.44a7.49,7.49,0,0,0,4.08-4.9,7.18,7.18,0,0,0-1.12-6,7.81,7.81,0,0,0-5.17-3.16,8.09,8.09,0,0,0-6.11,1.5,6.17,6.17,0,0,0-2.82,5.17,9.87,9.87,0,0,0,1.31,4,7.77,7.77,0,0,0,6.8,4.09A7,7,0,0,0,454.26,305.44Zm-4.78-5.08a2.49,2.49,0,0,1-.77-2.88,2.17,2.17,0,0,1,1.75-1.16h.31a2.77,2.77,0,0,1,2.14,1,2.33,2.33,0,0,1,.53,1.85,2.42,2.42,0,0,1-1.14,1.65A2.3,2.3,0,0,1,449.48,300.36Z"/><path d="M162.94,205.49c-3.4-3.92-7.63-7.3-11.4-10.85-2.46-2.32-6.19,1.39-3.72,3.71l7,6.55c1.9,1.79,5,3.86,5.6,6.54,1.21,5.24-5.07,8.39-8.81,4.83-2.45-2.33-6.17,1.38-3.72,3.71,5.63,5.36,15.27,3.4,17.48-4.34A10.76,10.76,0,0,0,162.94,205.49Z"/><path d="M162.17,235.45a29.75,29.75,0,0,1-40.51-.11c-2.47-2.31-6.19,1.39-3.72,3.71a35.13,35.13,0,0,0,47.95.11C168.37,236.86,164.65,233.15,162.17,235.45Z"/><path d="M128.2,191.05a9.29,9.29,0,0,0-9.25,1.87,2.63,2.63,0,0,0,3.71,3.72,4,4,0,0,1,4.14-.52,2.65,2.65,0,0,0,3.23-1.84A2.68,2.68,0,0,0,128.2,191.05Z"/><path d="M163.52,188.63l-5.14-.74a2.72,2.72,0,0,0-3.23,1.84c-.34,1.23.42,3,1.84,3.23l5.14.73a2.7,2.7,0,0,0,3.23-1.83C165.7,190.63,164.94,188.83,163.52,188.63Z"/><path d="M99.64,212.87c-3.38,0-3.39,5.25,0,5.25S103,212.87,99.64,212.87Z"/><path d="M179,200.38c-3.38,0-3.38,5.26,0,5.26S182.36,200.38,179,200.38Z"/><path d="M583,486.83H494.33c-4.87-4.05-9.93-7.88-14.94-11.73-2.13-1.63-4.27-3.26-6.42-4.87a7.37,7.37,0,0,0,2.27-3.19c1.31-3.65-.7-7.39-3.83-9.35-3.94-2.48-8.75-1.73-12.9-.21l-2,.78-2.84-2a5,5,0,0,0,3.43-5.6c-.65-4-5.06-5.6-8.65-5a28.67,28.67,0,0,0-6.86,2.33q-27.72-18.51-57.11-34.34-16.71-9-33.88-17.07-9-4.21-18.07-8.19a23.3,23.3,0,0,1-9.08-7.63,71.07,71.07,0,0,1-4.68-6.11c-1.38-2.26-2-4.89-2.85-7.38-1.91-5.69-4-11.33-6.25-16.88a158.4,158.4,0,0,0-16.92-31.56c-.91-1.28-1.83-2.54-2.79-3.78a38.91,38.91,0,0,0-7.8-27.94c5.68-1.36,8.74-7.47,8-13-.91-7-6.74-12.55-11.9-16.85A73.79,73.79,0,0,0,241,241a72.45,72.45,0,0,0-23.64.76c7.67-22.31,5-47.52-8.28-67.35-12.74-19-34.15-32.67-57.41-33-12.43-.16-24.83,3.75-33.91,12.42-13.25-2.74-26.85,5.42-33.82,17-9.16,15.19-10.26,35-7.49,52.15a93.47,93.47,0,0,0,7.67,24.72c-16,16.48-33.09,34.6-36,58.45-1.26,10.45.34,21.59,6,30.63s14.82,14.93,25,17.43c1.62.39,3.24.7,4.85.93a2.72,2.72,0,0,0-.53.85,290.86,290.86,0,0,0-16.17,54.82,222.22,222.22,0,0,0-3.75,26.81c-.47,7.21,0,15,3.67,21.43,8.65,14.91,28.22,11.68,42.53,10.29l60.2-5.84,67.17-6.52-7.32,9.22c-2.82,3.55-9.84,9.56-9.23,14.48.33,2.69,2.15,3.16,3.52,5,.92,1.25,1.17,2.82,2.1,4.11a10.17,10.17,0,0,0,3.46,2.95H2.25c-3,0-3,4.66,0,4.66H298.5a2.41,2.41,0,0,0,.78-.12l2.58,17.87c.76,5.28.66,12,3.64,16.59,2.47,3.84,7.7,4.91,10.85,1.2,3.45-4.08,2.44-10.51,2.31-15.39l-.55-20.72c0-.27,0-.54,0-.81a2.53,2.53,0,0,0,.63.08h77a8.18,8.18,0,0,0,7.86,4.86c2.63-.22,7.94-3,6.18-6.32,0-.21.35-.19.54-.1,1.74.79,3.52,1.38,5.33,2a12.89,12.89,0,0,0-.91,4.38c-.05,3.85,2.88,8,7.08,7.69a5.59,5.59,0,0,0,4-2.22,5.93,5.93,0,0,0,1.15-2.76c.1-.63-.26-2.51.61-2.66a1.59,1.59,0,0,1,.87.2c.59.25,2.39.63,1.87,1.38-1,1.47-1.88,3-2.82,4.52l-8.95,14.41c-3.62,5.82-9.49,13.35-5.16,20.35,4.45,7.22,12.85,2.68,17.57-1.5s9.44-8.49,14.12-12.78l-3.53,28.15-2.08,16.59c-.6,4.76-2.05,10.14-1.4,14.93.45,3.34,2.66,6.51,6.4,6.1,4.12-.45,5.75-4.8,7-8.15q3.66-10,7.33-20.09a2.94,2.94,0,0,0,.49-.32q4.44-3.63,8.48-7.67a49.94,49.94,0,0,0,27.14-16.21,2.16,2.16,0,0,0,2.26,1.22c14.27-1.09,21-17.84,17.07-30.26-2.5-7.87-7.91-14.35-13.91-19.86l-.5-.45H583C586,491.5,586,486.83,583,486.83ZM467,461.45a4.48,4.48,0,0,1,3.27,2.52,1.78,1.78,0,0,1-2.23,2.39,3.6,3.6,0,0,0-.44-.12q-3-2.21-6-4.38A10.34,10.34,0,0,1,467,461.45Zm-19.17-10.17a6.36,6.36,0,0,1,2.58-.52c.79.08,1.25.54,1.89.65a2.74,2.74,0,0,0-3.06,1.76l-2.31-1.57ZM63.24,339.83c-7-6.9-10.12-16.63-10.27-26.3-.38-24.9,17.27-44.11,33.6-60.91l.05.09c1.61,3,6.14.32,4.53-2.66a89.75,89.75,0,0,1-10.61-47.78c.85-14.56,5.27-32,18.73-40,6.74-4,15.32-5.28,22.47-1.6,3,1.55,5.66-3,2.65-4.53-.3-.16-.61-.3-.92-.45,15.28-12.56,38.26-11,55.06-2.1a71,71,0,0,1,31.89,91.5,2.89,2.89,0,0,0,3.16,3.95c1-.18,2-1.55,2.91-2,2.82-1.44,7.14-1.12,10.26-1.34A67.17,67.17,0,0,1,239,246a68.25,68.25,0,0,1,22.85,6.75,64.67,64.67,0,0,1,17.84,13c2.47,2.57,5,5.73,5.39,9.42.28,3.06-1.34,6.31-4.47,7a2.26,2.26,0,0,0-1.64,1.22,38.89,38.89,0,0,0-14.68-9.66c-3.18-1.16-4.56,3.91-1.4,5.06,12.62,4.61,21.14,17,22,30.14a97.77,97.77,0,0,0-23-19.44,79.84,79.84,0,0,0-39.19-11c-17.5-.43-34.77,3.71-51.65,7.83l-.25.07c-.91-7.4-2.22-14.78-3.35-22.14a46.93,46.93,0,0,0,13.7-23.51,61.87,61.87,0,0,0,.24-26.37c6.86-1.19,12-7.76,9.92-15.23a12,12,0,0,0-13.31-8.63,2.43,2.43,0,0,0-.18-.56c-5.72-13.15-18.65-22.79-32.78-25a41.82,41.82,0,0,0-38,14.39A42.3,42.3,0,0,0,97,201a2.46,2.46,0,0,0,0,.26,14.3,14.3,0,0,0-9.67,17.63,14.09,14.09,0,0,0,8,8.93,2.83,2.83,0,0,0,.17.76A102.87,102.87,0,0,0,116.76,263v0a30.66,30.66,0,0,0,3.09,3.15A100.59,100.59,0,0,0,133,277c7.76,5.39,18,9,23.86,16.69a17.1,17.1,0,0,1,2.21,3.85,2.75,2.75,0,0,0,.5,1.45c2.53,8.55-2.69,17.82-9.13,23.88a109,109,0,0,1-13.84,10.52,141.54,141.54,0,0,1-14.77,8.87c-9.75,5-20.46,8.43-31.51,8.1C80.45,350.1,70.36,346.86,63.24,339.83Zm207-33.51c8.42,11.68,12.84,25.76,9.47,40.34a39.82,39.82,0,0,1-25.68,28.51,35.53,35.53,0,0,1-21.56.78c-3.25-.94-4.64,4.13-1.4,5.06,14.52,4.19,30.33-.73,41.15-10.95a41.9,41.9,0,0,0,6.53-7.87q3.72,22.31,7.45,44.63-2.72-1.08-5.52-1.89c-13.21-3.81-27.17-3.17-40.74-2.53l-42.92,2-68.18,3.25A161.72,161.72,0,0,0,146.29,333c8.81-6.51,17.3-14.47,18.92-25.84a21.81,21.81,0,0,0-.12-7.1,8.26,8.26,0,0,0,3.67-2.39,10,10,0,0,0,2.34-6.37,2.56,2.56,0,0,0,1.29,0c15.13-3.69,30.52-7.27,46.17-7.49a84,84,0,0,1,22.88,2.63c7.24,1.94,13,5.48,19,10a41.12,41.12,0,0,1,6.94,6.15Q268.88,304.41,270.26,306.32ZM252.1,417.9a6.53,6.53,0,0,1-.16-3.53c1.23-5.06,8.51-5.38,11.35-1.55a7,7,0,0,1-2,9.67C257.44,424.7,253.28,421.68,252.1,417.9Zm3.27,10-7,14.79L240.24,453a2.11,2.11,0,0,0-2.33-1.37l-.73.07A48.05,48.05,0,0,0,251,427.78a2.69,2.69,0,0,0,2.21-.8A11.39,11.39,0,0,0,255.37,427.92ZM106.73,221.73c-5.06,3.71-12.47,2.1-14.4-4.24s3.17-11.89,9.49-11.59c3.22.15,3.36-4.59.47-5.19a38.87,38.87,0,0,1,20.9-27.53c11.63-5.8,25.37-4.2,36.11,2.81A37.56,37.56,0,0,1,173,192.09a12.77,12.77,0,0,0-2,1.46c-2.54,2.24,1.19,5.95,3.72,3.72a7,7,0,1,1,3.48,11.94c-2.95-.5-4.39,3.46-2.32,4.73,3.77,17.13.4,36.35-13.78,47.87-11.42,9.28-28.6,10-39.41-.15-.54-.54-1.07-1.08-1.6-1.63-.21-.24-.42-.46-.62-.7a2.44,2.44,0,0,0-.4-.39A96.36,96.36,0,0,1,101.24,229a14.06,14.06,0,0,0,8.14-2.73C112.08,224.29,109.47,219.73,106.73,221.73Zm47.54,50.52a39.9,39.9,0,0,0,8.41-4.36Q163.74,275,164.8,282c.32,2.1,2.67,12.81-1.3,13.07-2.53-5.48-7.3-9.9-12.81-13.41-4.14-2.63-8.46-4.93-12.59-7.56A35,35,0,0,0,154.27,272.25Zm76.22,178.16A16.15,16.15,0,0,1,223,453l-8,.78-30.82,3-30.81,3q-15.33,1.49-30.66,3c-8.85.86-17.74,2-26.62,2.47-6.89.37-14.75.18-20.41-4.31-5.83-4.62-7.09-12.43-7-19.44.06-8.35,1.5-16.77,2.92-25a291.4,291.4,0,0,1,17-59.19,2.21,2.21,0,0,0,0-1.78c19,1.09,36.93-8.14,52.49-18.83a155.79,155.79,0,0,1-17.91,70.64,3.28,3.28,0,0,0-.23.61l-23.18,1.1c-3.37.16-3.39,5.42,0,5.26l79.55-3.79,39.77-1.9c10.48-.5,21-1.3,31.5-1.46-.21.14-.41.29-.62.45a12.17,12.17,0,0,0-4.42,9,21.24,21.24,0,0,0,.72,5.14,12.64,12.64,0,0,1-.55,5.72,43.72,43.72,0,0,1-4.1,10.27,41.65,41.65,0,0,1-7.62,9.85A23.47,23.47,0,0,1,230.49,450.41Zm14.19,42.3a65.57,65.57,0,0,0,6.62-2.31,2.85,2.85,0,0,0,1,2.31Zm53.82,0H263.38a49.05,49.05,0,0,0,32.22-21.07,1,1,0,0,0,0,.17q1.51,10.45,3,20.9Zm13,37.31c-1.85.21-2.63-3.46-2.89-4.69-.74-3.47-1.06-7.06-1.57-10.57Q305,500.38,303,486c-1.19-8.4-4.24-18.07-1.76-26.15,1-3.24-4.08-4.63-5.07-1.4-5.22,17-21.8,29.2-39.46,29.62a80,80,0,0,0,30.77-25.39c2-2.73-2.56-5.35-4.54-2.65a74.2,74.2,0,0,1-24.32,21.21,72.23,72.23,0,0,1-14.61,6c-2.81.81-5.85,1.77-8.8,1.67-2.32-.08-5.74-1.45-5.19-4.32.15-.79,9.32-3.95,10.53-4.57a91.15,91.15,0,0,0,11.12-6.74c4.09-2.89,9.36-5.68,12.16-10,1.12-1.72,2.53-4.24-.2-5.45-2.46-1.09-4.61,2.52-6.15,4a86,86,0,0,1-23.76,15.62c-1.49.66-5.25,2.32-6.78,1.31a2.23,2.23,0,0,1-.86-2.54,4.27,4.27,0,0,1,1-1.45c3.77-4.1,8.13-7.09,11.6-11.43,3.14-3.94,5.62-8.37,8.79-12.3,1.26-1.55,2.72-2.92,4-4.49a39.75,39.75,0,0,0,3.53-5.46c2.07-3.79,3.68-7.8,5.52-11.7a2.9,2.9,0,0,0,.28-1.18,10.25,10.25,0,0,0,1.73-.5c6.48-2.49,9.13-11.13,5.7-17a10.68,10.68,0,0,0-2.76-3.13c9.14.79,18.18,2.91,26.13,7.68,5,3,10.62,7.92,13.36,13.08A65.79,65.79,0,0,1,311.51,450c1,8,.52,16,.74,24l1.05,39.38c.1,3.65.32,7.33.28,11C313.57,525.72,313.47,529.81,311.53,530Zm83-38.62H318.72a2.38,2.38,0,0,0-.73.11c-.25-11.94-.34-23.92-1.15-35.83-.07-.95-.14-1.9-.23-2.86A627.43,627.43,0,0,0,394.74,489,11.61,11.61,0,0,0,394.55,491.4Zm2-7.35a612.06,612.06,0,0,1-58.05-25.62q-11.44-5.78-22.64-12c-1.2-8.2-3.5-16.27-8.2-23.15a44.1,44.1,0,0,0-16.1-14,2.77,2.77,0,0,0,.12-1.42l-4.68-28-2.34-14a69.3,69.3,0,0,0-1.2-7.2c-1.39-5.08,1.22-9.42,2-14.53a52.9,52.9,0,0,0-.22-16.8,54.17,54.17,0,0,0-5.83-16.63c10.45,11.41,18.41,25.22,24.44,39.4,6.27,14.76,10.78,30.2,15.29,45.56.95,3.24,6,1.86,5.06-1.39l-1.89-6.44c4.84,4.47,11.22,6.74,17.26,9.49q13.44,6.11,26.62,12.78,26.71,13.51,52.22,29.29,8.94,5.54,17.71,11.33A109,109,0,0,0,425,457a112.43,112.43,0,0,0-20.39,17C401.94,476.83,398.63,480.25,396.56,484.05Zm3.24,7.35a4.51,4.51,0,0,1,0-.52l1.42.52Zm18.21.38q-8.26-2.82-16.45-5.85c.11-.19.23-.38.35-.57,3.8-5.82,9.34-10.94,14.58-15.45a105.3,105.3,0,0,1,17.11-12q3.72-2.1,7.58-3.88,4.94,3.31,9.79,6.71-2.13,1.08-4.18,2.28a79.3,79.3,0,0,0-19.24,15.7,80.53,80.53,0,0,0-7.74,10.18C419.23,489.83,418.61,490.79,418,491.78Zm3.76,11.44c-.82.41-1.42-.41-1.69-1.25a5.28,5.28,0,0,1,.53-3.78,25.92,25.92,0,0,1,2.74.92,9.26,9.26,0,0,0-.41,1.87l-.14.56a2.78,2.78,0,0,1-.7,1.45A2.51,2.51,0,0,1,421.77,503.22Zm80-2.17c5.25,6,9.39,13.68,7.92,21.85-1.11,6.19-5.13,12.73-11.7,13.8a51.37,51.37,0,0,0,5.34-9.74c1.29-3.12-3.79-4.48-5.07-1.39a44.83,44.83,0,0,1-23.53,23.67,116.36,116.36,0,0,0,17.63-29,2.73,2.73,0,0,0,1.38-2.09l.33-2.63c.39-3.15-4.19-3.25-5.16-.7a109.42,109.42,0,0,1-24,37.52,2.09,2.09,0,0,0-1.22,1.22c-.43.43-.85.86-1.29,1.28.13-.35.25-.69.38-1L475.86,518c1.16-3.18-3.91-4.56-5.07-1.4L450.93,571c-1.67,4.58-3.28,9.17-5,13.72-.24.65-1.35,3.77-2.34,3.21s-.49-3.19-.42-4c.85-9.62,2.41-19.23,3.61-28.82q2.06-16.32,4.1-32.65c0-.13,0-.25,0-.37l.94-.86c2.51-2.27-1.22-6-3.72-3.71l-16.69,15.15c-2.45,2.22-13,13-14.35,4.43-.46-2.95,1.46-5.83,2.92-8.22,1.91-3.1,3.84-6.18,5.76-9.27l12.16-19.58a2.6,2.6,0,0,0,.15-.28l6.15-9c1.91-2.8-2.64-5.43-4.54-2.65l-6,8.76a4.48,4.48,0,0,0-.44-.18q-5.06-1.58-10.08-3.24,1.62-2.72,3.46-5.28a74.23,74.23,0,0,1,13.08-13.89,73.34,73.34,0,0,1,16.19-10.1q3.11,2.2,6.18,4.44,10.76,7.81,21.18,16C489.7,489.8,496.36,494.85,501.81,501.05Z"/></g></g></svg>