<svg xmlns="http://www.w3.org/2000/svg" viewBox="0 0 54.99 33.02"><g id="Capa_2" data-name="Capa 2"><g id="TEXTOS"><path d="M33,16.51A16.5,16.5,0,1,1,16.53,0,16.52,16.52,0,0,1,33,16.51Zm-22.68-1H22.67l-.61-5.24H10.92Zm11.77,7.17.59-5.24H10.32l.6,5.24ZM11.46,8.42H21.52a8.66,8.66,0,0,0-.26-1A22.5,22.5,0,0,0,20,4.66,9.23,9.23,0,0,0,18.1,2.48a2.38,2.38,0,0,0-3.3,0C13,4,12.14,6.11,11.46,8.42ZM21.53,24.61H11.44c.69,2.23,1.47,4.25,3.16,5.73a2.65,2.65,0,0,0,4-.12A12.1,12.1,0,0,0,21.53,24.61ZM1.9,15.53H8.46l.6-5.44C7.38,9.87,5.7,9.64,4,9.44a.68.68,0,0,0-.48.3A14.28,14.28,0,0,0,1.9,15.53Zm29.18,0a14,14,0,0,0-1.2-5c-.52-1.16-.52-1.17-1.76-1l-4.19.52.61,5.47ZM1.91,17.47a13.87,13.87,0,0,0,1.18,4.91c.53,1.23.54,1.23,1.86,1.07l4.11-.51-.61-5.47Zm22,5.46c1.71.22,3.37.44,5,.64a.56.56,0,0,0,.45-.22,14.09,14.09,0,0,0,1.67-5.87H24.53ZM12.09,2.53A14.7,14.7,0,0,0,4.82,7.71c1.57.17,3,.34,4.38.46.16,0,.41-.24.49-.43.39-1,.71-1.94,1.13-2.88C11.16,4.1,11.61,3.4,12.09,2.53Zm8.81,28a14.82,14.82,0,0,0,7.29-5.17c-1.59-.18-3-.35-4.41-.47-.15,0-.4.25-.48.44-.42,1-.77,2.07-1.22,3.08C21.77,29.05,21.35,29.68,20.9,30.48ZM28.2,7.7a14.69,14.69,0,0,0-7.09-5.08l2.5,5.6ZM11.88,30.4c-.66-1.5-1.36-3-2-4.52-.42-1-.37-1.08-1.5-1s-2.31.26-3.61.41A14.72,14.72,0,0,0,11.88,30.4Z"/><path d="M46,14.32a.66.66,0,0,1,.43-.67.62.62,0,0,1,.73.19c.45.51.89,1,1.34,1.55l1.79,2.1c.16.2.25.19.41,0,1-1.15,2-2.29,2.94-3.44.06-.07.12-.15.19-.22a.68.68,0,0,1,.92,0,.66.66,0,0,1,.08.91c-.42.51-.85,1-1.27,1.5l-2.44,2.85a.76.76,0,0,1-.82.33.81.81,0,0,1-.38-.28l-3.71-4.33A.69.69,0,0,1,46,14.32Z"/></g></g></svg>