<svg xmlns="http://www.w3.org/2000/svg" viewBox="0 0 29.64 29.64"><defs><style>.cls-1{stroke:#000;stroke-miterlimit:10;stroke-width:0.5px;}</style></defs><g id="Capa_2" data-name="Capa 2"><g id="Capa_1-2" data-name="Capa 1"><g id="xxO4t5"><path class="cls-1" d="M14.13,29.39H3.47a3.2,3.2,0,0,1-2-.61,3.06,3.06,0,0,1-1.2-2.61V4c0-.34,0-.68,0-1A2.78,2.78,0,0,1,1,1.26,3.16,3.16,0,0,1,2.62.34L2.93.28l.13,0H26.54l.06,0,.1,0,.05,0A2.93,2.93,0,0,1,29.3,2.71c0,.07,0,.15.05.24l0,.13V26.57l0,.07,0,.08,0,0A2.85,2.85,0,0,1,27.84,29a3.28,3.28,0,0,1-1.68.39ZM3.18,1.1l-.09,0-.28,0A2.09,2.09,0,0,0,1.15,3c0,.35,0,.67,0,1V26.17A2.22,2.22,0,0,0,2,28.1a2.36,2.36,0,0,0,1.51.44H26.16a2.39,2.39,0,0,0,1.25-.27,2,2,0,0,0,1.06-1.61.69.69,0,0,1,.07-.23V3.21l0-.08-.06-.3a2.09,2.09,0,0,0-1.79-1.66,1.31,1.31,0,0,1-.27-.07ZM13.83,26.33H12.35A1.2,1.2,0,0,1,11.05,25V11.91a1.19,1.19,0,0,1,1.28-1.29H15.4a1.16,1.16,0,0,1,1.23,1.07,3.84,3.84,0,0,1,1.46-.89,7.08,7.08,0,0,1,5.21.14,4.63,4.63,0,0,1,2.48,2.72A9.31,9.31,0,0,1,26.41,17c0,2.17,0,4.37.05,6.5V25a1.32,1.32,0,0,1-.34,1,1.36,1.36,0,0,1-1,.35H22.06a1.17,1.17,0,0,1-1.29-1.28v-2c0-1.53,0-3.11,0-4.66a8.13,8.13,0,0,0-.2-1.74A1.65,1.65,0,0,0,19,15.33a1.85,1.85,0,0,0-1.92,1.08,4.39,4.39,0,0,0-.44,1.92c0,1.91,0,3.86,0,5.74V25a1.2,1.2,0,0,1-1.3,1.31Zm.11-14.86H12.33c-.34,0-.43.1-.43.45V25c0,.35.11.46.45.46h3c.35,0,.45-.1.45-.46v-.95c0-1.88,0-3.83,0-5.74A5.2,5.2,0,0,1,16.31,16a2.67,2.67,0,0,1,2.75-1.55,2.45,2.45,0,0,1,2.32,2,8.48,8.48,0,0,1,.23,1.92c0,1.56,0,3.14,0,4.68v2a.46.46,0,0,0,.09.34.49.49,0,0,0,.35.09h3.07a.63.63,0,0,0,.39-.1.54.54,0,0,0,.09-.36V23.49c0-2.12,0-4.32-.05-6.48A8.22,8.22,0,0,0,25,14a3.82,3.82,0,0,0-2-2.26,6.23,6.23,0,0,0-4.6-.11,3.55,3.55,0,0,0-1.8,1.45l-.77,1.09V12.47c0-.23,0-.42,0-.62s-.11-.38-.38-.38ZM6.82,26.33H5.63A1.22,1.22,0,0,1,4.3,25V12a1.21,1.21,0,0,1,1.31-1.33h3a1.23,1.23,0,0,1,1.28,1.21,1.46,1.46,0,0,1,0,.21v12.8c0,1-.45,1.49-1.48,1.49H6.82ZM7.2,11.47H5.62c-.37,0-.47.11-.47.48V25c0,.38.11.49.49.49H8.4a.82.82,0,0,0,.52-.11c.05-.05.11-.18.11-.53v-13a.38.38,0,0,0-.43-.41Zm-.09-1.18h0a3.53,3.53,0,0,1-2.45-1,3.47,3.47,0,0,1-1-2.48,3.37,3.37,0,0,1,1-2.44,3.46,3.46,0,0,1,2.46-1h0a3.48,3.48,0,0,1,3.47,3.49h0a3.45,3.45,0,0,1-1,2.47A3.41,3.41,0,0,1,7.11,10.29Zm0-6.11h0A2.63,2.63,0,0,0,4.46,6.8a2.65,2.65,0,0,0,.77,1.88,2.69,2.69,0,0,0,1.86.76h0a2.54,2.54,0,0,0,1.81-.76,2.63,2.63,0,0,0-1.84-4.5Z"/></g></g></g></svg>