<svg xmlns="http://www.w3.org/2000/svg" viewBox="0 0 63.07 63.02"><defs><style>.cls-1{fill:#f9eb37;}</style></defs><g id="Capa_2" data-name="Capa 2"><g id="TEXTOS"><ellipse cx="31.54" cy="31.51" rx="31.54" ry="31.51"/><path class="cls-1" d="M48.28,39.82a2.36,2.36,0,0,0-1.21-.27,11.2,11.2,0,0,0,2.13-3.19,2.8,2.8,0,0,0-.75-3.22,3.15,3.15,0,0,0-2.86-.32A8.27,8.27,0,0,0,47,30.7c.6-1.44.34-3.42-1.27-4.07a4.26,4.26,0,0,0-3.62.64l3-3.35c1.15-1.27,2.64-2.57,3.22-4.23a3,3,0,0,0-1.27-3.76,4.22,4.22,0,0,0-4.21.55,31.94,31.94,0,0,0-4,3.38A97.06,97.06,0,0,0,24.73,36.29L23.2,29.7a17.63,17.63,0,0,0-1.58-5.25A2.74,2.74,0,0,0,18,23.15c-1.7.9-1.93,3-2.05,4.67-.15,2.22-.3,4.45-.46,6.67s-.3,4.24-.29,6.37c0,3.83.59,7.82,2.74,11.08a12.68,12.68,0,0,0,4.83,4.39c4.21,2.13,8.54.45,12.52-1.15A31.55,31.55,0,0,0,39.77,53a33,33,0,0,0,5.73-4.3A30.6,30.6,0,0,0,48.05,46a6.19,6.19,0,0,0,1.59-3.15A3,3,0,0,0,48.28,39.82Zm.15,4a11.31,11.31,0,0,1-2,2.62c-.72.77-1.49,1.51-2.28,2.21A32.72,32.72,0,0,1,33.29,55a35.52,35.52,0,0,1-4.85,1.23,9.53,9.53,0,0,1-9.13-3.83,17.06,17.06,0,0,1-3.21-9.77,94.82,94.82,0,0,1,.49-11.79l.21-3.12a7.13,7.13,0,0,1,.53-2.66A2.25,2.25,0,0,1,19,23.73a1.81,1.81,0,0,1,1.6.8,6.17,6.17,0,0,1,1,2.1c.29,1,.5,2.09.74,3.13L23.06,33a26.9,26.9,0,0,0,.78,3.06c.13.35.35,1.13.75,1.28.67.25,1.13-1,1.45-1.43a98.55,98.55,0,0,1,8.9-10.87c.9-.95,1.82-1.88,2.76-2.8,1.18-1.15,2.38-2.26,3.61-3.35s2.4-2.29,4-2.44a2.52,2.52,0,0,1,1.81.46,2,2,0,0,1,.63,1.93c-.25,1.65-1.8,2.94-2.86,4.11l-6.36,7A22,22,0,0,0,36,32.71c-.34.46.43.9.77.45l.14-.19a.47.47,0,0,0,.12-.09l2.1-2.32c.39-.35.78-.69,1.19-1a18.86,18.86,0,0,1,2.13-1.43,4.51,4.51,0,0,1,2.32-.79c1.81,0,1.91,2.14,1.25,3.37a11.18,11.18,0,0,1-1.63,2.12l-2,2.24c-1.47,1.69-3,3.37-4.43,5.06-.37.43.25,1.05.62.62l2.19-2.49c1.09-1.25,2.22-2.37,3.38-3.54s4.31-2.1,4.31.48c0,1.54-1.42,2.87-2.31,4L43,43.24c-.35.45.27,1.07.62.63L45.89,41a.44.44,0,0,0,.29-.18,1.45,1.45,0,0,1,2.2.2A2.78,2.78,0,0,1,48.43,43.87Z"/><path class="cls-1" d="M27,57.59a9.64,9.64,0,0,1-4.41-1,13,13,0,0,1-4.92-4.48c-1.85-2.81-2.76-6.48-2.78-11.22,0-2,.14-4.1.27-6.1l.48-7c.11-1.44.27-3.87,2.19-4.87a3,3,0,0,1,4,1.39,13,13,0,0,1,1.38,4.21c.07.37.15.75.23,1.11l1.4,6a101.25,101.25,0,0,1,6.51-8.35,97.58,97.58,0,0,1,7.43-7.65l.62-.58a25.35,25.35,0,0,1,3.38-2.83,4.45,4.45,0,0,1,4.46-.57,3.24,3.24,0,0,1,1.4,4.08,10.52,10.52,0,0,1-2.56,3.54c-.24.26-.49.51-.72.77L43.18,26.5a3.61,3.61,0,0,1,2.67-.1,2.61,2.61,0,0,1,1.47,1.46,3.89,3.89,0,0,1-.06,2.94,7.31,7.31,0,0,1-1,1.6,3.22,3.22,0,0,1,2.33.54,3.06,3.06,0,0,1,.84,3.51,10,10,0,0,1-1.87,2.88,2.45,2.45,0,0,1,.83.27h0a3.2,3.2,0,0,1,1.49,3.27,6.51,6.51,0,0,1-1.65,3.28,29,29,0,0,1-2.57,2.69,33.64,33.64,0,0,1-5.77,4.34,33.14,33.14,0,0,1-4.55,2.24C32.74,56.46,29.91,57.59,27,57.59ZM19.12,23.1a2.21,2.21,0,0,0-1,.27c-1.54.81-1.79,2.65-1.92,4.47l-.48,7c-.13,2-.28,4-.27,6.06,0,4.64.9,8.22,2.69,10.94a12.43,12.43,0,0,0,4.74,4.31c4.16,2.1,8.5.37,12.32-1.16a32.68,32.68,0,0,0,4.48-2.2,33.17,33.17,0,0,0,5.69-4.27,29.39,29.39,0,0,0,2.53-2.65,6,6,0,0,0,1.53-3A2.71,2.71,0,0,0,48.17,40h0a2.2,2.2,0,0,0-1.09-.24l-.56,0,.57-.7A9.82,9.82,0,0,0,49,36.28a2.57,2.57,0,0,0-.67-2.94,2.87,2.87,0,0,0-2.62-.28l-.88.3.6-.7a8.24,8.24,0,0,0,1.4-2,3.44,3.44,0,0,0,.06-2.56,2.17,2.17,0,0,0-1.19-1.19,3.93,3.93,0,0,0-3.4.63l-1.37.77L45,23.75l.73-.78a10,10,0,0,0,2.45-3.36A2.75,2.75,0,0,0,47,16.15a4.12,4.12,0,0,0-4,.54,26.27,26.27,0,0,0-3.31,2.77l-.62.58a96.69,96.69,0,0,0-7.39,7.62,98,98,0,0,0-6.8,8.77l-.32.46L23,29.75c-.09-.36-.16-.74-.24-1.12a12.52,12.52,0,0,0-1.32-4.05A2.79,2.79,0,0,0,19.12,23.1Zm7.81,33.53a10.15,10.15,0,0,1-7.82-4.07,17.19,17.19,0,0,1-3.26-9.91,70.94,70.94,0,0,1,.31-9.46l.18-2.36.22-3.21A7,7,0,0,1,17.1,25,2.47,2.47,0,0,1,19,23.48a2,2,0,0,1,1.81.89,6.21,6.21,0,0,1,1,2.19c.21.73.37,1.48.53,2.21l.21.93L23.31,33c.06.26.11.52.17.78A17.88,17.88,0,0,0,24.07,36l.06.14c.1.29.31.9.55,1s.66-.49.91-.93c.09-.16.18-.31.25-.41a98.13,98.13,0,0,1,8.92-10.9c.89-.94,1.82-1.89,2.77-2.81,1.17-1.15,2.39-2.28,3.62-3.36l.39-.34a6.91,6.91,0,0,1,3.71-2.16,2.73,2.73,0,0,1,2,.52A2.26,2.26,0,0,1,48,18.89a7.17,7.17,0,0,1-2.31,3.59l-.62.66-6.35,7a20.41,20.41,0,0,0-2.45,2.72.11.11,0,0,0,0,.11.27.27,0,0,0,.19.12A.21.21,0,0,0,36.6,33l.22-.26.06,0L39,30.39c.42-.39.82-.73,1.22-1a19.24,19.24,0,0,1,2.15-1.45,5,5,0,0,1,2.46-.82,1.75,1.75,0,0,1,1.56.86,3.15,3.15,0,0,1-.1,2.88,10.36,10.36,0,0,1-1.45,1.93l-6.6,7.53a.21.21,0,0,0,0,.31.14.14,0,0,0,.22,0l2.18-2.5c1.05-1.19,2.11-2.26,3.24-3.39l.15-.15c.77-.78,2.58-1.56,3.76-1.08a1.69,1.69,0,0,1,1,1.73c0,1.35-1,2.5-1.84,3.52l-.52.63-3.2,4.06a.18.18,0,0,0,0,.22.23.23,0,0,0,.16.15s0,0,.1-.06l2.3-2.92h.1a.22.22,0,0,0,.13-.09,1.34,1.34,0,0,1,1.11-.53h0a1.91,1.91,0,0,1,1.48.73A3,3,0,0,1,48.65,44h0a11,11,0,0,1-2,2.64c-.76.81-1.53,1.56-2.34,2.27a33.25,33.25,0,0,1-10.94,6.36,34.53,34.53,0,0,1-4.88,1.23A8.24,8.24,0,0,1,26.93,56.63ZM19.16,24H19a2.07,2.07,0,0,0-1.49,1.21,6.64,6.64,0,0,0-.49,2.48l-.22,3.21-.18,2.36a70.1,70.1,0,0,0-.31,9.4c.22,4.06,1.25,7.21,3.16,9.62A9.27,9.27,0,0,0,28.39,56a34.77,34.77,0,0,0,4.82-1.22A32.43,32.43,0,0,0,44,48.51a31.18,31.18,0,0,0,2.26-2.19,10.65,10.65,0,0,0,2-2.56h0a2.58,2.58,0,0,0,0-2.58,1.46,1.46,0,0,0-1.08-.52h0a.86.86,0,0,0-.71.33.69.69,0,0,1-.34.25L43.84,44a.6.6,0,0,1-.56.25.76.76,0,0,1-.56-.47.7.7,0,0,1,.1-.71L46,39l.53-.64c.81-1,1.72-2,1.72-3.2a1.21,1.21,0,0,0-.67-1.26,3.58,3.58,0,0,0-3.21,1l-.16.16c-1.12,1.12-2.18,2.18-3.21,3.36l-2.19,2.5a.63.63,0,0,1-.92.05.71.71,0,0,1-.08-1l6.6-7.53a9.82,9.82,0,0,0,1.39-1.83,2.69,2.69,0,0,0,.11-2.4,1.25,1.25,0,0,0-1.14-.61,4.46,4.46,0,0,0-2.2.75,19.57,19.57,0,0,0-2.09,1.41c-.39.3-.79.64-1.18,1L37.25,33a.75.75,0,0,1-.14.12l-.11.15a.72.72,0,0,1-.67.28.75.75,0,0,1-.59-.42.62.62,0,0,1,.09-.61,21.78,21.78,0,0,1,2.49-2.76l6.34-7,.63-.67a6.76,6.76,0,0,0,2.17-3.31,1.78,1.78,0,0,0-.53-1.69,2.28,2.28,0,0,0-1.63-.41c-1.31.12-2.44,1.14-3.43,2l-.39.35c-1.22,1.07-2.43,2.2-3.61,3.34-.93.91-1.86,1.85-2.75,2.8a97,97,0,0,0-8.87,10.84,3.36,3.36,0,0,0-.22.36c-.32.57-.8,1.42-1.52,1.16-.47-.17-.7-.85-.86-1.29l0-.14A17.68,17.68,0,0,1,23,33.85c0-.26-.11-.52-.17-.78l-.75-3.26c-.08-.31-.14-.62-.21-.94-.16-.71-.33-1.46-.53-2.17a5.68,5.68,0,0,0-.92-2A1.68,1.68,0,0,0,19.16,24Z"/><path class="cls-1" d="M24.16,19.66c-1.24-1.93-2.84-3.69-4.26-5.48-.68-.85-1.31-1.77-2.06-2.56-1-1-3.74-1.34-2.24.62a59.3,59.3,0,0,0,8,7.86.88.88,0,0,0,.41.25c.16,0,.36-.05.38-.21a.46.46,0,0,0-.09-.3Z"/><path class="cls-1" d="M27.65,17.27a.33.33,0,0,0,0-.14c-.42-3.4-.82-6.81-1.27-10.21-.07-.55-.29-1.21-.95-1.23a1.1,1.1,0,0,0-1.05,1.17,10.29,10.29,0,0,0,.48,2.32l.6,2.57c.44,1.92.89,3.83,1.33,5.74C26.92,18,27.76,17.81,27.65,17.27Z"/><path class="cls-1" d="M33.25,16.63a.39.39,0,0,0,.08-.1c1.41-2.75,2.84-5.48,4.23-8.24a1.1,1.1,0,0,0-.15-1.46A1.05,1.05,0,0,0,36,7.09a8.66,8.66,0,0,0-.81,2l-.83,2.23q-.95,2.51-1.87,5C32.26,16.78,33.06,17.09,33.25,16.63Z"/></g></g></svg>