<svg xmlns="http://www.w3.org/2000/svg" viewBox="0 0 80.34 97.37"><g id="Capa_2" data-name="Capa 2"><g id="Capa_1-2" data-name="Capa 1"><g id="YceAkK"><path d="M44.74,18.91c3,.45,6,.65,8.86,1.37,13.06,3.29,20.91,11.79,23.86,24.77a32.44,32.44,0,0,1-5.12,26.63,2,2,0,0,0-.27,1.22c.2,2.31.49,4.62.69,6.93a4.42,4.42,0,0,1-1.56,4.1c1.6.44,3.31.2,4.87,1.49a13.92,13.92,0,0,1-2,.71,40.85,40.85,0,0,1-13,.13c-.25,0-.5-.1-.75-.11a4.64,4.64,0,0,1-3.84-1.7c0,1.81.1,3.57,0,5.32a7,7,0,0,1-2.35,4.7c3.93.33,7.8.08,11.47,1.26l0,.41a10,10,0,0,1-1.56.49,78.84,78.84,0,0,1-14.65.68c-2.76-.08-5.52-.32-8.27-.6-3.31-.35-4.71-3-4.8-5.6,0-1.42,0-2.85,0-4.45a19.81,19.81,0,0,0-3.49-.31,46.16,46.16,0,0,1-14.4-.95c-.37-.09-.74-.16-1.11-.26-2.68-.79-3.8-2.27-3.86-5.08,0-1.08,0-2.16,0-3.24a1.46,1.46,0,0,0-1-1.39A21.17,21.17,0,0,1,.9,63.91a12.21,12.21,0,0,1-.85-3.4c-.39-4.06,1.5-6.76,5.43-7.95l.93-.28a19.61,19.61,0,0,1,.84-7.56c.81-2.36,1.84-4.65,2.82-7.09a12.79,12.79,0,0,1-4-5A12,12,0,0,1,5,26.3c.36-3.36,2.36-5.56,6.14-6.36A12.85,12.85,0,0,1,24,24.19l.55.63,4.29-2.17c-.24-.17-.45-.33-.67-.47-6.77-4.29-8-13.32-.83-19.19A12,12,0,0,1,40.39,1.18a11.49,11.49,0,0,1,4.92,16.88ZM20.5,78.08a2.3,2.3,0,0,0,.14.22,2.2,2.2,0,0,0,.32.21c9.08,5.38,18.77,7.37,29.13,4.94,15.06-3.54,28.35-18.14,25.69-36.23a29.13,29.13,0,0,0-9.28-18c-6.74-6.05-14.81-8.38-23.77-7.91a2.93,2.93,0,0,0-1.06.34c-3.07,1.51-6.13,3-9.72,2.16A1.68,1.68,0,0,0,31,24a42.56,42.56,0,0,0-9,4.77C16.71,32.46,12.29,37,9.84,43.15a19.27,19.27,0,0,0-1.41,8.2c.64-.05,1.21-.12,1.78-.15A25.92,25.92,0,0,1,27,56.61a17,17,0,0,1,5.71,6.91c2.39,5.54.05,11.15-5.54,13.24a18.36,18.36,0,0,1-2.93.79C23,77.79,21.77,77.9,20.5,78.08Zm-.35-2.71a22.64,22.64,0,0,0,2.61-.48,3.38,3.38,0,0,0,2.68-3.84,9.47,9.47,0,0,0-.68-3A25.7,25.7,0,0,0,12.39,55.15,9,9,0,0,0,7,54.25C4.17,54.67,2.2,56.47,2,59a8.16,8.16,0,0,0,.25,2.55C4,68.8,12.43,75.25,20.15,75.37Zm15-53.91a10,10,0,0,0,10.07-9.73,9.64,9.64,0,0,0-9.9-9.6,9.87,9.87,0,0,0-10,9.71A9.71,9.71,0,0,0,35.17,21.46ZM38.37,87c0,1.65-.12,3.18,0,4.68.19,1.95,1.1,2.81,3,2.85,2.57,0,5.15,0,7.7-.2,1.87-.15,3.66-.77,4.62-2.6,1.11-2.11.82-4.35.5-6.69A37.64,37.64,0,0,1,38.37,87ZM13.8,53.13l-.11.33c.27.14.55.28.81.44A29.1,29.1,0,0,1,26.77,67.68,7.26,7.26,0,0,1,26.29,75c2.82-1.17,4.67-2.9,5.21-5.74.61-3.24-.71-5.91-2.76-8.28a21.83,21.83,0,0,0-9.18-6.13C17.69,54.14,15.72,53.69,13.8,53.13Zm3-23.1c-1.1-1.13-2.17-2.31-3.33-3.39a8.86,8.86,0,0,0-4.14-2.25c-1.59-.35-2-.12-2.29,1.45A10.33,10.33,0,0,0,11.35,36Zm53.39,44.3a41.32,41.32,0,0,1-12,9.17,3.86,3.86,0,0,0,1.5.57,25.47,25.47,0,0,0,8.85-1A2.64,2.64,0,0,0,70.8,79.9C70.7,78.14,70.44,76.37,70.23,74.33ZM22.67,25.88c-3-4.27-9.46-5.23-12.54-3.36,3.64,1,6,3.63,8.26,6.36Zm2.59,57.91-9.78-5.86c0,.86,0,1.77,0,2.68A2.25,2.25,0,0,0,17,82.89,18.48,18.48,0,0,0,25.26,83.79Z"/><path d="M66.49,21.42c.17-.4.25-.64.37-.86L71.42,12c.33-.61.73-1.1,1.5-.7s.64,1,.3,1.62q-2.32,4.31-4.62,8.62c-.28.52-.64,1-1.26.69C67,22.08,66.75,21.69,66.49,21.42Z"/><path d="M80.34,18.87a6.71,6.71,0,0,1-.55.93l-5.52,6.81c-.46.58-1,.85-1.62.32s-.38-1.05.06-1.59c1.87-2.28,3.7-4.6,5.6-6.86a1.6,1.6,0,0,1,1.22-.42C79.82,18.1,80.06,18.57,80.34,18.87Z"/><path d="M63.67,15.33c-.11,1.74-.2,3-.26,4.35,0,.71-.31,1.19-1.08,1.15s-.94-.54-.9-1.21q.21-3.95.43-7.91c0-.63.34-1,1-1s1,.49,1,1.16C63.78,13.17,63.71,14.47,63.67,15.33Z"/><path d="M56.6,32.65a23.75,23.75,0,0,1,3.72,1.22c2.75,1.39,3.81,4.13,3,7.29a14.69,14.69,0,0,1-6.13,8.47,48.6,48.6,0,0,1-6.58,3.58c-1.45.7-2.22,0-2-1.65a20.61,20.61,0,0,0-1.05-9.76,14,14,0,0,0-1.45-3c-1-1.51-2.56-1.41-3.52.15A6.05,6.05,0,0,0,42,40.27c-.2.68-.52,1.22-1.33,1s-.83-.82-.62-1.52a5.17,5.17,0,0,1,4.44-4.09c2.37-.4,4.64-1.31,7-1.91C53.08,33.32,54.73,33,56.6,32.65ZM50.7,51a19.46,19.46,0,0,0,7.81-5.2,11.53,11.53,0,0,0,2.89-5.28c.57-2.71-.69-4.8-3.33-5.39a6.67,6.67,0,0,0-2.55-.14c-1.93.36-3.83.86-5.73,1.34-.82.21-1.61.51-2.43.77C50.2,41.32,50.93,46,50.7,51Z"/><path d="M33.6,34.94c-1.64-.89-3.41-1.74-5.06-2.79-.61-.39-.17-1.08.33-1.52a26,26,0,0,1,9.54-5.39A25.47,25.47,0,0,1,46.1,24a2.84,2.84,0,0,1,1.56.51c1.25.91,2.44,1.92,3.65,2.9.46.37.9.76.64,1.44s-.85.66-1.43.66a26.42,26.42,0,0,0-14.16,3.79c-.68.41-1.32.88-2,1.3A4.41,4.41,0,0,1,33.6,34.94ZM48,27.4c-.88-.74-1.67-1.51-3.09-1.4a24.69,24.69,0,0,0-13.07,4.77c-.25.18-.47.39-.76.64.67.33,1.26.56,1.8.88a1.34,1.34,0,0,0,1.53-.09A56.65,56.65,0,0,1,41.22,29,60.06,60.06,0,0,1,48,27.4Z"/><path d="M35.54,48a3.82,3.82,0,1,1-7.64.06A3.82,3.82,0,0,1,35.54,48Z"/><path d="M11.49,43.32a5.42,5.42,0,0,1,4-4.68,2.21,2.21,0,0,1,2.37,2.56,13,13,0,0,1-1.6,3.9,2.42,2.42,0,0,1-3,.91A3,3,0,0,1,11.49,43.32Z"/><path d="M5.89,63.41c0-2.11.87-3.23,2.15-3.36a3.45,3.45,0,0,1,3.23,2.62,2.79,2.79,0,0,1-1,3A2.39,2.39,0,0,1,7.59,66,3,3,0,0,1,5.89,63.41Zm2.27-1.33c-.39.85-.24,1.92.31,2a1,1,0,0,0,.81-.41C9.59,63.16,9.11,62.49,8.16,62.08Z"/><path d="M15.91,68a2.6,2.6,0,0,1,2.33-2.85A3.13,3.13,0,0,1,21.17,68c0,1.5-1.49,3.35-2.62,3.32C17.11,71.3,15.9,69.78,15.91,68Zm2.3-.76c-.41.79-.3,1.82.28,2a1,1,0,0,0,.8-.37C19.64,68.27,19.12,67.54,18.21,67.26Z"/><path d="M32.44,6.07c-.29-1.26,0-2,.66-2.14s1,.27,1.32,1.46c.78.19,1.56.32,2.3.57s1.11.63.8,1.38-.91.78-1.59.46A2.33,2.33,0,0,0,33.25,8a1.74,1.74,0,0,0-.54,1.38c.06.33.68.68,1.11.79a18.4,18.4,0,0,0,2,.17,3.86,3.86,0,0,1,3.38,2.43,3.45,3.45,0,0,1-.83,3.86,1.06,1.06,0,0,0-.17.81c.1.65.16,1.26-.61,1.48s-1.12-.15-1.34-.85c-.07-.22-.39-.41-.64-.52a14.09,14.09,0,0,1-1.9-.81,1,1,0,0,1-.37-1.63c.49-.58,1-.33,1.6,0a2.32,2.32,0,0,0,1.74.18,1.61,1.61,0,0,0,.69-1.38,1.94,1.94,0,0,0-.93-1.28,4.17,4.17,0,0,0-1.83-.37c-2.17-.08-3.34-.72-3.85-2.19S30.75,7.45,32.44,6.07Z"/></g></g></g></svg>