<svg xmlns="http://www.w3.org/2000/svg" viewBox="0 0 50.6 79.54"><defs><style>.cls-1{fill:#1c1c1c;}</style></defs><g id="Capa_2" data-name="Capa 2"><g id="Capa_1-2" data-name="Capa 1"><path class="cls-1" d="M.33,1.44,1.17,2A1.78,1.78,0,0,0,1,2.51c-.4,2.55.64,5.57,3.78,5.3a.61.61,0,0,0,.27.28L23.9,20c.34.22-1.72,7.2-1.9,8-.63,2.65-1.27,5.31-1.9,8l-2,8.19c-.5,2.09-1.66,4.83-1.2,7,.17.81.51,1.49.64,2.31.15,1,.27,2.06.4,3.09q.39,3,.79,5.94.48,3.73,1,7.47a46.81,46.81,0,0,1,.52,5,1,1,0,0,1,0,.35c-.09.22-.47.39-.64.57l-1.45,1.57a.72.72,0,0,0-.19.32c-.64.33-.23,1.52.64,1.38l5.7-.9c.9-.14,1.8-.26,2.7-.42.73-.13.95-.65.88-1.35-.11-1-.1-2-.22-3.06s-.25-2.12-.38-3.18q-.42-3.45-.83-6.9c-.54-4.45-1.83-9.43-1-13.85.89-5,1.3-10,1.94-15l4.72,1.31c.1,0-1,6-1.09,6.42-.44,2.58-.95,4.6-.63,7.2s1.1,4.95,1.59,7.43c.58,3,1.14,5.95,1.77,8.91.36,1.73.73,3.45,1.09,5.17.19.87.37,1.73.55,2.59.13.61.7,1.65.15,2.15a14,14,0,0,1-1.38,1c-.67.48-2,1-1.72,2a.86.86,0,0,0,.11.24,1.37,1.37,0,0,0,.61.58,3.67,3.67,0,0,0,2-.07L37.38,79,42,78.3a.75.75,0,0,0,.56-.73,71.44,71.44,0,0,0-1.34-9.42c-1.1-5.54-2.46-11.06-2.54-16.74a80.64,80.64,0,0,1,1.74-15.63c.07-.41.13-.83.23-1.24s.29-.31.69-.47c.74-.27,1.26-.93,2-1.23a15,15,0,0,1,2.08-.43,7.74,7.74,0,0,0,4.1-2.73c3.95-5-2.94-10.36-6.9-12.63-4.32-2.49-9.22-3.66-14-4.84-1.58-.38-3.15-.8-4.7-1.25a2.68,2.68,0,0,0-1.13-.33,73.73,73.73,0,0,1-8.6-3.14A76.37,76.37,0,0,1,1.1.14C.3-.42-.46.89.33,1.44ZM40.25,21.66a6.36,6.36,0,0,1,3.44,1.16,4.11,4.11,0,0,1,1.7,3.12,3,3,0,0,1-1.88,2.88c-.43.16-.89.19-1.32.33a3,3,0,0,0-1.26.75c0-1.46,0-2.91-.15-4.36,0-.16-.05-.81-.11-1.53C40.57,22.92,40.43,21.66,40.25,21.66ZM35.31,9.59a4,4,0,0,1,.1-5.19C36.5,3,39.83,1.59,41.12,3.51c1,1.56.16,3.48-.78,4.81C39.23,9.9,37,11.33,35.31,9.59Z"/></g></g></svg>