<svg xmlns="http://www.w3.org/2000/svg" viewBox="0 0 59.39 93.35"><defs><style>.cls-1{fill:#f1e337;}</style></defs><g id="Capa_2" data-name="Capa 2"><g id="Capa_1-2" data-name="Capa 1"><path class="cls-1" d="M58.1.16A89.93,89.93,0,0,1,42.88,8.79a87,87,0,0,1-10.09,3.69,3,3,0,0,0-1.33.39c-1.83.52-3.66,1-5.52,1.47C20.31,15.72,14.56,17.09,9.48,20c-4.64,2.66-12.73,8.91-8.1,14.82A9.13,9.13,0,0,0,6.2,38a15.74,15.74,0,0,1,2.44.51c.81.34,1.42,1.11,2.29,1.44.47.18.69,0,.81.55s.18,1,.27,1.46a94.35,94.35,0,0,1,2,18.34C14,67,12.36,73.49,11.07,80A83.89,83.89,0,0,0,9.5,91.05a.89.89,0,0,0,.65.85l5.37.82,2.68.41a4.47,4.47,0,0,0,2.32.09,1.77,1.77,0,0,0,.72-.69,1,1,0,0,0,.12-.28c.3-1.23-1.22-1.85-2-2.41a16.55,16.55,0,0,1-1.62-1.11c-.64-.58,0-1.8.18-2.52.22-1,.43-2,.64-3l1.29-6.07c.74-3.48,1.39-7,2.07-10.45.58-2.92,1.51-5.77,1.87-8.73s-.22-5.42-.74-8.45C23,49,21.64,42,21.75,41.93l5.54-1.53c.76,5.86,1.24,11.84,2.28,17.66.93,5.19-.59,11-1.22,16.25q-.48,4.06-1,8.11l-.45,3.73c-.14,1.18-.12,2.39-.25,3.59-.08.82.18,1.43,1,1.59,1,.19,2.11.32,3.16.49l6.7,1.06c1,.16,1.5-1.24.74-1.63a.93.93,0,0,0-.21-.37L36.39,89c-.2-.21-.65-.42-.75-.68a1.07,1.07,0,0,1,0-.4,57.8,57.8,0,0,1,.61-5.87c.39-2.92.76-5.84,1.15-8.77.3-2.32.61-4.64.91-7,.16-1.21.3-2.42.48-3.63.15-1,.55-1.75.75-2.71.54-2.55-.83-5.76-1.41-8.21-.76-3.21-1.53-6.41-2.29-9.62S34.31,36,33.57,32.84c-.21-.9-2.63-9.09-2.22-9.35l22.11-14a.88.88,0,0,0,.31-.33c3.69.31,4.91-3.23,4.43-6.22a2,2,0,0,0-.18-.6c.32-.23.66-.43,1-.66C59.93,1,59-.5,58.1.16Zm-46.44,28c-.07.85-.12,1.6-.13,1.8-.13,1.7-.19,3.4-.18,5.11a3.68,3.68,0,0,0-1.47-.88c-.51-.16-1.05-.2-1.55-.38a3.55,3.55,0,0,1-2.21-3.39,4.81,4.81,0,0,1,2-3.66,7.52,7.52,0,0,1,4-1.36C11.94,25.42,11.78,26.9,11.66,28.18ZM12,9.77C10.94,8.21,9.91,6,11.13,4.12c1.51-2.26,5.43-.56,6.71,1s1.73,4.41.11,6.09C16,13.3,13.35,11.62,12,9.77Z"/></g></g></svg>