<svg xmlns="http://www.w3.org/2000/svg" viewBox="0 0 110.28 122.49"><defs><style>.cls-1{fill:#f9eb37;}</style></defs><g id="Capa_2" data-name="Capa 2"><g id="TEXTOS"><path class="cls-1" d="M3.15,49.34A9.9,9.9,0,0,1,0,41.68a9.73,9.73,0,0,1,3.15-7.52,11.79,11.79,0,0,1,8.3-2.9,11,11,0,0,1,7.92,2.9,10,10,0,0,1,3,7.52,10.13,10.13,0,0,1-3,7.66,11,11,0,0,1-7.92,2.89A11.79,11.79,0,0,1,3.15,49.34ZM3.15,99A9.9,9.9,0,0,1,0,91.35a9.75,9.75,0,0,1,3.15-7.53,11.79,11.79,0,0,1,8.3-2.89,11,11,0,0,1,7.92,2.89,10,10,0,0,1,3,7.53,10.13,10.13,0,0,1-3,7.66,11,11,0,0,1-7.92,2.89A11.79,11.79,0,0,1,3.15,99Z"/><path class="cls-1" d="M110.28,63.35a54.32,54.32,0,0,1-4.44,21.75q-4.44,10.29-15,17.05T62.93,108.9H30.5v-.77l7-6.69V29.51l-7-6.69v-.77H62.67Q110.28,22.05,110.28,63.35ZM65,106.33q7.2,0,11.26-3.92T82,89.73Q83.78,81,83.77,65.41q0-15-1.8-23.87t-6.24-13q-4.44-4.18-12.54-4.18h-.65v82Z"/><path d="M103.1,75.08a5.23,5.23,0,0,0-3-3.35,9.82,9.82,0,0,0-4.7-.54,45.58,45.58,0,0,0-5.31.88c-1.85.39-3.72.85-5.56,1.37a83.38,83.38,0,0,0-10.83,3.91c-.9.4-1.84.84-2.87,1.35l0-.14-.33.2-.14.08-.45.28-.12.07a3.81,3.81,0,0,1-.45.23L68.24,80c2.43-9.64,4.61-19.17,6.5-28.32,2.05-10,3.83-20,5.27-29.57.37-2.46.72-4.95,1.06-7.4v-.08a27,27,0,0,0,.32-7.07A9.61,9.61,0,0,0,79,2.19,6.33,6.33,0,0,0,74.18,0a7.38,7.38,0,0,0-5,2.56,15.5,15.5,0,0,0-3,5.73c-1.56,4.81-2.88,9.69-4.06,14.25-2.5,9.57-4.58,19.38-6.19,29.13l-.15.94a33.73,33.73,0,0,0-1.75-6.16c-.19-.49-.39-1-.6-1.45A8.49,8.49,0,0,0,51,41.57a5.69,5.69,0,0,0-3.81-1.13,7.1,7.1,0,0,0-3.76,1.33A8.51,8.51,0,0,0,40.73,45a12,12,0,0,0-1,3.47q-.2-1.12-.42-2.19A12.43,12.43,0,0,0,37.68,42a4.73,4.73,0,0,0-3.63-2.23,5.8,5.8,0,0,0-4.15,1.65,8.75,8.75,0,0,0-2.37,4.45c-.05.2-.1.41-.14.62-1.69-1.88-4.54-2.22-6.7-1.71-2.93.69-5.36,3.13-7.24,7.26a56.54,56.54,0,0,0-2.15,5.67C10.6,59.85,10,62,9.44,64.19A86.65,86.65,0,0,0,7.1,90.39,75.21,75.21,0,0,0,8.87,103a24.77,24.77,0,0,0,4.41,10,15,15,0,0,0,4.16,3.62,20.17,20.17,0,0,0,5.43,2.1,52.82,52.82,0,0,0,6,1l4.71.6L46.84,122,47,122a22,22,0,0,0,2.68.3l1.16.15h.31c.33,0,.67,0,1,0h.09l.05-.08,0,0,.33-.08a3.26,3.26,0,0,1,.68-.13h.16a.09.09,0,0,1,.07,0l0,0h0c.61-.07,1.21-.17,1.81-.29l.07.08.15,0h0c.77-.25,1.54-.53,2.29-.8l.42-.16,0-.06,0-.13c1.82-1.14,3.67-2.4,5.5-3.74,2.87-2.1,5.8-4.46,8.95-7.23,2.51-2.22,5.14-4.65,8.52-7.91,2.21-2.12,4.44-4.29,6.59-6.39L95,88.79l1.34-1.3c1-1,2.12-2,3.15-3.09a14.92,14.92,0,0,0,3.26-4.46A7.18,7.18,0,0,0,103.1,75.08ZM55.55,59.13c0,.77,0,1.55,0,2.33a66.2,66.2,0,0,1-.89,9.25c-.24,1.53-.52,3-.82,4.47a30,30,0,0,1-1.11,4.09,13.16,13.16,0,0,1-2,3.65,4.6,4.6,0,0,1-3.25,2c-1.07,0-2.11-.62-3.07-2a18.16,18.16,0,0,1-2.07-3.75A24.57,24.57,0,0,1,40.6,71c-.17-2.92-.24-5.63-.22-8.06,0-.22,0-.43,0-.65,0-.56,0-1.15,0-1.72l-.11-5.45,0-1a22.67,22.67,0,0,1,.05-3.19c0-.39.06-.78.09-1.16a12.21,12.21,0,0,1,.34-2.54c.79-2.88,2.55-5,4.85-5.71a5.75,5.75,0,0,1,3.62,0A5.55,5.55,0,0,1,52.05,44,19.18,19.18,0,0,1,53.74,48a35.4,35.4,0,0,1,1.13,4.4,41.62,41.62,0,0,1,.66,6.19l0,.34A.34.34,0,0,0,55.55,59.13ZM38.37,80.23a8.45,8.45,0,0,1-2.14,4.46,3.53,3.53,0,0,1-3.91.8,5,5,0,0,1-2.24-2.92,24.54,24.54,0,0,1-1-4.22l-.09-.5A99.06,99.06,0,0,1,27.49,66.3c0-.43-.06-.85-.1-1.28-.05-.66-.11-1.35-.14-2-.07-1.55,0-3.12.09-4.64,0-.93.09-1.89.11-2.84v-.9c0-.51,0-1,0-1.56,0-.34.05-.68.07-1h0v0h0s0,0,0,0h0c0-.65.09-1.33.15-2h0A16.09,16.09,0,0,1,28,47.73c.07-.28.12-.57.18-.85A11.81,11.81,0,0,1,29,44.05a6.06,6.06,0,0,1,3-3.08,4.33,4.33,0,0,1,1.73-.38,3.56,3.56,0,0,1,2.15.69,6.33,6.33,0,0,1,2.12,3.47,34.4,34.4,0,0,1,1.05,5.13,27,27,0,0,1,.3,3.54l.36,18.23A70.18,70.18,0,0,1,38.37,80.23ZM26.82,51.15l0,.23c-.12,1.56-.22,3.14-.27,4.71,0,.52,0,1,0,1.55,0,.8,0,1.63-.08,2.45-.08,1.14-.2,2.31-.31,3.44L25.89,66c-.13,1.36-.26,2.73-.4,4.09a11.33,11.33,0,0,1-1.34,5,4.35,4.35,0,0,1-3.6,2.17,4.26,4.26,0,0,1-3.41-2.51,14.25,14.25,0,0,1-1.14-5l0-.38c-.21-2-.35-4-.41-6,0-1.31-.05-2.65,0-4,0-.27,0-.55,0-.82l0-.81c0-.29,0-.69,0-1.08v-.07a.51.51,0,0,0-.15-.44.36.36,0,0,0-.32,0,.39.39,0,0,0-.25.29,2.65,2.65,0,0,0-.06.68v.27q0,.81-.06,1.62c0,1.07,0,2.16,0,3.24,0,2.06.15,4.15.35,6.2.1,1.15.21,2.1.34,3a13.53,13.53,0,0,0,.63,2.76,5.87,5.87,0,0,0,3.28,3.61,4.37,4.37,0,0,0,4.44-1.07A7.87,7.87,0,0,0,26,72.15c.15-.87.23-1.76.31-2.62L26.68,66c.2,3.15.56,6.31,1.05,9.42.29,1.83.61,3.77,1.08,5.69A10,10,0,0,0,30.52,85a4,4,0,0,0,3.82,1.53,5.51,5.51,0,0,0,3.76-3.06,18.26,18.26,0,0,0,1.44-5l.07-.36c.21-1.14.4-2.3.57-3.47a22.46,22.46,0,0,0,.74,3,22.93,22.93,0,0,0,1.83,4.18,9,9,0,0,0,2.72,3.27,3.73,3.73,0,0,0,4-.05,8.65,8.65,0,0,0,2.89-3.21A26.77,26.77,0,0,0,55,73.32a78.2,78.2,0,0,0,1.24-9.59c.09-1.49.12-3.06.1-4.65,0-.54,0-1.11-.07-1.74s-.08-1.17-.12-1.76a.43.43,0,0,0,.06-.17c1.48-9.58,3.4-19.19,5.71-28.56,1.15-4.67,2.43-9.37,3.78-14,.12-.4.24-.8.35-1.2a43.84,43.84,0,0,1,1.78-5.33,9.59,9.59,0,0,1,3.78-4.67,5.21,5.21,0,0,1,5.31-.1,7.5,7.5,0,0,1,3.2,4.16,16.15,16.15,0,0,1,.34,6.91c-.24,2.08-.55,4.19-.85,6.23l-.13.94c-1.38,9.42-3.07,19.16-5,29C72.59,58,70.43,67.61,68,77.29c-.27,1.08-.54,2.17-.82,3.25-1.27.7-2.54,1.44-3.77,2.21-.77.48-1.56,1-2.34,1.52a.41.41,0,0,0-.11.57.36.36,0,0,0,.52.1c1.18-.79,2.41-1.57,3.64-2.3,2-1.21,4-2.29,6.13-3.32a81.46,81.46,0,0,1,21.43-7c2.61-.46,6.55-1.15,8.72,1.28a5.14,5.14,0,0,1,1,4.36,9.56,9.56,0,0,1-2.35,4.51c-1,1.14-2.09,2.21-3.16,3.24l-.95.91-7.27,7.07q-3.09,3-6.2,6c-2.44,2.37-5.33,5.15-8.28,7.81-3.13,2.83-6,5.23-8.71,7.32a92.23,92.23,0,0,1-8.1,5.62,22.09,22.09,0,0,1-10.27.67H47l-7.2-.9-4-.48c-3.08-.36-6.27-.74-9.38-1.23-3.48-.54-7.45-1.45-10.51-4a18.78,18.78,0,0,1-5.5-9,59.25,59.25,0,0,1-2.2-11.54,85.95,85.95,0,0,1,4.44-37.81c1.14-3.2,2.56-7.19,5.67-9.48a6.7,6.7,0,0,1,8-.15,4.24,4.24,0,0,1,.84,1C27,48.75,26.92,50,26.82,51.15Z"/><path d="M15.6,82.86a59.69,59.69,0,0,1,8.69,4.25,60.08,60.08,0,0,1,7.94,5.61c1.38,1.15,2.73,2.39,4,3.67a.41.41,0,0,0,.6,0,.42.42,0,0,0,0-.6,61.52,61.52,0,0,0-7.48-6.37,61.11,61.11,0,0,0-8.45-5.12c-1.63-.82-3.34-1.58-5.07-2.26a.39.39,0,0,0-.38,0,.47.47,0,0,0-.16.42A.46.46,0,0,0,15.6,82.86Z"/></g></g></svg>