<svg xmlns="http://www.w3.org/2000/svg" viewBox="0 0 63.07 63.02"><defs><style>.cls-1{fill:#f5f5f5;}</style></defs><g id="Capa_2" data-name="Capa 2"><g id="TEXTOS"><ellipse cx="31.54" cy="31.51" rx="31.54" ry="31.51"/><path class="cls-1" d="M13.91,28.18a.65.65,0,0,0,.32.36q-.75,3.15-1.48,6.29a.81.81,0,0,0,.34.88.84.84,0,0,0,1.18.2,30.07,30.07,0,0,0,4.87-4.49S23.37,34.82,24,35c1.65.36,1-1.24.81-2.18-.24-1.23-.47-2.46-.7-3.69,1.43-.74,2.9-1.44,4.29-2.24.42-.23.73-.35.83-.84.25-1.24-1.26-1.38-2-1.65l-2.12-.74c-.26-.09-1.88-.46-1.95-.68a27.45,27.45,0,0,0-3.39-6.84A.87.87,0,0,0,19.6,16h0a.75.75,0,0,0-.84-.4.74.74,0,0,0-1,.47c-.63,1.93-1.27,3.86-1.9,5.79a30.93,30.93,0,0,1-5.39,1.05.66.66,0,0,0-.62.62.66.66,0,0,0,.09.91Zm1.54-.71-3.36-3.22a30.44,30.44,0,0,0,4.59-1,.8.8,0,0,0,.53-.51.66.66,0,0,0,.09-.19c.51-1.54,1-3.08,1.52-4.62.58,1.1,1.15,2.21,1.76,3.3A25.59,25.59,0,0,0,22,24.11a.85.85,0,0,0,.37.26l4.4,1.53-3.85,2a.71.71,0,0,0-.39.45.74.74,0,0,0-.1.56l.68,3.63-3.49-2.74a.66.66,0,0,0-.84,0,.76.76,0,0,0-.6.3,28.79,28.79,0,0,1-3.55,3.52c.39-1.66.77-3.33,1.16-5a.76.76,0,0,0-.14-.68A.68.68,0,0,0,15.45,27.47Z"/><path class="cls-1" d="M40.56,28.18a.67.67,0,0,0,.31.36L39.4,34.83a.81.81,0,0,0,.34.88.84.84,0,0,0,1.18.2,30.43,30.43,0,0,0,4.86-4.49S50,34.82,50.64,35c1.64.36,1-1.24.8-2.18l-.69-3.69c1.42-.74,2.89-1.44,4.29-2.24.42-.23.72-.35.82-.84.25-1.24-1.25-1.38-2-1.65l-2.11-.74c-.27-.09-1.88-.46-2-.68a27.42,27.42,0,0,0-3.38-6.84.87.87,0,0,0-.12-.14h0a.75.75,0,0,0-.84-.4.73.73,0,0,0-1,.47c-.64,1.93-1.27,3.86-1.91,5.79a30.65,30.65,0,0,1-5.38,1.05.65.65,0,0,0-.62.62.65.65,0,0,0,.09.91Zm1.54-.71-3.37-3.22a29.9,29.9,0,0,0,4.59-1,.81.81,0,0,0,.54-.51l.09-.19q.75-2.31,1.52-4.62c.58,1.1,1.15,2.21,1.76,3.3a24,24,0,0,0,1.45,2.92.75.75,0,0,0,.37.26l4.39,1.53-3.85,2a.72.72,0,0,0-.38.45.75.75,0,0,0-.11.56l.69,3.63L46.3,29.81a.66.66,0,0,0-.84,0,.78.78,0,0,0-.61.3,27.46,27.46,0,0,1-3.55,3.52l1.17-5a.82.82,0,0,0-.14-.68A.72.72,0,0,0,42.1,27.47Z"/><path class="cls-1" d="M15.16,44.24A17.91,17.91,0,0,0,32,53.84a18,18,0,0,0,15.2-11.49c.52-1.35-1.66-1.94-2.17-.59a15.64,15.64,0,0,1-13.39,9.85A15.7,15.7,0,0,1,17.1,43.1c-.66-1.29-2.6-.15-1.94,1.14Z"/></g></g></svg>