<svg xmlns="http://www.w3.org/2000/svg" viewBox="0 0 674.74 147.91"><defs><style>.cls-1{font-size:66.03px;font-family:PPObjectSans-Bold, PP Object Sans;font-weight:700;letter-spacing:-0.02em;}.cls-2{letter-spacing:-0.02em;}.cls-3{letter-spacing:-0.02em;}.cls-4{letter-spacing:-0.02em;}.cls-5{letter-spacing:-0.02em;}.cls-6{fill:#f9eb37;}</style></defs><g id="Capa_2" data-name="Capa 2"><g id="TEXTOS"><text class="cls-1" transform="translate(1.27 56.52)">Una app <tspan class="cls-2" x="274.49" y="0">c</tspan><tspan class="cls-3" x="313.65" y="0">on una </tspan><tspan class="cls-4" x="536.56" y="0">t</tspan><tspan class="cls-3" x="561.85" y="0">asa</tspan><tspan x="73.59" y="71.98">al</tspan><tspan class="cls-5" x="125.89" y="71.98">t</tspan><tspan x="151.18" y="71.98">a en bienes</tspan><tspan class="cls-2" x="508.6" y="71.98">t</tspan><tspan class="cls-3" x="533.89" y="71.98">ar</tspan></text><path class="cls-6" d="M204.32,143.69q38.88-2,77.78-3.12,39.11-1.17,78.24-1.52,40-.36,80,.14,40.81.51,81.61,1.89,42.31,1.42,84.59,3.72l10.68.59c3.56.21,3.55-5.34,0-5.54q-42.45-2.4-85-3.95-40.93-1.49-81.9-2.11-40.11-.61-80.23-.36-39.19.24-78.37,1.31-38.94,1.08-77.85,2.94l-9.61.47c-3.55.18-3.57,5.72,0,5.54Z"/></g></g></svg>