<svg xmlns="http://www.w3.org/2000/svg" viewBox="0 0 441.72 538.21"><defs><style>.cls-1{fill:#f9eb37;}</style></defs><g id="Capa_2" data-name="Capa 2"><g id="TEXTOS"><path class="cls-1" d="M92.53,423.52C97.39,437.26,103.08,450.75,111,463c-10.58,1.3-20.57,2.78-29.84,4.43-19.44,3.46-34.75,7.52-45.52,12.06C23,484.73,16.93,490.58,16.93,497.32S23,509.91,35.59,515.2c10.77,4.54,26.08,8.59,45.52,12.06,39.62,7.06,92.26,11,148.22,11s108.59-3.89,148.22-11c19.43-3.47,34.74-7.52,45.51-12.06,12.55-5.29,18.66-11.14,18.66-17.88s-6.11-12.59-18.66-17.88c-10.77-4.54-26.08-8.6-45.51-12.06-11.37-2-23.8-3.79-37.07-5.27,17-23.64,27.81-52.35,37.27-79.15Q388,354,395.81,324.2t13.36-60.31c1.57-8.73,3.83-17.81,3.58-26.72a25.08,25.08,0,0,0-1.55-8.81c-2.75-6.71-11.06-10.4-17.44-12.74-9.09-3.35-22-6.33-38.43-8.89-15.93-2.47-34.36-4.42-54.4-5.78.7-2.3,1.38-4.86,2-7.71,2-8.66,1.46-18.19.89-28.28s-1.17-20.67,1-30.21,7.33-18.58,12.28-27.31,9.56-16.84,11.57-25.5c6.14-26.4,3.46-49.75,2.59-57.42-.1-.84-.2-1.7-.22-2.06a3,3,0,0,0-1.86-3.08,2.78,2.78,0,0,0-3.6,1.8c-.28.84-.22,1.39.08,4.05.85,7.41,3.43,29.94-2.46,55.29-1.81,7.78-6.24,15.59-10.93,23.85-5.16,9.12-10.51,18.54-12.92,29s-1.79,21.38-1.19,32c.54,9.62,1.06,18.72-.74,26.5-.77,3.33-1.57,6.22-2.39,8.76-9.7-.6-19.74-1.06-30-1.38.52-1.83,1-3.81,1.52-6,2-8.66,1.47-18.19.9-28.28s-1.17-20.67,1-30.21,7.33-18.58,12.28-27.31,9.55-16.84,11.56-25.5c6.14-26.4,3.47-49.75,2.59-57.42-.09-.84-.19-1.7-.22-2.06a3,3,0,0,0-1.85-3.08,2.78,2.78,0,0,0-3.6,1.8c-.29.84-.23,1.39.08,4.05.85,7.41,3.43,29.94-2.47,55.29-1.8,7.78-6.23,15.59-10.92,23.85-5.17,9.12-10.51,18.54-12.92,29s-1.8,21.38-1.2,32c.55,9.62,1.06,18.72-.74,26.5-.62,2.68-1.25,5.07-1.91,7.22-9.47-.24-19.12-.36-28.9-.36h-1.46c.47-1.69.93-3.49,1.38-5.44,2-8.66,1.46-18.19.89-28.28s-1.17-20.67,1-30.21,7.33-18.58,12.29-27.31S254,90.6,256,81.94c6.14-26.4,3.47-49.75,2.59-57.42-.1-.84-.2-1.7-.22-2.06a3,3,0,0,0-1.85-3.08,2.79,2.79,0,0,0-3.61,1.8c-.28.84-.22,1.39.08,4.05.85,7.41,3.43,29.94-2.46,55.29-1.81,7.78-6.24,15.59-10.92,23.85-5.17,9.12-10.52,18.54-12.93,29s-1.79,21.38-1.19,32c.54,9.62,1.06,18.72-.74,26.5-.59,2.54-1.19,4.82-1.81,6.88-10.4.07-20.64.27-30.64.61q.8-2.79,1.56-6.07c2-8.66,1.46-18.19.89-28.28s-1.17-20.67,1-30.21,7.33-18.58,12.28-27.31,9.55-16.84,11.57-25.5c6.13-26.4,3.46-49.75,2.58-57.42-.09-.84-.19-1.7-.22-2.06a3,3,0,0,0-1.85-3.08,2.78,2.78,0,0,0-3.6,1.8c-.29.84-.22,1.39.08,4.05.85,7.41,3.43,29.94-2.46,55.29-1.81,7.78-6.24,15.59-10.93,23.85-5.17,9.12-10.51,18.54-12.92,29s-1.79,21.38-1.2,32c.55,9.62,1.06,18.72-.74,26.5-.66,2.88-1.35,5.43-2.05,7.71-30.39,1.21-58.27,3.66-81,7.2-4.65.73-9.29,1.52-13.91,2.42-8.79,1.72-17.66,3.72-26,7-7,2.74-12.92,6.74-15.24,14.28-1.7,5.5-1.09,11.39-.64,17,.49,6,1.9,11.95,2.92,17.9q1.79,10.5,3.8,21c.07.38.86,4.6.89,4.59A68.41,68.41,0,0,0,18.7,310.76C-2,332-5.74,363.67,8.65,389.48a66,66,0,0,0,31.79,28.81c15.87,6.7,33.37,7.2,50.18,4.5a3.56,3.56,0,0,0,1.43-.54l.36,1.47A2.12,2.12,0,0,0,92.53,423.52ZM58.52,298q1.18,5.81,2.44,11.59a44.88,44.88,0,0,0-22.91,12.94c-13.66,14.47-15.46,37-4.71,53.7,10.43,16.22,31.35,23.4,49.65,17.88q1.58,5.16,3.21,10.3c1.19,3.72,2.39,7.45,3.63,11.18a4.35,4.35,0,0,0-1.3,0c-17,2.74-35.45,1.68-50.81-6.79C15.78,396.73,3,369.45,8.11,344.84,13.14,320.81,34.29,301.42,58.52,298ZM34.53,360c-4.32-19.6,8.83-39,28-43.19q7.92,35.44,18.33,70.29C60.63,392.94,39.14,380.9,34.53,360ZM183.59,207a58.18,58.18,0,0,1-7.37,12.2,56.34,56.34,0,0,0-9.12,16.6c-36.14,1.66-62.2,4.71-68.34,8.32C65.59,238.3,58,231.85,58,229.74c0-2.28,8.69-9.53,48.4-15.7C128.19,210.65,154.68,208.27,183.59,207Zm36.76-.93a57.83,57.83,0,0,1-7.76,13.13,56.26,56.26,0,0,0-8.72,15.48c-10.73.18-21,.47-30.62.86a51.64,51.64,0,0,1,7.41-12.67,61.5,61.5,0,0,0,9.19-16.12C199.79,206.43,210,206.2,220.35,206.11Zm36.26.26A58,58,0,0,1,249,219.24a56.4,56.4,0,0,0-8.65,15.3c-3.54,0-7.12,0-10.74,0q-10,0-19.56.13a52.77,52.77,0,0,1,7-11.72,61.67,61.67,0,0,0,9.46-16.84h3.83C239.2,206.07,248,206.17,256.61,206.37Zm35.73,1.44a59.58,59.58,0,0,1-7,11.43,56,56,0,0,0-8.91,16c-9.53-.31-19.59-.52-30-.64a53.26,53.26,0,0,1,7-11.68,61.72,61.72,0,0,0,9.29-16.38C272.84,206.82,282.75,207.25,292.34,207.81Zm110.25,21.93c0,2.14-7.73,8.71-41.89,14.62-5.95-4-36.5-7.36-78.3-8.92a51.64,51.64,0,0,1,7.36-12.53,62.48,62.48,0,0,0,8.63-14.72c20.6,1.35,39.53,3.32,55.8,5.85C393.9,220.21,402.59,227.46,402.59,229.74ZM115.74,469.82c5,6.64,11.44,11.26,17.17,17.26,2.84,3,7,5.23,10.49,7.31a107.48,107.48,0,0,0,24.75,10.54c22.75,6.57,47.71,8.95,71.33,8.36s47.76-5.55,67.85-18.68a113,113,0,0,0,12.08-9.15l.72.13c.81-.73,1.62-1.46,2.46-2.16,1.39-1.37,2.79-2.71,4.22-4l-.74-.17A133.59,133.59,0,0,0,335.26,469c14.76,1.56,28.53,3.47,41,5.69,18.9,3.36,33.68,7.26,43.94,11.59,8.85,3.73,14.14,7.87,14.14,11.07s-5.29,7.34-14.14,11.07c-10.26,4.33-25,8.22-43.94,11.59-39.21,7-91.39,10.84-146.92,10.84S121.61,527,82.4,520c-18.89-3.37-33.68-7.26-43.94-11.59-8.85-3.73-14.14-7.87-14.14-11.07s5.29-7.34,14.14-11.07c10.26-4.33,25-8.23,43.94-11.59C92.68,472.82,103.85,471.21,115.74,469.82Zm-29.45-90.4A1029.39,1029.39,0,0,1,55.53,238.07a43.11,43.11,0,0,0,11.34,5.78c9.09,3.35,22,6.34,38.43,8.89,33.42,5.19,77.82,8.06,125,8.06s91.59-2.87,125-8.06c31.4-4.89,45-10.4,50.74-15.37-.38,2.65-.77,5.29-1.19,7.93a764.75,764.75,0,0,1-39.53,150.18c-8.46,22.51-18.7,46.18-33.52,65.71q-2.68,3.54-5.58,6.88a121.9,121.9,0,0,1-9.12,9.48q-3.57,3.3-7.45,6.28a97.31,97.31,0,0,1-19.18,11.62c-21.4,9.74-45.6,11.41-68.78,10.17-22.82-1.22-47.17-4-68.06-13.89A82.4,82.4,0,0,1,142,485a85.24,85.24,0,0,1-7.72-6.07,92,92,0,0,1-9.7-10q-2.76-3.32-5.25-6.87C102.47,438,94.28,406.73,86.29,379.42Z"/><path d="M210.85,479.14a305.77,305.77,0,0,1-73.72-9l-.19-.06-1.17-.42-.51,1.13a1.4,1.4,0,0,1-1.33.73,1.52,1.52,0,0,1-1.6-1.48l-.08-1.93a2.22,2.22,0,0,1,0-.37v-.11l0-3.78-1.43.11c-3.67.29-7.58.58-11.47.58-6.78,0-12.14-.87-16.88-2.74-7.88-3.12-13.57-8.65-16-15.59a1.8,1.8,0,0,1,0-.19l-.21-.85-.87-.16c-5.71-1-11.36-2.23-16.79-3.66l-.24-.08-.38-.16-.41.09a10.94,10.94,0,0,1-2.14.21,10.16,10.16,0,0,1-10-7.1c-.48-1.7,0-2.88,0-4.48.06-2.45-.53-4.41,0-6.81a79.59,79.59,0,0,0,1.1-8.18q1-9.31,2.51-18.58,2.82-17.82,7.22-35.36A398.68,398.68,0,0,1,84,307c7.77-18.93,15.56-33.25,24.5-45.06A111.5,111.5,0,0,1,140,233.38c13-7.69,26.46-11.6,40-11.6a69.28,69.28,0,0,1,11.5,1l1.73.29-.17-1.74a81.14,81.14,0,0,0-13.7-37.88,1.27,1.27,0,0,1-.27-.82l.11-1.26-1.26-.18c-10.18-1.42-19-4.89-26.17-10.31-11.57-8.73-18-22.47-16.85-35.86l.07-.72-.56-.44a7.86,7.86,0,0,1,.94-13.19l1.62-.94-1.41-1.23c-.43-.38-1.11-1.27-.61-2l7-10.19-18.8-16.4a1.06,1.06,0,0,1-.38-.93,2,2,0,0,1,.85-1.47,376.18,376.18,0,0,1,79.47-42l1.87-.72-1.37-1.45a53.66,53.66,0,0,1-10.2-14.47,1.61,1.61,0,0,1,0-1.42l.53-1.06-1-.65a1.42,1.42,0,0,1-.59-1.7,1.59,1.59,0,0,1,1.34-1.22,1.49,1.49,0,0,1,.76.25l10.67,6.75-1.6-3.9a1.05,1.05,0,0,1,.07-1.05,1.88,1.88,0,0,1,1.52-.76c2,0,3.89,2.61,5.81,3.16.49.15-2.7-5.57-3.06-6.1-1-1.46-1.8-3.1-2.69-4.64a1.43,1.43,0,0,1,0-1.46,1.66,1.66,0,0,1,1.37-.85,1.36,1.36,0,0,1,.71.21l14.39,8.53-6.36-11.35a1.63,1.63,0,0,1,.13-1.59,1.55,1.55,0,0,1,1.19-.85,1,1,0,0,1,.63.24C224.69,15,232,21,239.57,26.34c.73-.73.29-2-.28-2.84-4.07-6.1-6.43-14.21-9.44-20.94a2.06,2.06,0,0,1,.23-1.89,1.27,1.27,0,0,1,1-.67,1.24,1.24,0,0,1,.72.28,116.06,116.06,0,0,1,32.73,35.45,113.74,113.74,0,0,1,11.09,89.21A95.91,95.91,0,0,1,257.3,160c-9.33,11-20.3,17.84-32.61,20.26l-.72.14-.27.68a66.44,66.44,0,0,0-4,34.88l.14.92.9.2a301.23,301.23,0,0,1,63.06,21c37.6,17.31,67.31,39.87,88.3,67A161.37,161.37,0,0,1,398,353.55a135.1,135.1,0,0,1,6,29.79c.48,5.44,1.26,11.46.69,16.9-.23,2.21-.58,3.47.53,5.6.93,1.77,2.38,3.26,2.75,5.3.48,2.68-1.39,6.17-3.15,8a12.14,12.14,0,0,1-8.8,3.74c-.32,0-.65,0-1,0l-1.14-.09-.27,1.12A52.63,52.63,0,0,1,368.9,457a50.7,50.7,0,0,1-25,6.51,54.32,54.32,0,0,1-21.36-4.42l-.5-.22-.5.19a318.66,318.66,0,0,1-79.83,18.51C231.46,478.63,221.09,479.14,210.85,479.14Zm-73.27-12a2.18,2.18,0,0,1,.43.05,299.68,299.68,0,0,0,58.31,8.53c4.75.22,9.58.33,14.35.33a313.86,313.86,0,0,0,88.2-12.67,304.19,304.19,0,0,0,93.22-45.5,1.22,1.22,0,0,1,.72-.28c.52,0,1.07.57,1.24,1.29l.22.93,1,.1a8.88,8.88,0,0,0,.9.05,8.64,8.64,0,0,0,7.28-4.12c.59-1,1.46-3,.39-3.7-.75-.51-2.58,1.08-2.48-1.1.48-10.25.85-22.19-.9-34a140.91,140.91,0,0,0-7.69-29.27c-12.05-31.83-35.84-60.69-68.81-83.46C294.55,244.06,259.65,229,223,220.74l-1.09-.24-.44,1a21.58,21.58,0,0,1-19.72,13.2,21.21,21.21,0,0,1-14.18-5.46,1.19,1.19,0,0,1-.48-.84,1.49,1.49,0,0,1,.45-1l1.88-2-2.72-.28a64,64,0,0,0-6.52-.33c-13.56,0-27.61,4.23-40.63,12.25-30,18.47-45.95,52.78-56.47,80.62A402.51,402.51,0,0,0,58.92,421.34l-.23,2.45,2.19-1.13a10,10,0,0,1,1.44-.63,1.76,1.76,0,0,1,.53-.1c.76,0,1.09.79,1.17,1.26A1.56,1.56,0,0,1,63,425a6.67,6.67,0,0,0-4.6,7.55,6.79,6.79,0,0,0,6.69,5.89,7.6,7.6,0,0,0,1.75-.21,2,2,0,0,1,.41-.05,1.31,1.31,0,0,1,.56.12l.41.18.43-.1a1.53,1.53,0,0,1,.3,0,1.72,1.72,0,0,1,.44.06,203.61,203.61,0,0,0,51.76,6.69c2.79,0,5.62-.06,8.41-.18,33.5-1.38,66.71-11.47,98.7-30q3.06-1.75,6.06-3.6c7.34-4.46,14.49-9.23,21.49-14.21,3.86-2.74,7.66-5.54,11.44-8.39,1-.77,2.06-1.56,3.08-2.34.48-.37,2.14-1.24,2.36-1.83.57-1.59-2.33-1.88-3.4-2.17l-6.09-1.57q-5.9-1.53-11.8-3c-7.6-1.9-15.22-3.71-22.87-5.36-24-5.15-45.12-7.66-64.59-7.66a201.88,201.88,0,0,0-20.28,1c-5.76.58-11.53.82-17,2.55-2.32.74-4.85,1.05-7.21,1.65a144.9,144.9,0,0,0-13.86,4.25A133.41,133.41,0,0,0,80.85,386.2a1.43,1.43,0,0,1-.75.24,1.61,1.61,0,0,1-1.38-1.25,1.38,1.38,0,0,1,.65-1.67,138.74,138.74,0,0,1,38.17-16.17c2.89-.76,5.79-1.68,8.7-2.3a.52.52,0,0,0-.19-.68,1.53,1.53,0,0,0-.77-.17c-10.9-.47-22-3.08-33-3.08a1.7,1.7,0,0,1-1.52-1.87A1.1,1.1,0,0,1,91.92,358h.17l31.23,2.69-21-15.93a1.72,1.72,0,0,1-.57-2c.21-.64.69-1.1,1.14-1.1a1.15,1.15,0,0,1,.71.29l25.81,19.54,9.45-40.29a1.18,1.18,0,0,1,1.24-1,1.9,1.9,0,0,1,1.45.67,1.45,1.45,0,0,1,.24,1.26l-9.89,42.13,2-.31a193,193,0,0,1,30-2.27c19.53,0,39,2.61,58.1,6.38,9.39,1.85,18.73,4,28,6.28,4.52,1.11,9,2.26,13.54,3.42,4.06,1,8.24,2.6,12.43,2.82,2.25.11,3.19-1.08,4.91-2.45,1.87-1.49,3.74-3,5.59-4.49q5.58-4.53,11.1-9.12c3.65-3,7.87-5.89,11.15-9.31,2.64-2.77,5-5.68,5.5-9.64.84-7.41-1.56-15.94-4.65-22.59a1.56,1.56,0,0,1,.09-1.58,1.92,1.92,0,0,1,1.5-.9c.26,0,.64.07.94.71a55.45,55.45,0,0,1,4.25,13.24,52.46,52.46,0,0,1,.81,6.85c.11,1.91-.38,4.42.41,6.16a.85.85,0,0,0,1.11.48,1.29,1.29,0,0,0,.45-.6c1.82-3.67,7-5.68,10.48-7.3s8-3.51,12.79-5.29c.5-.19,1.19-.48,2-.81,2.67-1.12,7.13-3,9.47-3a1.68,1.68,0,0,1,.69.1,1.94,1.94,0,0,1,1.16,1.73,2.18,2.18,0,0,1-1.28,2,35.36,35.36,0,0,1-8,2.53,45.35,45.35,0,0,0-11.61,4.22c-2.35,1.27-4.88,2.16-7.28,3.34-1.49.73-6.09,2.74-5.29,5,.73,2.1,6.05.25,7.69.09,2.77-.26,5.56-.4,8.34-.4a89.93,89.93,0,0,1,14.88,1.25,1,1,0,0,1,1,1.19,1.83,1.83,0,0,1-1.71,1.73l-.32,0a82,82,0,0,0-13.58-1.13c-1.59,0-3.19.18-4.76.22-1,0-2.58-.56-3.44.16a.66.66,0,0,0-.26.6.77.77,0,0,0,.19.31,4.11,4.11,0,0,0,1.87.95A56.85,56.85,0,0,1,342.56,359a1.16,1.16,0,0,1,.67,1.42,1.78,1.78,0,0,1-1.57,1.38,1.58,1.58,0,0,1-.75-.21c-1.75-.92-3.56-1.47-5.36-2.21a39.28,39.28,0,0,0-5.87-2.35c-1.25-.29-2.53-.48-3.8-.66l-4.41-.64a26.82,26.82,0,0,0-4.09-.38,10.83,10.83,0,0,0-6.46,2c-7.69,6-15,12.51-22.54,18.64-7.19,5.83-14.47,11.56-21.89,17.11-33,24.66-62,39.87-91.26,47.85a205.81,205.81,0,0,1-38.87,6.64l-1.26.09.26,20.2,1.77-.63A1.16,1.16,0,0,1,137.58,467.18ZM90.48,448c4.41,9,14.22,13.39,30,13.39,3.86,0,7.62-.25,10.47-.47l1.26-.1L132,447.88l-1.39.06c-3.15.14-6.35.22-9.51.22a209,209,0,0,1-29.26-2.07l-2.51-.36ZM387.74,424.7a301.16,301.16,0,0,1-45.45,25.78c-4.17,1.9-8.49,3.76-12.84,5.52l-3.55,1.44,3.68,1.09a48.78,48.78,0,0,0,14,2A48.05,48.05,0,0,0,368.09,454a48.91,48.91,0,0,0,21.7-27.77l1.15-3.7ZM183.3,183.85a83.38,83.38,0,0,1,13.17,43.28,1.19,1.19,0,0,1-.63,1.2l-2.72,1.48,2.94,1a18.22,18.22,0,0,0,5.78.93,18,18,0,0,0,15.66-8.92l.26-.45-.12-.52a70,70,0,0,1,2.68-40.38l.24-.63-.36-.56a2,2,0,0,1-.27-1.49l.69-2.34-2.35.67a129.11,129.11,0,0,1-19.86,4.15,83.9,83.9,0,0,1-10.08.62c-1.28,0-2.57,0-3.84-.09l-2.61-.13ZM137.76,137.1c-.43,8.51,2.5,16.83,8.49,24.06a47.37,47.37,0,0,0,21.31,14.46,65,65,0,0,0,20.52,3.18c14.3,0,28.2-4,38.71-7.56l.4-.14.25-.34a41,41,0,0,0,8-25.52,1.29,1.29,0,0,1,.38-1,1.71,1.71,0,0,1,1.18-.54c3.56-.09,7.28-.36,10.28-2.4,2.66-1.82,4.54-5.6,2.92-8.52a5.43,5.43,0,0,0-5.06-2.57,11.49,11.49,0,0,0-3.75.68,25.5,25.5,0,0,0-6.09,3.51c-.71.5-1.38,1-2.06,1.42A22.44,22.44,0,0,1,221,139.5a21.41,21.41,0,0,1-16-7.1,1.91,1.91,0,0,1-.36-1.8,1.14,1.14,0,0,1,.89-.8,39.58,39.58,0,0,0,24.51-16,39,39,0,0,0,6.32-27.38c-1.16-8-5-15.64-11.54-22.79-3.49-3.86-7.42-7.44-11.22-10.9-1.82-1.66-3.69-3.37-5.49-5.08l-.61-.58-.79.29A373.78,373.78,0,0,0,128.27,88l-1.44,1,20,17.45.69-.18a1.28,1.28,0,0,1,.38,0,1.14,1.14,0,0,1,1.05.71l1.38,2.64a1.46,1.46,0,0,1,0,1.51,1.6,1.6,0,0,1-2.47.33l-3.57-3.12-5.88,8.55,3.69,2.81a1.78,1.78,0,0,1,.67,2,1.29,1.29,0,0,1-1.29.93,2.18,2.18,0,0,1-.49-.06,6,6,0,0,0-1.37-.16,5.23,5.23,0,0,0,.21,10.46,1.5,1.5,0,0,1,1.46,1.62,1.32,1.32,0,0,1-1.35,1.44h-.05c-.19,0-.41,0-.67,0l-1.4-.14Zm107.11-9.88.68,0a8.71,8.71,0,0,1,7,3.87,8.31,8.31,0,0,1,.51,7.72c-1.84,4.59-6.2,7.14-13.34,7.81l-1.18.12,0,1.18a44.13,44.13,0,0,1-8.4,24.44l-.13.18-.07.21a1.41,1.41,0,0,1-.29.54l1.46,2.15c12.47-4.54,21.35-13.74,26.6-20.66a96.93,96.93,0,0,0,17.39-40,112.86,112.86,0,0,0-.12-43.61c-5-24.8-18.84-46.36-37.41-63.25-.64-.58-1.6-1.17-2.29-.64,2.76,8.07,7.21,15.94,10.71,23.75a2.14,2.14,0,0,1-.27,1.93,1.25,1.25,0,0,1-.94.67,1.16,1.16,0,0,1-.68-.29l-9-6.79c-2.08-1.58-4.25-3-6.36-4.55-1.18-.84-2.19-1.86-3.35-2.74-.58-.43-3.37-1.55-3.56-2,.52,1.35,8.31,11.41,4,11.38a1.42,1.42,0,0,1-.72-.21L210.81,20l9.45,16.28a1.32,1.32,0,0,1,.1,1.38,1.76,1.76,0,0,1-1.49.81c-2.43,0-5.08-4.77-6.4-6.36-.46-.55-1.06-1.15-1.75-1-.28,2.43,2.52,4.44,2.17,6.87-1.53-.29-16-9.48-16.34-8.24a.8.8,0,0,0,.15.57c4.32,7.57,11.84,13.78,18.21,19.59l.64.58c6,5.47,12.22,11.12,16.83,17.9a42,42,0,0,1,7.25,26.32A41.38,41.38,0,0,1,231,117.28a41.84,41.84,0,0,1-19.49,14l-2.69.93,2.43,1.48a19,19,0,0,0,9.94,2.83,18.28,18.28,0,0,0,5.55-.86,30.49,30.49,0,0,0,7.74-4.17C237.81,129.31,240.92,127.22,244.87,127.22Z"/><path d="M185.29,89.83A4.36,4.36,0,0,0,184.4,88a1.71,1.71,0,0,0-1.09-.62,2.27,2.27,0,0,0-1.3-.43c-2.9,0-4.55,3.54-3.16,5.75-.25,1-.51,2.08-.76,3.12A2.25,2.25,0,0,0,181.83,98l4.63-4.42A2.21,2.21,0,0,0,185.29,89.83Z"/><path d="M171.88,122.17a2.12,2.12,0,0,0-.78-1l.19.15a6.65,6.65,0,0,1-2.08-2.68,8.67,8.67,0,0,1-.46-1.75,1.85,1.85,0,0,0-.49-1.1,1.75,1.75,0,0,0-3,1.24,10.72,10.72,0,0,0,.76,3.07,27.53,27.53,0,0,1-25.49-1.58c-1.93-1.18-3.68,1.84-1.77,3A31.14,31.14,0,0,0,168,123a12.78,12.78,0,0,0,1.3,1.14,1.73,1.73,0,0,0,1.35.18,1.77,1.77,0,0,0,1-.8A1.82,1.82,0,0,0,171.88,122.17Z"/></g></g></svg>