<svg xmlns="http://www.w3.org/2000/svg" viewBox="0 0 514.42 311.06"><defs><style>.cls-1{font-size:71.96px;font-family:PPObjectSans-Bold, PP Object Sans;font-weight:700;}.cls-2{fill:#f9eb37;}.cls-3{letter-spacing:0em;}.cls-4{letter-spacing:-0.01em;}.cls-5{font-size:39.87px;fill:#4c4c4c;font-family:PPObjectSans-Regular, PP Object Sans;letter-spacing:-0.02em;}.cls-6{letter-spacing:-0.02em;}.cls-7{letter-spacing:-0.02em;}.cls-8{letter-spacing:-0.04em;}.cls-9{letter-spacing:-0.02em;}</style></defs><g id="Capa_2" data-name="Capa 2"><g id="TEXTOS"><text class="cls-1" transform="translate(0.31 117.88)">un <tspan class="cls-2" x="104.91" y="0">b</tspan><tspan x="151.83" y="0">an</tspan><tspan class="cls-3" x="236.6" y="0">c</tspan><tspan x="280.71" y="0">o</tspan><tspan x="0" y="86.01">en música</tspan><tspan x="0" y="172.02">pa</tspan><tspan class="cls-4" x="88.08" y="172.02">r</tspan><tspan x="117.58" y="172.02">a tus oídos</tspan></text><path d="M131.12,125.62a4.69,4.69,0,0,1-3.84-2,4.91,4.91,0,0,1-.37-.67L104.66,74.11a4.58,4.58,0,0,1,8.33-3.8l17.79,39c4.58-13.3,12.45-37.82,17.68-54.48a4.58,4.58,0,0,1,8.73,2.75C136,125,135.46,125,131.77,125.58A4.63,4.63,0,0,1,131.12,125.62Z"/><text class="cls-5" transform="translate(0 33.99)">Con una app que co<tspan class="cls-6" x="378.7" y="0">n</tspan><tspan class="cls-7" x="401.98" y="0">vier</tspan><tspan class="cls-8" x="470.88" y="0">t</tspan><tspan class="cls-9" x="484.92" y="0">e</tspan></text></g></g></svg>