<svg xmlns="http://www.w3.org/2000/svg" viewBox="0 0 731.79 199.35"><defs><style>.cls-1{fill:#f9eb37;}.cls-2{font-size:85px;font-family:PPObjectSans-Bold, PP Object Sans;font-weight:700;}.cls-3{letter-spacing:0em;}.cls-4{letter-spacing:0em;}.cls-5{letter-spacing:-0.01em;}.cls-6{letter-spacing:-0.01em;}.cls-7{letter-spacing:-0.03em;}.cls-8{letter-spacing:-0.01em;}</style></defs><g id="Capa_2" data-name="Capa 2"><g id="TEXTOS"><path class="cls-1" d="M6.81,94.17q34.38-4,69-6.11,34.38-2.06,68.85-2.15t69.21,1.78q34.39,1.86,68.65,5.68,8.55,1,17.1,2c3,.37,5.92.76,8.88,1.15,0,0,1.15.16.46.06s.44.06.46.07l2.05.28,4.44.62q17.06,2.4,34,5.3l8.49,1.48c3.49.62,7.5-.94,8.37-4.75.75-3.32-1-7.7-4.76-8.37q-34.63-6.15-69.6-10.33-34.54-4.14-69.29-6.29-34.55-2.15-69.19-2.31T84.71,74Q50,75.76,15.37,79.58c-2.86.32-5.71.64-8.56,1-3.52.41-7,2.83-6.8,6.8.15,3.33,3,7.25,6.8,6.81Z"/><text class="cls-2" transform="translate(17.72 72.76)"><tspan class="cls-3">t</tspan><tspan x="34.25" y="0">an </tspan><tspan class="cls-4" x="155.29" y="0">f</tspan><tspan x="188.19" y="0">ácil y </tspan><tspan class="cls-5" x="425.16" y="0">r</tspan><tspan x="460.01" y="0">ápido</tspan><tspan class="cls-3" x="0" y="101.6">c</tspan><tspan x="52.1" y="101.6">omo </tspan><tspan class="cls-6" x="260.01" y="101.6">t</tspan><tspan class="cls-7" x="292.9" y="101.6">e</tspan><tspan x="343.4" y="101.6">x</tspan><tspan class="cls-8" x="393.63" y="101.6">t</tspan><tspan x="426.52" y="101.6">ear</tspan></text></g></g></svg>