<svg xmlns="http://www.w3.org/2000/svg" viewBox="0 0 110.28 122.49"><defs><style>.cls-1{fill:#f9eb37;}</style></defs><g id="Capa_2" data-name="Capa 2"><g id="TEXTOS"><path class="cls-1" d="M3.15,46.79A9.9,9.9,0,0,1,0,39.13a9.75,9.75,0,0,1,3.15-7.52,11.79,11.79,0,0,1,8.3-2.9,11,11,0,0,1,7.92,2.9,10,10,0,0,1,3,7.52,10.13,10.13,0,0,1-3,7.66,11,11,0,0,1-7.92,2.9A11.79,11.79,0,0,1,3.15,46.79Zm0,49.67A9.9,9.9,0,0,1,0,88.8a9.75,9.75,0,0,1,3.15-7.53,11.79,11.79,0,0,1,8.3-2.89,11,11,0,0,1,7.92,2.89,10,10,0,0,1,3,7.53,10.13,10.13,0,0,1-3,7.66,11,11,0,0,1-7.92,2.89A11.79,11.79,0,0,1,3.15,96.46Z"/><path class="cls-1" d="M110.28,60.81a54.3,54.3,0,0,1-4.44,21.74q-4.44,10.29-15,17t-27.86,6.76H30.5v-.78l7-6.69V27l-7-6.69V19.5H62.67Q110.28,19.5,110.28,60.81ZM65,103.78q7.2,0,11.26-3.92T82,87.18q1.74-8.75,1.73-24.32,0-15-1.8-23.86T75.73,26q-4.44-4.18-12.54-4.18h-.65v82Z"/><path d="M92.66,92.06a26.39,26.39,0,0,0-4.4-10.37,28.47,28.47,0,0,0-4.78-5.17c-1-4.66-2-9.21-3.09-13.74C79.12,57.26,78,52.44,76.82,48.06c-1.35-5.27-2.68-10-4.06-14.58C71.23,28.4,69.67,23.74,68,19.22c-.89-2.4-1.81-4.77-2.74-7l-.38-.92c-.79-1.93-1.6-3.93-2.59-5.79A10.44,10.44,0,0,0,57.82.67a6.29,6.29,0,0,0-5.7,0A8.85,8.85,0,0,0,48.25,5a12.11,12.11,0,0,0-.7,6.79,40.8,40.8,0,0,0,1.68,6.59l.27.88L59.86,52.39c-.84-1.85-1.7-3.69-2.58-5.49A214.73,214.73,0,0,0,44.67,24.48c-2.1-3.25-4.57-6.32-8.39-6.82a6.1,6.1,0,0,0-4.81,1.27,6.2,6.2,0,0,0-2,4.27,14.13,14.13,0,0,0,.61,5.05c.49,1.83,1.14,3.64,1.77,5.39l.1.27c1.39,3.9,3,7.79,4.71,11.57a142.93,142.93,0,0,0,11,19.79,11.53,11.53,0,0,0-7.64-3h0a8.74,8.74,0,0,0-7.08,3.29,8,8,0,0,0-1.36,6.94l.12.38a8.71,8.71,0,0,0-.94-.42,8.21,8.21,0,0,0-5.08-.33A6.93,6.93,0,0,0,21.82,75c-1.9,2.76-2.05,6.44-2,9.35a76.55,76.55,0,0,0,9.66,35.23c.82,1.48,1.79,2.63,3.58,2.8.68.06,1.36.15,2,.15H74.56a20.13,20.13,0,0,0,5.4-.38,10.59,10.59,0,0,0,4.12-2.92,28.63,28.63,0,0,0,4.36-5.27,31,31,0,0,0,4.16-10.57A29.74,29.74,0,0,0,92.66,92.06ZM39.22,48.27c-1.78-3.64-3.43-7.4-4.89-11.16-.72-1.86-1.41-3.77-2.06-5.67l-.11-.31a35.21,35.21,0,0,1-1.39-4.87,8.79,8.79,0,0,1,.17-4.61,4.38,4.38,0,0,1,3.28-2.8,5.49,5.49,0,0,1,1.19-.13c3.17,0,5.72,2.63,7.37,5,1,1.49,2,3.08,3,4.61l.26.42c1.09,1.78,2.18,3.6,3.22,5.41,2.05,3.57,4,7.26,5.89,11A217.13,217.13,0,0,1,65,68.1l.45,1.23a28,28,0,0,0-7.28.52,22.35,22.35,0,0,0-5.91,2.09c-.18-.47-.74-1.57-2.09-4.27l-.25-.5a60.93,60.93,0,0,0-3.36-5.71c-.62-1-1.26-2-1.86-3C42.77,55.16,40.92,51.73,39.22,48.27Zm11.53,23c.2.4.38.82.57,1.27a15.75,15.75,0,0,0-3.63,3A10.38,10.38,0,0,0,45,80.72a8.56,8.56,0,0,0,1.18,5.82,12.6,12.6,0,0,0,6.59,5.1,7.27,7.27,0,0,1-3.19,3.53,5.17,5.17,0,0,1-6-.94,8.93,8.93,0,0,1-2.09-3A3.82,3.82,0,0,1,41.33,90a6.83,6.83,0,0,0-.09-1,16.36,16.36,0,0,0-.69-2.49l-.27-.7c-.67-1.79-1.37-3.63-2.15-5.35L38,80.08a20.15,20.15,0,0,0-2.4-4A12.39,12.39,0,0,0,34,74.45a4.06,4.06,0,0,1-1.11-1.7A5.81,5.81,0,0,1,32.42,71a6.79,6.79,0,0,1,.73-3.62,7.25,7.25,0,0,1,5.57-3.84A9.22,9.22,0,0,1,40,63.42a10.46,10.46,0,0,1,5.92,1.9A15.1,15.1,0,0,1,50.75,71.23Zm3.59-40.37c-.49-1.57-1-3.15-1.49-4.72-1-3.29-2.11-6.69-3.12-10-1.3-4.36-2.21-9.28.93-12.8a5.85,5.85,0,0,1,4.65-2.16,6.9,6.9,0,0,1,4.95,3.19A27.88,27.88,0,0,1,63,9.71c.11.28.23.56.35.83.94,2.23,1.88,4.58,2.8,7A280.29,280.29,0,0,1,75,45.6c2.57,9.69,4.78,19.51,6.82,28.74,0,.08.06.2.1.34a5.61,5.61,0,0,1,.21.81l-.21-.13A39.34,39.34,0,0,0,75,71.47a31.43,31.43,0,0,0-5.57-1.64c-.79-.15-1.6-.27-2.42-.36-.94-2.36-1.82-4.79-2.62-7.23-.18-.45-.36-.9-.55-1.35s-.35-.77-.52-1.17l0-.06Zm-8.88,90.63H34.24c-2.72,0-3.91-2.74-5-4.79q-1.28-2.49-2.37-5.06t-2-5.23c-.59-1.77-1.13-3.57-1.59-5.38-.08-.29-.15-.58-.22-.87a75.24,75.24,0,0,1-1.88-11.38c-.27-3.18-.58-6.77.22-10.06a8.45,8.45,0,0,1,1.84-3.8A5.64,5.64,0,0,1,27.17,73c3-.19,6.09,1.59,8.2,4.75a27.14,27.14,0,0,1,2.45,4.83l.07.16C39.18,85.9,41,90.19,40.15,93.5a6,6,0,0,1-2.47,3.76c-2.48,1.58-5.78.4-7.77-1.59-2.57-2.57-3-6.59-3.06-9.8,0-.92,0-1.85,0-2.73a.53.53,0,0,0-.26-.48.6.6,0,0,0-.61,0,.52.52,0,0,0-.27.47c0,3.79-.07,8.08,2,11.61a8.77,8.77,0,0,0,8,4.38c2.17-.23,4.9-1.89,5.65-5.81a9.26,9.26,0,0,0,.68.93,6.6,6.6,0,0,0,6.61,2.52A8.06,8.06,0,0,0,53.91,92a26.14,26.14,0,0,0,3.86.89c.6.1,1.22.19,2,.28-.61.52-1.21,1.07-1.76,1.63a26.33,26.33,0,0,0-7.55,17.62,27.05,27.05,0,0,0,1.22,9H45.46Zm33.56,0c-.2,0-.4,0-.6,0H52.87a25.92,25.92,0,0,1,.34-17.14A25,25,0,0,1,58.44,96,26.19,26.19,0,0,1,65,91a25.43,25.43,0,0,1,9.62-3,.57.57,0,0,0,.48-.34.64.64,0,0,0,0-.6.52.52,0,0,0-.47-.2A26.9,26.9,0,0,0,61,92.22l-.22,0-.11,0-.5-.06-1-.12c-.74-.1-1.34-.19-1.91-.29-1.1-.19-2.2-.49-3.26-.77l-.32-.09a11.39,11.39,0,0,1-2.34-1.06l-.1,0a12,12,0,0,1-2.48-1.81,8.52,8.52,0,0,1-2.68-5,8,8,0,0,1,1.3-5.15,12.48,12.48,0,0,1,4.85-4.41c.3-.15.58-.31.86-.46a11.38,11.38,0,0,1,1.15-.6,20.8,20.8,0,0,1,2.55-.89A26.51,26.51,0,0,1,67,70.6a30.19,30.19,0,0,1,10.6,3.32A28.6,28.6,0,0,1,86,80.63a26.64,26.64,0,0,1,5.85,20.13,28.83,28.83,0,0,1-9.71,18.72q-.57.48-1.17.93l-.62.45a6.58,6.58,0,0,1-.54.38,1.82,1.82,0,0,1-.3.11l-.27.08A.79.79,0,0,1,79,121.48Z"/></g></g></svg>