<svg xmlns="http://www.w3.org/2000/svg" viewBox="0 0 33.57 33.57"><defs><style>.cls-1{fill:#f1e337;}</style></defs><g id="Capa_2" data-name="Capa 2"><g id="Capa_1-2" data-name="Capa 1"><rect class="cls-1" width="33.57" height="33.57"/><path d="M17.15,26.39a10.45,10.45,0,0,0,10.5-5.12,10.73,10.73,0,0,0-1.2-11.39c-.44-.58-1.26.13-.82.71a9.56,9.56,0,0,1,.93,10.28,9.44,9.44,0,0,1-9.39,4.42c-.73-.09-.75,1,0,1.1Z"/><path d="M10.06,20.82a6.87,6.87,0,0,0,6.56,4,7.05,7.05,0,0,0,5.84-4.72c.16-.45-.52-.65-.68-.2A6.3,6.3,0,0,1,16.45,24a6.19,6.19,0,0,1-5.77-3.6c-.21-.43-.82-.05-.62.38Z"/><ellipse cx="16.25" cy="26.09" rx="3.94" ry="2.84"/><path d="M22.58,9a4,4,0,0,0-.09-1.42,1.17,1.17,0,0,0-.93-.89c-.6,0-1,.63-1.23,1.25a6.11,6.11,0,0,0-.22,2.85,2.41,2.41,0,0,0,.73,1.5c1.06.85,1.53-.54,1.58-1.47C22.45,10.25,22.58,9.66,22.58,9Z"/><path d="M11.67,7c-.66-.52-1.31.13-1.56.84a8.35,8.35,0,0,0-.18,2.45A3.75,3.75,0,0,0,10,11.66a1.15,1.15,0,0,0,.92.89c.6,0,1-.63,1.23-1.25a5.94,5.94,0,0,0,.22-2.84A2.35,2.35,0,0,0,11.67,7Z"/></g></g></svg>