<svg xmlns="http://www.w3.org/2000/svg" viewBox="0 0 29.78 29.78"><defs><style>.cls-1{stroke:#000;stroke-miterlimit:10;stroke-width:0.5px;}</style></defs><g id="Capa_2" data-name="Capa 2"><g id="Capa_1-2" data-name="Capa 1"><g id="Eh63tE"><path class="cls-1" d="M14.89,29.53a14.07,14.07,0,0,1-4.06-.59,15,15,0,0,1-4.5-2.18A14,14,0,0,1,3.82,24.5a14.81,14.81,0,0,1-2.44-4A14.46,14.46,0,0,1,.28,14a14.82,14.82,0,0,1,.34-2.34A15.71,15.71,0,0,1,2.55,7,14.07,14.07,0,0,1,9.6,1.27a14.38,14.38,0,0,1,4.65-1,14,14,0,0,1,3.84.36,14.94,14.94,0,0,1,5.69,2.65,12.6,12.6,0,0,1,1.61,1.4,15.69,15.69,0,0,1,2,2.75,14.38,14.38,0,0,1,1.66,3.93A13.75,13.75,0,0,1,29.5,14c0,.1,0,.2,0,.3v1a14.12,14.12,0,0,1-.21,2,14.76,14.76,0,0,1-1.46,4.25A13.85,13.85,0,0,1,24,26.39a15.1,15.1,0,0,1-7.9,3.09A11.52,11.52,0,0,1,14.89,29.53Zm0-28.43h-.61a13.83,13.83,0,0,0-4.38,1A13.41,13.41,0,0,0,5.14,5.12,13.58,13.58,0,0,0,3.27,7.49a14.34,14.34,0,0,0-1.82,4.36A12,12,0,0,0,1.13,14a13.63,13.63,0,0,0,1,6.1A14.26,14.26,0,0,0,4.47,24a13,13,0,0,0,2.36,2.12,14.52,14.52,0,0,0,4.24,2.06,13.15,13.15,0,0,0,2.47.48,12.58,12.58,0,0,0,2.45,0,14.16,14.16,0,0,0,7.46-2.93,13.09,13.09,0,0,0,3.65-4.46,14.24,14.24,0,0,0,1.37-4,12.51,12.51,0,0,0,.2-1.91c0-.05,0-.09,0-.12V14.4c0-.11,0-.21,0-.32a12.87,12.87,0,0,0-.39-2.52,13.36,13.36,0,0,0-1.57-3.7,15,15,0,0,0-1.92-2.61A12.56,12.56,0,0,0,23.27,4a14.23,14.23,0,0,0-5.38-2.51A12.93,12.93,0,0,0,14.9,1.1Zm3.91,21.57a1.45,1.45,0,0,1-.35,0,2.31,2.31,0,0,1-.65-.32l-2.58-1.92L14.7,20l-.62.59-.24.24-.56.54a1.76,1.76,0,0,1-.84.46l-.14,0h0l-.51.06,0-.6a1.34,1.34,0,0,0,0-.2c.07-.83.13-1.66.2-2.5l0-.37c0-.14,0-.29,0-.44a.54.54,0,0,1,.18-.36l1.83-1.68.83-.76,1.79-1.63-4,2.5-1.51,1-.13.09-.28.18a.57.57,0,0,1-.49.06l-2.06-.63-1.33-.41-.08,0A2,2,0,0,1,6.49,16a.77.77,0,0,1-.45-.5.81.81,0,0,1,.12-.67,1.2,1.2,0,0,1,.56-.45l1.07-.43,4.35-1.68,2.19-.85L16,10.74l4.69-1.8a1.49,1.49,0,0,1,.4-.11,1.09,1.09,0,0,1,1.17.8,1.79,1.79,0,0,1,0,.86c-.13.57-.25,1.15-.37,1.72s-.27,1.29-.41,1.93l-.72,3.39-.26,1.2-.15.71c-.14.68-.29,1.38-.44,2.07a2.28,2.28,0,0,1-.18.54A1,1,0,0,1,18.81,22.67Zm-4.19-3.78.3.21,0,0,.78.57,2.58,1.91a1,1,0,0,0,.37.19c.17,0,.21,0,.27-.12a1.9,1.9,0,0,0,.12-.36c.15-.69.3-1.39.44-2.07l.15-.7.26-1.21L20.65,14c.13-.64.27-1.28.41-1.92l.36-1.73a.85.85,0,0,0,0-.44.23.23,0,0,0-.26-.19.53.53,0,0,0-.2.05L16.3,11.54l-1.67.64L12.45,13,8.09,14.7l-1,.42a.39.39,0,0,0-.14.1l.18.06.09,0,1.33.41,1.94.59.19-.12.13-.08,1.51-1,6.1-3.84,0,0,.22-.13a.79.79,0,0,1,.62,0,.54.54,0,0,1,.33.33.52.52,0,0,1-.06.45,1,1,0,0,1-.2.22L15.5,15.63l-.83.76L12.91,18c0,.11,0,.21,0,.32l0,.37c-.06.69-.11,1.38-.16,2.07h0l.55-.52.24-.24Z"/></g></g></g></svg>