<svg xmlns="http://www.w3.org/2000/svg" viewBox="0 0 33.57 27.67"><g id="Capa_2" data-name="Capa 2"><g id="TEXTOS"><path d="M11,27.67H10.1a16.83,16.83,0,0,1-1.74-.15A21.27,21.27,0,0,1,6,27.05,19.44,19.44,0,0,1,2.9,26,21.82,21.82,0,0,1,.51,24.69L.37,24.6a1,1,0,0,1-.29-.39.87.87,0,0,1,.09-.88A.88.88,0,0,1,1,23,12.09,12.09,0,0,0,5.7,22.6a12.11,12.11,0,0,0,2.48-1,7.41,7.41,0,0,1-1.08-.48,7.62,7.62,0,0,1-1.67-1.24,7.73,7.73,0,0,1-1.46-2c-.12-.25-.23-.52-.34-.82,0,0,0-.06,0-.08A1,1,0,0,1,3.77,16,1.44,1.44,0,0,1,4,15.85l-.31-.26a7.39,7.39,0,0,1-1.39-1.7,7.3,7.3,0,0,1-1-2.93,6.86,6.86,0,0,1-.06-.82c0-.07,0-.13,0-.19a.92.92,0,0,1,.44-.68.9.9,0,0,1,.64-.12l0-.05a7.36,7.36,0,0,1-.91-2.54,7.49,7.49,0,0,1-.1-1.37,7.54,7.54,0,0,1,.88-3.33l.06-.11,0,0A1,1,0,0,1,3,1.23a.92.92,0,0,1,.81.34l.2.24L4.13,2c.1.1.19.21.28.31l.17.18c.2.21.38.41.58.59A17.32,17.32,0,0,0,7.42,4.91,17.82,17.82,0,0,0,9.33,6.05,18.06,18.06,0,0,0,11.6,7a16.73,16.73,0,0,0,3.08.78c.27,0,.55.09.82.12a7.38,7.38,0,0,1,0-1.15,7,7,0,0,1,.34-1.69,7.31,7.31,0,0,1,1.41-2.49A7.39,7.39,0,0,1,21.83.08,7.07,7.07,0,0,1,23.45,0,7.44,7.44,0,0,1,25.87.6a7.59,7.59,0,0,1,1.6,1A5.78,5.78,0,0,1,28,2a12.27,12.27,0,0,0,2.14-.73A9.33,9.33,0,0,0,31.25.67,1.17,1.17,0,0,1,31.81.5a.89.89,0,0,1,.89.83,4.67,4.67,0,0,1-.82,2l.45-.19a.94.94,0,0,1,.7,0,.89.89,0,0,1,.48.51,1,1,0,0,1-.15.93,15.44,15.44,0,0,1-1.17,1.49c-.29.31-.59.62-.9.9s-.62.56-.93.8v1c0,.39,0,.76-.07,1.12v.06a19,19,0,0,1-.35,2.3c-.12.55-.27,1.11-.44,1.67a22.19,22.19,0,0,1-.81,2.19,20.39,20.39,0,0,1-1,2,19.56,19.56,0,0,1-1.43,2.15c-.32.42-.68.85-1.11,1.32a13.78,13.78,0,0,1-1,1,17.35,17.35,0,0,1-2,1.65,17.7,17.7,0,0,1-2.22,1.34,17.59,17.59,0,0,1-2.2.95,18.07,18.07,0,0,1-2.64.73,18.09,18.09,0,0,1-1.93.29c-.35,0-.7.06-1.05.08S11.35,27.67,11,27.67Zm-6.63-3a17,17,0,0,0,2,.66,17.55,17.55,0,0,0,2.18.42,13.44,13.44,0,0,0,1.56.13,17.71,17.71,0,0,0,1.78,0l1-.08a15,15,0,0,0,1.74-.26,17.72,17.72,0,0,0,2.4-.66,17.32,17.32,0,0,0,2-.86,19.13,19.13,0,0,0,2-1.21,16.93,16.93,0,0,0,1.82-1.49c.34-.32.64-.62.91-.93s.72-.82,1-1.2a15.66,15.66,0,0,0,1.31-2,17.87,17.87,0,0,0,.94-1.85,19.94,19.94,0,0,0,.74-2c.16-.51.29-1,.4-1.52a15.66,15.66,0,0,0,.32-2.09V9.7c0-.34.06-.66.06-1s0-.85,0-1.21a1.15,1.15,0,0,1,.5-1,9.73,9.73,0,0,0,1-.83,3.92,3.92,0,0,1-1.18.12.87.87,0,0,1-.73-.69.9.9,0,0,1,.4-.93,5.93,5.93,0,0,0,1.07-.86A15.1,15.1,0,0,1,28,3.78a1.13,1.13,0,0,1-1.08-.34A4,4,0,0,0,26.39,3a5.59,5.59,0,0,0-1.22-.72,5.46,5.46,0,0,0-1.83-.45,6,6,0,0,0-1.23,0A5.65,5.65,0,0,0,18.6,3.76a5.59,5.59,0,0,0-1.06,1.89,5.2,5.2,0,0,0-.26,1.28,5.33,5.33,0,0,0,0,1.2,3.5,3.5,0,0,0,.07.45v.07a.93.93,0,0,1-.23.84,1,1,0,0,1-.83.29l-.23,0h-.2q-.73-.06-1.5-.18A19.23,19.23,0,0,1,11,8.71a20.26,20.26,0,0,1-2.5-1.09A19,19,0,0,1,6.42,6.36a20.4,20.4,0,0,1-2.48-2c-.22-.21-.43-.43-.63-.65a6.21,6.21,0,0,0-.26,1.56,5.42,5.42,0,0,0,.08,1,5.62,5.62,0,0,0,.69,1.94,5.68,5.68,0,0,0,1.3,1.53L5.4,10l.15.12a.87.87,0,0,1,.34.78.89.89,0,0,1-.48.7,1.11,1.11,0,0,1-.58.12c-.2,0-.39,0-.56-.06a7,7,0,0,1-1.12-.24,5.65,5.65,0,0,0,1.71,2.89,5.82,5.82,0,0,0,1.22.85,6,6,0,0,0,1.26.46,1.07,1.07,0,0,1,.53.27.86.86,0,0,1,.28.67.88.88,0,0,1-.31.64.75.75,0,0,1-.33.19l-.15,0a6.48,6.48,0,0,1-1.52.2h0a5.63,5.63,0,0,0,.84,1,5.43,5.43,0,0,0,1.27.94,5.5,5.5,0,0,0,2.45.68.93.93,0,0,1,.92.69.87.87,0,0,1-.31.94,14,14,0,0,1-4.83,2.43A15.19,15.19,0,0,1,4.39,24.68ZM10.45,22h0Zm0,0ZM7,17.31H7ZM16.54,8ZM2.44,2.71h0Zm29.75-.54Z"/></g></g></svg>