<svg xmlns="http://www.w3.org/2000/svg" viewBox="0 0 42.82 35.3"><defs><style>.cls-1{fill:#f9eb37;}</style></defs><g id="Capa_2" data-name="Capa 2"><g id="TEXTOS"><path class="cls-1" d="M14.06,35.3l-1.17,0a21.43,21.43,0,0,1-2.23-.19A25.9,25.9,0,0,1,7.6,34.5a25.49,25.49,0,0,1-3.91-1.38,24.64,24.64,0,0,1-3-1.63l-.17-.12a1.07,1.07,0,0,1-.38-.49A1.12,1.12,0,0,1,1.26,29.3a15.45,15.45,0,0,0,6-.47,15.22,15.22,0,0,0,3.17-1.27A9.46,9.46,0,0,1,9.05,27a9.14,9.14,0,0,1-2.12-1.58,9.42,9.42,0,0,1-1.87-2.58,10.83,10.83,0,0,1-.43-1.05l0-.1a1.2,1.2,0,0,1,.22-1.18,1.13,1.13,0,0,1,.28-.24l-.39-.34a9,9,0,0,1-1.78-2.16A9.41,9.41,0,0,1,1.64,14a8.4,8.4,0,0,1-.07-1.05,1.79,1.79,0,0,1,0-.24,1.16,1.16,0,0,1,.56-.87A1.15,1.15,0,0,1,3,11.67l0-.06A9.51,9.51,0,0,1,1.77,8.36a9.86,9.86,0,0,1-.13-1.74A9.68,9.68,0,0,1,2.77,2.37c0-.05,0-.1.08-.14l0,0a1.17,1.17,0,0,1,.94-.62,1.18,1.18,0,0,1,1,.44l.25.29.17.21.36.4.21.23c.25.27.49.52.74.76A23.22,23.22,0,0,0,9.46,6.26a24.82,24.82,0,0,0,2.43,1.46A22.58,22.58,0,0,0,14.8,9a22.06,22.06,0,0,0,3.92,1c.36.06.71.1,1.06.14a10.17,10.17,0,0,1,0-1.46A9.48,9.48,0,0,1,27.85.1,9.85,9.85,0,0,1,29.92,0,9.33,9.33,0,0,1,33,.77,9.21,9.21,0,0,1,35,2a7.81,7.81,0,0,1,.64.54,15.38,15.38,0,0,0,2.73-.92A15,15,0,0,0,39.86.86a1.35,1.35,0,0,1,.71-.22A1.12,1.12,0,0,1,41.7,1.7a5.72,5.72,0,0,1-1,2.56L41.24,4a1.15,1.15,0,0,1,.89,0,1.09,1.09,0,0,1,.61.65,1.21,1.21,0,0,1-.18,1.18,17.72,17.72,0,0,1-1.5,1.9c-.37.4-.75.79-1.14,1.16a15,15,0,0,1-1.2,1c0,.37,0,.77,0,1.23s0,1-.08,1.42v.08a22.76,22.76,0,0,1-.46,2.94c-.15.7-.33,1.41-.56,2.13a24,24,0,0,1-1,2.79,26.22,26.22,0,0,1-1.31,2.59,25.12,25.12,0,0,1-1.83,2.74c-.41.54-.87,1.09-1.41,1.69-.39.43-.81.85-1.28,1.3a23.42,23.42,0,0,1-2.59,2.11,23.65,23.65,0,0,1-2.83,1.71,24.63,24.63,0,0,1-2.8,1.21,25.4,25.4,0,0,1-3.37.93c-.88.17-1.68.29-2.46.37l-1.34.1C14.92,35.29,14.48,35.3,14.06,35.3ZM5.6,31.48a22.06,22.06,0,0,0,2.57.84,23,23,0,0,0,2.79.54c.74.09,1.39.15,2,.17s1.49,0,2.26,0l1.28-.1a19.59,19.59,0,0,0,2.22-.33,22.3,22.3,0,0,0,3.06-.85,20.88,20.88,0,0,0,2.54-1.09,21.28,21.28,0,0,0,2.56-1.55,19.75,19.75,0,0,0,2.33-1.9c.43-.41.81-.79,1.16-1.18.5-.55.92-1.05,1.29-1.53A22.31,22.31,0,0,0,33.32,22a22.91,22.91,0,0,0,1.2-2.37,23.49,23.49,0,0,0,.94-2.54c.2-.66.37-1.31.51-1.94a22,22,0,0,0,.41-2.67v-.08c0-.43.08-.84.08-1.24,0-.6,0-1.09,0-1.55a1.45,1.45,0,0,1,.63-1.26,14,14,0,0,0,1.28-1.06,5.38,5.38,0,0,1-1.51.16,1.15,1.15,0,0,1-.93-.89,1.12,1.12,0,0,1,.51-1.18,7.76,7.76,0,0,0,1.38-1.1,19,19,0,0,1-2.09.57,1.4,1.4,0,0,1-1.38-.44,5.83,5.83,0,0,0-.7-.62,7.44,7.44,0,0,0-1.56-.92,6.92,6.92,0,0,0-2.33-.57,7.25,7.25,0,0,0-7.4,4.94A7,7,0,0,0,22,8.84a7.08,7.08,0,0,0,0,1.53c0,.19.06.38.1.57V11a1.19,1.19,0,0,1-.29,1.08,1.23,1.23,0,0,1-1.06.36l-.3,0-.26,0a18.54,18.54,0,0,1-1.9-.23A24,24,0,0,1,14,11.1a25.55,25.55,0,0,1-3.19-1.38,28.41,28.41,0,0,1-2.66-1.6A26.12,26.12,0,0,1,5,5.53c-.29-.27-.55-.55-.8-.82a7.34,7.34,0,0,0-.33,2A6.15,6.15,0,0,0,4,8a7.21,7.21,0,0,0,.88,2.48,7.05,7.05,0,0,0,1.65,1.94c.12.1.23.19.36.28l.19.15a1.14,1.14,0,0,1,.43,1,1.11,1.11,0,0,1-.61.89,1.29,1.29,0,0,1-.74.15,6.83,6.83,0,0,1-.71-.07A9.56,9.56,0,0,1,4,14.51a7.3,7.3,0,0,0,.83,2,7.28,7.28,0,0,0,2.91,2.72,6.65,6.65,0,0,0,1.61.6,1.35,1.35,0,0,1,.67.33,1.13,1.13,0,0,1,.36.87,1.15,1.15,0,0,1-.4.81,1.2,1.2,0,0,1-.42.24l-.2.06a9.13,9.13,0,0,1-1.93.24h0a7.32,7.32,0,0,0,1.07,1.34A7.66,7.66,0,0,0,10.12,25a7.36,7.36,0,0,0,3.13.87,1.16,1.16,0,0,1,1.18.87,1.13,1.13,0,0,1-.39,1.2A18,18,0,0,1,7.88,31,18.13,18.13,0,0,1,5.6,31.48Zm7.73-3.39h0Zm0,0Zm-4.41-6h0ZM21.09,10.23Zm-18-6.78Zm37.94-.68Z"/></g></g></svg>