<svg width="54" height="75" viewBox="0 0 54 75" fill="none" xmlns="http://www.w3.org/2000/svg">
<path d="M27.1198 74.6198C26.3661 74.6195 25.6236 74.4376 24.9552 74.0894C24.2867 73.7413 23.712 73.2372 23.2798 72.6198C23.1392 72.4064 23.0155 72.1824 22.9098 71.9498L0.659777 23.1098C0.198566 22.012 0.183004 20.7778 0.616396 19.6688C1.04979 18.5597 1.89806 17.6631 2.98138 17.1689C4.0647 16.6747 5.29788 16.6218 6.41952 17.0215C7.54116 17.4211 8.46305 18.2419 8.98977 19.3098L26.7798 58.3098C31.3598 45.0098 39.2298 20.4898 44.4598 3.8298C44.8595 2.71591 45.675 1.79999 46.7351 1.27404C47.7953 0.748083 49.0179 0.652918 50.1466 1.00849C51.2754 1.36406 52.2227 2.14276 52.79 3.18138C53.3574 4.22 53.5006 5.43789 53.1898 6.5798C31.9998 73.9998 31.4598 73.9998 27.7698 74.5798C27.5543 74.6084 27.3371 74.6217 27.1198 74.6198Z" fill="black"/>
</svg>
