<svg xmlns="http://www.w3.org/2000/svg" viewBox="0 0 463.84 408.15"><g id="Capa_2" data-name="Capa 2"><g id="Capa_1-2" data-name="Capa 1"><g id="LExz4q"><path d="M68.08,408.15c-12.73,0-18.65-4.48-21-15.76q-16.35-79-32.47-158.06Q7.47,199.43.33,164.51c-2.14-10.34,6.51-23.2,17-25.24Q120,119.16,222.72,99,310.15,82,397.62,65.08a107,107,0,0,1,12.21-1.68c4.23-.3,6.67,1.86,7.53,6.17,3.81,19.09,8,38.11,11.59,57.23Q443.8,205.35,458.26,284c1.86,10.05,3.34,20.19,4.71,30.33,1.12,8.35-1.16,9.3-7.17,10.71-32.11,7.55-64.15,15.39-96.17,23.3-77.69,19.19-156.16,34.73-234.7,49.91-17.17,3.32-34.41,6.25-51.63,9.32C71.19,407.93,69,408,68.08,408.15Zm-2.79-16.9L453,312.68c-10.25-53.91-20.41-107.32-30.63-161.08-130.74,21-260.26,45-389.58,72.23C43.59,279.47,54.3,334.65,65.29,391.25ZM408.11,74.14,17.93,149.47l5.76,28.44c129.57-27.24,259.23-51.23,390-72.3C411.82,95,410.05,85,408.11,74.14Z"/><path d="M407.49,32.5c-4.88.14-7.67-2.91-6.49-6.51,2.63-8,5.47-15.9,8.88-23.56.69-1.53,4.77-2.92,6.44-2.26s3.53,4.4,3,6.11C417,14.15,414,21.85,410.89,29.47,410.27,31,408.17,31.92,407.49,32.5Z"/><path d="M423,46.32c.56-.71,1.44-2.62,2.93-3.55,6.27-3.92,12.72-7.57,19.12-11.29,3-1.75,5.82-1.36,7.72,1.64s.8,5.82-2.09,7.58c-6.47,3.93-13,7.81-19.62,11.41C427.13,54.25,423,51.72,423,46.32Z"/><path d="M449.92,75.14c-3.6-.28-7.21-.45-10.79-.88-3.24-.39-5.14-2.46-4.9-5.69s2.43-5,5.69-4.9a171.41,171.41,0,0,1,19.13,1.44c1.84.29,4.2,3,4.66,5,.75,3.22-1.81,5.22-4.95,5.4a71,71,0,0,1-8.83-.53Z"/><path d="M69.09,338.48c-1.5-1.85-3.83-3.5-4.32-5.58-.78-3.4,1.57-5.41,5-6.12,10.32-2.15,20.64-4.35,31-6.53q46.45-9.81,92.9-19.65c3.79-.81,6.8-.18,7.71,3.87s-1.66,6-5.37,6.76L72.06,337.43c-.64.14-1.3.18-2,.27Z"/><path d="M77.87,300c-10.9.06-17.52-4.74-19.41-12.51q-3.27-13.45-5.73-27.1a15.86,15.86,0,0,1,11.79-17.76c11.39-2.69,22.9-5,34.46-6.7,8.18-1.22,15.84,5,17.54,13.52,1.77,8.89,3.29,17.85,4.65,26.82,1.14,7.57-3.46,15.66-10.82,17.41C98.66,296.49,86.75,298.33,77.87,300ZM99,242.68c-10.32,2.15-20.67,4.14-30.92,6.52-6.67,1.54-9,5.24-7.81,12.05,1.47,8.1,3.21,16.16,5.11,24.18a9.12,9.12,0,0,0,10.74,7.28c9.76-1.58,19.51-3.24,29.21-5.13,6.78-1.33,9.37-4.81,8.42-11.6-1.16-8.32-2.67-16.6-4.32-24.84C108.33,245.62,104.73,243.1,99,242.68Z"/><path d="M74.19,368.3c-1.47-1.85-3.7-3.5-4.22-5.57-.86-3.47,1.57-5.45,4.9-6.15,10.81-2.29,21.58-4.78,32.44-6.78,19.79-3.64,39.63-7,59.44-10.51,3.72-.66,6.85-.19,7.72,3.93.93,4.45-1.95,6-5.88,6.78q-45.69,8.55-91.37,17.25c-.65.13-1.31.16-2,.24Z"/><path d="M424.06,285.34c3.67.42,6.06,2,6.44,5.48s-1.84,5.49-5.2,6.06Q395.57,302,365.82,307c-3.23.55-6.13,0-7.09-3.62-.9-3.43.6-6.09,4.06-6.74C383.19,292.74,403.63,289.07,424.06,285.34Z"/><path d="M378.78,283c-1.32,0-3,.53-3.87-.11-1.91-1.44-4.66-3.45-4.67-5.24s2.86-5.11,4.53-5.15a63.41,63.41,0,0,0,25.2-6.19c1.51-.69,5.17.91,6.39,2.53,2.18,2.92.3,5.64-2.61,7.29A54.55,54.55,0,0,1,378.78,283Z"/><path d="M105.88,267.11c-3.38,2.55-5.17,4.63-7.42,5.46a102.59,102.59,0,0,1-15.87,4.56,8.52,8.52,0,0,1-6.7-1.81c-2.22-2.24-1.53-5.26,1.22-7.21,6.41-4.55,13.6-6.82,21.41-5.93C100.6,262.42,102.45,264.73,105.88,267.11Z"/></g></g></g></svg>