<svg width="311" height="107" viewBox="0 0 311 107" fill="none" xmlns="http://www.w3.org/2000/svg">
<path d="M157 84.3403L157.53 85.0103L154.53 89.1903C151.447 93.8716 147.979 98.287 144.16 102.39C143.027 103.625 141.655 104.617 140.126 105.305C138.598 105.992 136.946 106.362 135.27 106.39C133.829 106.457 132.392 106.187 131.073 105.602C129.753 105.017 128.589 104.133 127.67 103.02C125.82 100.78 124.91 96.9203 124.91 91.4403C124.91 89.7403 124.91 88.4403 125.04 87.5303H124.37C122.207 92.7149 119.051 97.4266 115.08 101.4C111.402 104.844 106.506 106.686 101.47 106.52C96.8034 106.52 93.0567 105.24 90.23 102.68C87.4034 100.12 85.9934 96.6103 86 92.1503C85.947 89.4709 86.487 86.813 87.5813 84.3668C88.6757 81.9206 90.2973 79.7465 92.33 78.0003C96.55 74.2336 102.25 70.6869 109.43 67.3603L124.24 60.9003C124.327 54.2336 123.43 48.9003 121.55 44.9003C119.67 40.9003 117.153 38.9336 114 39.0003C113.1 38.965 112.205 39.1422 111.387 39.5175C110.569 39.8927 109.85 40.4556 109.29 41.1603C108.117 42.5869 107.53 44.7836 107.53 47.7503C107.699 52.1924 108.532 56.5843 110 60.7803L85.09 67.7803L84.68 67.1103C89.44 56.8703 94.9167 49.0803 101.11 43.7403C107.303 38.4003 112.803 34.9669 117.61 33.4403C122.41 31.9203 125.977 31.1569 128.31 31.1503C133.79 31.1503 138.01 32.0269 140.97 33.7803C143.834 35.4146 145.992 38.0503 147.03 41.1803C148.206 45.0409 148.753 49.0657 148.65 53.1003C148.65 56.4336 148.513 59.9369 148.24 63.6103L147 87.4403V89.4403L157 84.3403ZM119.56 88.4503C121.451 87.0109 122.973 85.143 124 83.0003L124.27 63.8803C118.71 67.6469 114.74 71.0136 112.36 73.9803C109.98 76.9469 108.79 79.9103 108.79 82.8703C108.79 85.3903 109.41 87.2503 110.67 88.4603C111.712 89.5699 113.149 90.2239 114.67 90.2803C116.441 90.1922 118.141 89.5523 119.53 88.4503H119.56ZM226 98.7503L232.33 104V104.81H196.15V104L202.34 98.7503V56.4703C202.34 50.6303 199.917 47.7103 195.07 47.7103C191.93 47.7103 189.283 49.2369 187.13 52.2903V98.7503L193.32 104V104.81H157.1V104L163.43 98.7503V48.3903L153.33 53.3903L152.79 52.7203L155.62 48.7203C158.58 44.5003 160.957 41.2903 162.75 39.0903C164.417 37.0131 166.366 35.1788 168.54 33.6403C170.418 32.2627 172.681 31.5074 175.01 31.4803C176.453 31.4123 177.892 31.6815 179.213 32.2665C180.534 32.8514 181.7 33.7361 182.62 34.8503C184.46 37.0903 185.38 40.9503 185.38 46.4303C185.38 48.2303 185.38 49.6603 185.24 50.7403H185.38C194.8 37.8069 201.577 31.3436 205.71 31.3503C212.803 31.3503 218.01 33.5269 221.33 37.8803C224.65 42.2336 226.317 47.9003 226.33 54.8803L226 98.7503ZM289.56 60.9103L310.74 104V104.81H278V104L282.45 98.8803L267.9 69.2603L266 70.8803V98.7503L272.33 104V104.81H236.14V104L242.34 98.7503V13.6503L233.85 10.6503V9.85027L265.23 0.280273H266V68.0203L269.09 65.0203C272.529 62.3471 275.316 58.9278 277.24 55.0203C278.923 51.6267 279.822 47.8981 279.87 44.1103C279.886 42.077 279.589 40.0534 278.99 38.1103C278.554 36.5284 277.745 35.0743 276.63 33.8703V33.0603H310.44V33.7303L269 68.4503L289.56 60.9103ZM72.18 106.56C72.18 105.79 72.13 105.02 72.13 104.25C72.1314 85.4204 75.2919 66.7243 81.48 48.9403C87.72 30.9003 96.0534 15.9403 106.48 4.06027H81.24C71.3667 14.4869 63.42 28.8203 57.4 47.0603C51.3387 65.5053 48.283 84.805 48.35 104.22C48.35 105 48.35 105.76 48.4 106.53L72.18 106.56ZM25.57 106.56H50L24.76 7.69028H0.290039L25.57 106.56Z" fill="black"/>
</svg>
