<svg xmlns="http://www.w3.org/2000/svg" viewBox="0 0 453.74 643.25"><defs><style>.cls-1{fill:#fff;}</style></defs><g id="Capa_2" data-name="Capa 2"><g id="Capa_1-2" data-name="Capa 1"><path class="cls-1" d="M381.08,334.85c-1.41.48-2.8,1-4.17,1.58l-5.41-17.91c1.26-1,2.51-2,3.75-3Z"/><path class="cls-1" d="M400.35,398.63c-1.36.65-2.7,1.36-4,2.13l-5.15-17c1.25-1.05,2.48-2.13,3.67-3.24Z"/><path class="cls-1" d="M280.68,565.42a15,15,0,0,0-.21-2.67,2.3,2.3,0,0,0-.23-.7L408,523.44a24.31,24.31,0,0,0,16.22-30.27L411.07,449.5c1.05-.88,2.08-1.78,3.15-2.64a4,4,0,0,0,.54-.55l13.76,45.57a28.76,28.76,0,0,1-19.19,35.82L280.6,566.58l0-.13a2.42,2.42,0,0,0,.12-1"/><path class="cls-1" d="M20.43,70.67,250.28,1.23a28.77,28.77,0,0,1,35.82,19.2L367.23,289a8.37,8.37,0,0,0-4.41.8l-81-268.06A24.32,24.32,0,0,0,251.57,5.49L21.71,74.93A24.32,24.32,0,0,0,5.49,105.2L83.05,361.93a41.92,41.92,0,0,0-3.22,4.73L1.23,106.49a28.77,28.77,0,0,1,19.2-35.82"/><path class="cls-1" d="M380.32,392.44l0,0a1.59,1.59,0,0,0,.27-.18l.19-.16a7.58,7.58,0,0,0,.85-.76,2.46,2.46,0,0,0,.55-.85l1.18-.79,4.46,14.78c-.62.31-1.24.63-1.85,1s-1.09.6-1.64.92l-4.16-13.79a.52.52,0,0,1,.11-.1"/><path class="cls-1" d="M391.44,503a21.23,21.23,0,0,0,14.16-26.41l-4.94-16.33.14-.09c.78-.58,1.53-1.19,2.31-1.76a2.58,2.58,0,0,0,.77-.93l5.43,18a25.1,25.1,0,0,1-16.75,31.26L272.39,543c-.54-1.19-1.12-2.37-1.72-3.54Z"/><path class="cls-1" d="M93.79,352.27a36.38,36.38,0,0,0-3.36,2.31L24.48,136.28,283.24,58.11,354.49,294c-1.22.47-2.42,1-3.6,1.54L280.64,63,29.32,138.88Z"/><path class="cls-1" d="M368.56,340.56c-1.16.67-2.3,1.36-3.43,2.07l-3.77-12.5c1-1.2,2-2.4,3-3.6Z"/><path class="cls-1" d="M98.39,70.3c4.8-1.75,9.8-3,14.67-4.57l29.2-9.07,33.1-10.28c2.11-.66,3.1,2.62,1,3.28L123.79,66l-13.31,4.14L104.32,72a31.41,31.41,0,0,0-6.11,2.07c-.84.48-2.1,1.53-.5,1.89s3.69-.52,5.27-.95l13-3.55,30-8.17c2.12-.58,3.12,2.7,1,3.28l-29.64,8.08-14.66,4c-2.84.77-7.45,1.78-8.9-1.78-1.34-3.31,1.93-5.62,4.63-6.6"/><path class="cls-1" d="M68.19,84.15a1,1,0,0,1-2-.16c-.28-1.12,1-1.55,1.87-.91a1.11,1.11,0,0,0,.62.22,2.17,2.17,0,0,0-.52.85m-3.65-4a4.46,4.46,0,0,0,2.82,8,4.7,4.7,0,0,0,4.16-3.26,1.73,1.73,0,0,0-1.27-2.06l-.22,0a1.51,1.51,0,0,0,.38-.46,1.76,1.76,0,0,0-.7-2.31,4.58,4.58,0,0,0-5.17.12"/><path class="cls-1" d="M87.53,510.34A510,510,0,0,1,75.6,450.85q-2.13-15.24-3.34-30.6a263.34,263.34,0,0,1-1.17-28.64c.51-16.2,5.59-33.81,21-41.84a26,26,0,0,1,22-1.3c7.19,2.9,13,8.75,16.9,15.37,5.07,8.65,7.22,18.55,9.29,28.25q3.27,15.35,6.53,30.68,6.54,30.69,13.06,61.36l2.54,11.92a98,98,0,0,1,67.68,4.82,90.85,90.85,0,0,1,23,15,97,97,0,0,1,31.19,58,95,95,0,0,1,.4,25.09c-.26,2.18-3.58,1.37-3.33-.8a89.29,89.29,0,0,0-.42-23.72,94.19,94.19,0,0,0-20.34-45.95c-15.45-18.91-38.56-30.47-62.8-32.55-12.18-1.05-24.32.87-36.14,3.7-11.25,2.7-22.33,6.93-31.22,14.58-.55.47-1.09,1-1.63,1.45-1.6,1.49-4.12-.83-2.5-2.33a63.21,63.21,0,0,1,31.57-15.79l1.25-.44-11.91-56L141,411.76c-2.1-9.85-3.92-19.81-6.47-29.55-2.23-8.51-5.45-17.09-11.66-23.54-5.18-5.4-12.19-9.17-19.84-8.64A23,23,0,0,0,92.25,354,38.24,38.24,0,0,0,80.37,366.3c-3.14,5.09-4.46,11.22-5.24,17.13-1.14,8.66-.66,17.48-.16,26.17q.84,14.7,2.54,29.35a504.55,504.55,0,0,0,10.17,57.88,486.21,486.21,0,0,0,16.44,55.27c6.09,16.67,13.47,33,23.83,47.52,9.56,13.37,21.7,24.75,36.53,32,13.56,6.65,29.29,10,44.3,7.18.92-.17,1.83-.36,2.74-.58,15.17-6.91,31.44-10.5,47.77-13.42,16.65-3,33.34-5.75,50-8.61,6.18-1.06,12.44-1.67,18.58-3,2.68-.57,6-1.05,8.37-2.56,2-1.27,3.79-2.47,5.89-3.57a128.31,128.31,0,0,0,53.73-53.86,119.59,119.59,0,0,0,9.48-24.42l3.88-1.17a126.86,126.86,0,0,1-22.54,46.24,131.42,131.42,0,0,1-39.63,34.46c-4.7,2.65-9,5.2-14.28,6.74a148.72,148.72,0,0,1-16.36,3.36q-13.83,2.37-27.68,4.75c-16.2,2.78-32.56,5.15-48.55,9-4.74,1.14-9.45,2.44-14.07,4C220.65,638,215.69,641,210,642.08a64.48,64.48,0,0,1-14.67,1.13,78.07,78.07,0,0,1-28.57-6.81,97.29,97.29,0,0,1-32.93-24c-12.18-13.57-21-29.72-28-46.46a422.21,422.21,0,0,1-18.33-55.61"/><path class="cls-1" d="M346.25,435.77a145.58,145.58,0,0,1,13.87-14.12,155.93,155.93,0,0,1,33.15-22.72,145.93,145.93,0,0,1,18.31-7.88,62.62,62.62,0,0,1,10.57-2.73s0-.05,0-.08c2.26-10.21,4.73-20.94,2.84-31.42-1.64-9.14-6.58-17.71-15.34-21.57-7.7-3.4-16.73-2.62-24.65-.45a84.37,84.37,0,0,0-24.52,11.74,101.09,101.09,0,0,0-35.85,42.71c-3.55,8.05-6.72,18.62-2.68,27.09,4.12,8.63,14.58,9.69,22.62,6.4,5-2.07,9.37-5.65,13.33-9.31,4.21-3.88,8.28-7.91,12.4-11.88l7.15-6.88a2.49,2.49,0,0,0,1.12-.65l.78-.77c.31-.28.63-.54,1-.84a1.59,1.59,0,0,0,.27-.18l.2-.16a8.48,8.48,0,0,0,.84-.76,2.44,2.44,0,0,0,.62-1,2.36,2.36,0,0,0,.38-.61l13-12.51,6.34-6.1c1.59-1.52,4.1.81,2.51,2.34L377,399.89q-6.81,6.54-13.6,13.08c-4.13,4-8.37,7.95-13.34,10.85-8,4.68-19.12,6.29-26.72-.18s-7.44-18-5-27c2.63-9.69,7.82-18.91,13.63-27a105.3,105.3,0,0,1,21-21.86,96.53,96.53,0,0,1,25.86-14.59,54.86,54.86,0,0,1,19.56-3.65c1.22-11.52,2.45-26-6.8-34.76-9.85-9.29-25.29-6.53-36.23-.84a111.81,111.81,0,0,0-12.47,7.82c-4.9,3.44-9.81,7-13.8,11.48-3.74,4.21-6.51,9.31-6.78,15-.25,5.05,1.34,10.41,5.6,13.47,4.87,3.5,11.57,3.07,16.88.92a32.78,32.78,0,0,0,8.89-5.62,59.36,59.36,0,0,0,8.69-8.81c2.6-3.37,4.86-6.87,7.28-10.42,1.16-1.7,2.79-4.76,4.81-5.55s3.08,1.63,1.92,3.17c-4.1,5.45-7.94,11.2-12.27,16.46a51.07,51.07,0,0,1-4.85,4.56,58.45,58.45,0,0,1-8.45,6.77c-6,3.87-13.15,5.91-20.17,3.63-12.17-3.95-14.29-18.79-8.93-29,3.06-5.83,7.94-10.39,13.08-14.38a130.29,130.29,0,0,1,18.29-12.17c6.79-3.61,14.68-6.15,22.41-6a74.4,74.4,0,0,1,6.41-9.71l.15-.17L412.31,237,427.37,218c3.92-5,8-10.07,10.22-16.06,2.07-5.6,1.9-11.94-2.37-16.49s-10.77-6.33-16.91-5.84c-7.37.6-14.27,4-20.6,7.65A122.82,122.82,0,0,0,381,198.75c-11.7,9.57-22.61,23.25-30.05,36.45l-1.37-4.52a125.75,125.75,0,0,1,43.66-44.78c6.54-4,13.61-7.77,21.2-9.22,6.64-1.26,13.67-.59,19.44,3.18a18.06,18.06,0,0,1,8.52,15.26c-.05,6.48-3.29,12.53-6.88,17.74-4.54,6.58-9.78,12.72-14.73,19l-36.49,46.22-.08.09a67,67,0,0,0-4.92,7.37,27.59,27.59,0,0,1,10.36,3.54c14.21,8.34,13.67,26.36,12.16,40.67a38.59,38.59,0,0,1,4,.66c9.51,2.16,16.65,8.87,20.3,17.81,4.21,10.3,3.26,21.68,1.2,32.36-.47,2.45-1,4.89-1.54,7.33.74,0,1.48-.09,2.21-.1A25.38,25.38,0,0,1,443.08,392a24.53,24.53,0,0,1,9.17,13.74c3.21,11.64.73,24.47-2.54,35.82a118.67,118.67,0,0,1-15.78,33.75q-2.56,3.78-5.4,7.35a1.8,1.8,0,0,1-.18.2l-1.82,2.57-1.24-4.13c3.46-4.9,7.1-9.56,10.12-14.78a115.1,115.1,0,0,0,7.82-16.35c4.09-10.61,7.24-22.44,7-33.89-.11-5.4-1-11-3.84-15.7a18.87,18.87,0,0,0-12.13-8.78c-10.57-2.42-21.88,2.17-31.42,6.33a152.61,152.61,0,0,0-32.22,19.15,151,151,0,0,0-14.16,12.47,98.24,98.24,0,0,0-12.07,13.94c-3.36,4.94-5.93,10.59-6.06,16.66a18,18,0,0,0,6.41,14.68c9.61,7.85,23,5,33.18,0a110.8,110.8,0,0,0,22-14.45,2.36,2.36,0,0,0,.86-.42c.78-.58,1.53-1.19,2.31-1.77a2.83,2.83,0,0,0,.94-1.25,2.24,2.24,0,0,0,.45-.6q4.28-4,8.15-8.38c.52-.44,1-.88,1.57-1.3a3,3,0,0,0,1.11-1.84l.5-.6.56-.61a2.42,2.42,0,0,0,.47-.69,119.68,119.68,0,0,0,10.8-16.19q2.1-3.78,3.91-7.7c.93-2,3.94-.37,3,1.62A122.8,122.8,0,0,1,385.21,475c-10.95,6.35-24.09,11.35-36.53,6.28a21.78,21.78,0,0,1-11.89-11.1c-2.49-5.6-2.34-12.18-.47-17.94,2-6.17,5.76-11.56,9.93-16.46"/></g></g></svg>