<svg xmlns="http://www.w3.org/2000/svg" viewBox="0 0 107.94 82.62"><defs><style>.cls-1{fill:#f1e337;}</style></defs><g id="Capa_2" data-name="Capa 2"><g id="Capa_1-2" data-name="Capa 1"><g id="_1AKdvt" data-name="1AKdvt"><path class="cls-1" d="M33.36,55.63A43.37,43.37,0,0,1,35.85,62c1.47,6.81-1.08,12.26-6.25,16.63C20.32,86.52,2.94,82.48.35,68.33c-1.27-7,.94-12.72,6.51-17.15a2.84,2.84,0,0,0,1-1.58c2.18-14,4.41-27.92,7.59-41.7.47-2,1-4.08,1.44-6.12A1.71,1.71,0,0,1,18.66.24,160.84,160.84,0,0,1,40.28.5c11,.94,21.28,4.6,31.38,8.86A92.27,92.27,0,0,0,92,15.72a30.31,30.31,0,0,0,12.15-.06,3,3,0,0,1,3.73,3.56c-.46,3.09-.92,6.19-1.43,9.27Q103.55,46.25,100.59,64c-.29,1.75-.68,3.49-.93,5.26a1.63,1.63,0,0,1-1.77,1.62A74.76,74.76,0,0,1,81.8,69.75c-12.4-2-24.26-5.9-35.94-10.45-3.85-1.51-7.94-2.41-11.92-3.58A3.92,3.92,0,0,0,33.36,55.63ZM103.72,18.4c-.33,0-.52,0-.7.05a37.69,37.69,0,0,1-10.66-.1,89.14,89.14,0,0,1-18-5.19c-5.92-2.25-11.74-4.75-17.74-6.75-11.8-3.94-24-4.26-36.31-3.73-.88,0-1.18.34-1.38,1.19-3,12.39-5.27,24.93-7.27,37.52-.39,2.49-.75,5-1.14,7.56a4.59,4.59,0,0,0,.6-.13,17.23,17.23,0,0,1,12.21,0,57.5,57.5,0,0,0,7.54,2.4c8.32,1.7,16.27,4.67,24.24,7.52a150.21,150.21,0,0,0,39.56,8.56c1,.07,1.29-.17,1.45-1.13.55-3.36,1.29-6.69,1.82-10,1.68-10.63,3.3-21.28,4.94-31.92C103.19,22.31,103.44,20.4,103.72,18.4ZM2.52,64.9a14.6,14.6,0,0,0,15,15c8.17,0,14.13-6.28,14.15-15s-6-14.74-14.47-14.68A14.61,14.61,0,0,0,2.52,64.9Z"/><path class="cls-1" d="M102.67,1.76c-.18.51-.28.8-.4,1.09-.93,2.21-1.9,4.41-2.8,6.64-.34.86-.81,1.42-1.76,1.08s-.93-1.11-.61-1.88c1-2.36,2-4.74,3-7a1.91,1.91,0,0,1,1.45-.82C102,.81,102.33,1.44,102.67,1.76Z"/><path class="cls-1" d="M94.74,9.52c-.29.26-.63.76-1.09.92a1,1,0,0,1-1.41-.87c-.33-1.75-.69-3.5-.86-5.26a1.66,1.66,0,0,1,1-1.32,1.64,1.64,0,0,1,1.36.86C94.15,5.61,94.38,7.41,94.74,9.52Z"/><path class="cls-1" d="M101.46,10.63a5.45,5.45,0,0,1,.43-.92c.73-1,1.48-1.94,2.24-2.89a1.17,1.17,0,0,1,1.77-.24,1.16,1.16,0,0,1,.19,1.77,31.8,31.8,0,0,1-2.27,2.87,1.75,1.75,0,0,1-1.43.39C102,11.52,101.74,11,101.46,10.63Z"/><path class="cls-1" d="M29.93,7.77a113,113,0,0,1,38.63,8.5C75.3,19,82.24,21.21,89.11,23.6c1.17.41,1.66.94,1.5,2.24C90.4,27.68,92,29,94.12,28.92s2.47.36,2.06,2.38a186.54,186.54,0,0,0-3.25,23.87c-.14,2-1,2.44-2.84,1.76a2.52,2.52,0,0,0-2,.27c-.64.49-.46,1.3.06,2,.77,1,.27,1.94-1.09,2.11a32.14,32.14,0,0,1-14.27-1.67c-6.71-2.26-13.33-4.76-20-7.11a183.91,183.91,0,0,0-28.08-7.39c-1.42-.26-1.72-.7-1.36-2a2.16,2.16,0,0,0-.6-2.48A2.52,2.52,0,0,0,20,40.33a2.31,2.31,0,0,1-1.35.21c-.77-.21-1-.88-.76-1.62,2.16-8.13,2.81-16.45,3.21-24.81.06-1.35.56-1.77,1.76-1.54,1.94.37,3.27-.75,3.32-2.8s.19-2.3,2.31-2.11ZM67.56,18.66c5.35,5.85,7.1,12.36,4.68,19.65S64.93,50.06,57,51.31l5.37,2.06c5.44,2.06,10.82,4.3,16.61,5.17,2,.31,4.12.36,6.19.53.11-3.59,1.08-4.45,5.19-5q1.53-11.36,3-22.66c-3.45-.71-4.5-1.73-5.33-5a1.44,1.44,0,0,0-.83-.79c-2.46-.85-5-1.61-7.42-2.49C75.8,21.72,71.85,20.24,67.56,18.66Zm3.19,13.91a17,17,0,0,0-8.74-15,10.63,10.63,0,0,0-7.49-1.46C44.33,17.74,36.9,29,41.85,39.53c4.35,9.3,15.36,12.22,22.83,5.87A16.86,16.86,0,0,0,70.75,32.57ZM44.37,47.1c-5.42-5.31-8-11.77-5.95-19.24s7-12.19,14.59-14.09a111.61,111.61,0,0,0-24.29-3.58c-.55,3-2.07,4.87-4.84,5.05L21.22,37.5c3.2.52,4.09,1.46,4.85,5.23Z"/><path class="cls-1" d="M17.71,57.7a4.39,4.39,0,0,0-4.39,2.42,1.76,1.76,0,0,0,.7,2.56c.86.55,1.82,1,2.72,1.44a20.48,20.48,0,0,1,2.65,1.56,5.28,5.28,0,0,1-.91,9,1.67,1.67,0,0,0-.78.88c-.19.72-.61,1.23-1.3,1.07-.45-.11-.8-.69-1.18-1.07a7.23,7.23,0,0,0-.72-.74c-.76-.56-1.6-1-2.3-1.63s-.88-1.29-.14-2,1.41-.42,2,.32a2.79,2.79,0,0,0,3.11.92A2.49,2.49,0,0,0,19,70.14a2.56,2.56,0,0,0-1.27-2.63,27.09,27.09,0,0,0-2.6-1.41c-.38-.21-.79-.36-1.18-.56-1.78-.94-3.38-2.1-3.33-4.36A5.71,5.71,0,0,1,14,56a1.49,1.49,0,0,0,1-1.38,1.61,1.61,0,0,1,1.06-1.12c.4,0,.89.54,1.3.89.25.22.39.69.66.77.85.27,1.7.51,1.45,1.63S18.43,57.84,17.71,57.7Z"/><path class="cls-1" d="M58.33,22.46c.88.34,1.74.63,2.56,1s1.16.87.76,1.7-1,.8-1.8.58a19.12,19.12,0,0,0-3.78-.79,3.42,3.42,0,0,0-3.13,1.62,2.64,2.64,0,0,0,1,4.2c1,.53,2,.93,3,1.43,2.72,1.37,4,3.56,3.54,6.21a6.12,6.12,0,0,1-5.41,5.19c-.86.12-1.34.29-1.43,1.26S53.1,46.53,52,46.26s-1.09-1.12-.81-1.91c.34-1-.06-1.32-.79-1.87a14.18,14.18,0,0,1-2.56-2.74,1.26,1.26,0,0,1,.27-2.05c.91-.51,1.44.05,1.89.82a4.64,4.64,0,0,0,4.91,2.59A3.65,3.65,0,0,0,58,38.19a3.22,3.22,0,0,0-1.79-3.55c-.87-.48-1.79-.84-2.68-1.26-2.77-1.33-3.87-3.05-3.6-5.65a5.83,5.83,0,0,1,4.66-5.06,1.67,1.67,0,0,0,1.51-1.6c.17-.93.28-2,1.65-1.85.91.1,1.12.83.77,2.42C58.43,21.91,58.38,22.17,58.33,22.46Z"/></g></g></g></svg>