<svg xmlns="http://www.w3.org/2000/svg" viewBox="0 0 57.68 113.08"><defs><style>.cls-1{fill:#fff;}</style></defs><g id="Capa_2" data-name="Capa 2"><g id="Capa_1-2" data-name="Capa 1"><g id="Ij9xrX"><path d="M28.68,42.56v-8c-.81.24-1.62.43-2.41.72a6,6,0,0,0-1.34.73c-3.53,2.42-7,2-10.55-.06-2.79-1.6-5.4-3.55-8.56-4.45-.52-.15-1.05-.31-1.57-.5-1.17-.43-1.44-1.12-.82-2.19A10.49,10.49,0,0,1,8.81,24.2a21.25,21.25,0,0,1,11.54-1.63,7.87,7.87,0,0,1,5.28,3.25c1,1.33,1.95,2.65,3,4.05a6.4,6.4,0,0,0-1.29-6.31c-.77-.95-1.63-1.82-2.41-2.76a16,16,0,0,1-.66-19.22c1.24-1.71,2.32-2,4.13-.95a42,42,0,0,1,5.85,4c3.59,3.1,4.7,7.16,3,11.54-1.46,3.71-3.53,7.18-5.32,10.76a1.89,1.89,0,0,0-.31.74,47,47,0,0,0,.21,6,12.54,12.54,0,0,0,2-2.45,9.29,9.29,0,0,1,6.79-5.3,46.4,46.4,0,0,1,13.32-1.6c1.63.08,2.13.7,1.6,2.26a23.32,23.32,0,0,1-4.35,8.31,15.82,15.82,0,0,1-9.45,5.58,9,9,0,0,1-5.49-1,20.54,20.54,0,0,0-2.55-1.22,14.48,14.48,0,0,0-2.27-.41v4.7c1.48.14,3,.25,4.58.46a19.31,19.31,0,0,1,3.1.7c2.64.86,3.59,2.5,1.81,5.19a9.16,9.16,0,0,0-1.31,5.75,9.3,9.3,0,0,0,2.12,6.26c1.74,1.91,3.67,3.65,5.57,5.42,5,4.68,8.72,10.11,10,17,2.47,12.89-6.1,28.11-21.17,29.69a57.42,57.42,0,0,1-8.7,0c-2.51-.12-5-.48-7.5-.82-5.42-.75-9.29-4-12.71-8C2.7,99,.05,93,0,86.1A21.14,21.14,0,0,1,6.11,70.58a81.11,81.11,0,0,1,9.18-8.31c4.58-3.42,5.76-7.61,4.1-12.86a3.31,3.31,0,0,0-.17-.56c-1-2.26-.43-4.07,1.89-4.91a39,39,0,0,1,5.62-1.23A16.53,16.53,0,0,1,28.68,42.56ZM24.51,50c0,1.65,0,3.38,0,5.11a10,10,0,0,1-4.51,9c-1.35,1-2.62,2-4,3A22.8,22.8,0,0,0,5.82,84.72c-.68,9.34,2.58,17,10.79,21.94a29.6,29.6,0,0,0,17.45,3.92c15.31-.87,22.76-15.44,20.67-26.81a24.48,24.48,0,0,0-9.2-14.93C43.3,67,41,65.25,38.92,63.31a10.37,10.37,0,0,1-3.26-7.24c-.12-1.92-.3-3.83-.44-5.6-1.87,0-3.63.06-5.39,0S26.32,50.17,24.51,50Zm7.4-29,.41.11a62.18,62.18,0,0,0,2.76-7.31,7.42,7.42,0,0,0-.48-4.45c-1.51-3.46-4.82-5-7.85-6.71-4.55,5.72-3.16,15.56,2.62,18.9-.46-1.54-.9-3-1.32-4.47a9.61,9.61,0,0,1-.2-5.69,1.73,1.73,0,0,1,1.32-1c.42,0,.89.71,1.13,1.2a2.64,2.64,0,0,1,.05,1.4C29.94,15.87,31.27,18.37,31.91,21Zm4.23,11.42h.64a29,29,0,0,0,7.91-1.7c.85-.27,1.63,0,1.74.87a1.83,1.83,0,0,1-.85,1.52,50.26,50.26,0,0,1-5.78,1.55c-1.39.3-2.83.38-4.24.55,3.3,1.55,6.51,3.1,10.08.93s5.48-5.43,6.93-9.27a37.64,37.64,0,0,0-13.15,2.06A5.15,5.15,0,0,0,36.14,32.43ZM25,29.51c-1.27-2.24-2.7-4.24-5.51-4.48a18.93,18.93,0,0,0-11,2.29,16.75,16.75,0,0,0-2,1.57c1.15.46,2.07.8,3,1.2,2.58,1.15,5.12,2.4,7.73,3.48a7.21,7.21,0,0,0,7.69-1.26,2.56,2.56,0,0,0-.34-.1,3.88,3.88,0,0,0-.83,0,16.29,16.29,0,0,1-7.89-1.58C14.2,29.92,13.7,29.4,14,28.53s1.11-1.07,2.64-.36A15.59,15.59,0,0,0,25,29.51Zm6.26,17.68,6.83-.84v-.49L31.23,45Zm-8.39-1.31v.47l5.66.74v-2Z"/><path class="cls-1" d="M52.57,26.88c-1.45,3.84-3.38,7.11-6.93,9.27s-6.78.62-10.08-.93c1.41-.17,2.85-.25,4.24-.55a50.26,50.26,0,0,0,5.78-1.55,1.83,1.83,0,0,0,.85-1.52c-.11-.87-.89-1.14-1.74-.87a29,29,0,0,1-7.91,1.7h-.64a5.15,5.15,0,0,1,3.28-3.49"/><path d="M28.84,93.14v-8c-1.33-.37-2.6-.62-3.81-1.06-3.79-1.41-4.55-4.9-1.75-7.84,1.27-1.33,2.16-1.8,5.73-2.95,0-.88,0-1.82,0-2.75s.38-1.38,1.27-1.36,1.43.59,1.27,1.36c-.49,2.29.62,3.18,2.64,3.84a8,8,0,0,1,4.23,3.94c.47.8.47,1.53-.4,2s-1.42,0-1.84-.72a7.24,7.24,0,0,0-4.71-3.52c0,1.54,0,2.93,0,4.32,0,2.42,0,2.32,2.27,3a10.6,10.6,0,0,1,3.63,1.82c2.23,1.91,2.41,4.45.76,6.88a8.59,8.59,0,0,1-5.3,3.48l-1.19.26V99c0,.89-.31,1.6-1.32,1.6S29,99.88,29,99s.27-2.18-.18-2.88-1.7-.56-2.52-1a18.38,18.38,0,0,1-3-1.85,3.77,3.77,0,0,1-1.06-1.53c-.27-.68-.3-1.43.55-1.82a1.25,1.25,0,0,1,1.75.7C25.51,92.27,27.08,92.76,28.84,93.14Zm2.7,0a6.27,6.27,0,0,0,4.36-2.38c1-1.41,1.05-2.66-.38-3.68a21.14,21.14,0,0,0-4-1.77Zm-2.72-17a6.3,6.3,0,0,0-4.05,2.34c-.94,1.28-.75,2.32.69,3a31.71,31.71,0,0,0,3.36,1.06Z"/><path d="M50.39,85.38c-.09.7-.17,1.4-.27,2.1a1.29,1.29,0,1,1-2.56-.35,9.47,9.47,0,0,0-2.16-8,1.23,1.23,0,0,1,.05-1.89,1.29,1.29,0,0,1,2,.25A12.66,12.66,0,0,1,50.39,85.38Z"/><path d="M12.49,86.9a9.82,9.82,0,0,0,.64,5.5c.33.83.25,1.59-.69,1.94s-1.4-.23-1.71-1a12,12,0,0,1-.84-6.55c.13-.82.55-1.35,1.39-1.28A1.25,1.25,0,0,1,12.49,86.9Z"/><path class="cls-1" d="M31.54,93.17V85.34a21.14,21.14,0,0,1,4,1.77c1.43,1,1.42,2.27.38,3.68A6.27,6.27,0,0,1,31.54,93.17Z"/><path class="cls-1" d="M28.82,76.14V82.5a31.71,31.71,0,0,1-3.36-1.06c-1.44-.64-1.63-1.68-.69-3A6.3,6.3,0,0,1,28.82,76.14Z"/></g></g></g></svg>