<svg xmlns="http://www.w3.org/2000/svg" viewBox="0 0 63.24 104.97"><g id="Capa_2" data-name="Capa 2"><g id="Capa_1-2" data-name="Capa 1"><g id="CHWA5s"><path d="M31.44,57.34c0,2-.05,4,0,5.9.24,8.16.62,16.31.73,24.47.08,5.16-.21,10.33-.34,15.5a1.39,1.39,0,0,1-1.28,1.52,11.06,11.06,0,0,1-6.29-.49,5.91,5.91,0,0,1-1.59-.94,2.59,2.59,0,0,1-.63-3.17,2.19,2.19,0,0,1,2.84-.94,40,40,0,0,1,3.93,2,7.8,7.8,0,0,1,.9.67c.09-1.52.26-2.89.24-4.26-.16-9.36-.37-18.72-.53-28.09-.08-4.27-.1-8.55-.09-12.82a3.27,3.27,0,0,1,.55-1.6c3.65-6,7.33-12,11-18,.12-.19.21-.39.44-.82l-7,2.36c-2.2.75-4.43,1.44-6.61,2.24a6.66,6.66,0,0,1-7.25-1.37c-3.28-3-6.49-6-9.73-9C9,28.84,7.32,27.24,5.6,25.67c-.57-.52-1-1.09-.43-1.78s1.32-.38,1.91.18c4,3.79,8,7.6,12,11.37,1.13,1.06,2.35,2,3.57,3a3.49,3.49,0,0,0,3.31.63c4.53-1.46,9.05-3,13.74-4.56-1.33-.88-2.55-1.61-3.67-2.45-9.53-7.18-7.85-22,3-27.38,9.82-4.84,18.33.94,22,7.79a17.09,17.09,0,0,1,1.77,12.4,14.79,14.79,0,0,1-12.63,11c-1,.13-2.07.2-3.25.32.32.37.57.69.85,1Q53.19,43,58.64,48.87c.88,1,1.85,1.93,1.38,3.37s-1.92,1.39-3.11,1.6q-7.68,1.38-15.37,2.7c-.38.07-.77.1-1.15.18-.74.15-1.36,0-1.52-.82s.41-1.18,1.13-1.31l16.18-2.83,1.91-.33L43.87,36.26C40,42.62,36.15,48.85,32.32,55.1c2.93,1,5.82,1.8,8.56,2.95,4.39,1.84,8.72,3.85,13,5.91,2.51,1.19,2.72,3.56.47,5.25-3.78,2.85-7.67,5.57-11.48,8.39-1.74,1.29-3.41,2.68-4.91,3.87a36.4,36.4,0,0,1,1.63,4.24,5.23,5.23,0,0,1-.9,4.21,2.39,2.39,0,0,1-2.79,1.19,2.31,2.31,0,0,1-1.47-2.53c.17-2.28.39-4.57.68-6.84a2.1,2.1,0,0,1,.79-1.21c3.71-2.88,7.45-5.72,11.19-8.56,2-1.5,4-3,6-4.48.88-.68.82-1.11-.16-1.62a100.78,100.78,0,0,0-20.55-8.35C32.12,57.46,31.86,57.43,31.44,57.34Zm11-51.5C36.56,7,32.09,12.67,32,19.05c0,5.59,2.28,10,7.36,12.51a12.74,12.74,0,0,0,14.42-1.35c6.07-4.69,6.79-14.48,1.57-20.69-1-1.2-1.7-1.25-2.86-.17-.3.29-.48.7-.78,1a3.41,3.41,0,0,1-.79.46c0-.34-.24-.82-.09-1,.68-.84,1.46-1.6,2.25-2.43-.26-.18-.67-.41-1-.7a2.47,2.47,0,0,0-3.44.1,9.72,9.72,0,0,0-3.15,4c-.13.32-.55.52-.83.77-.05-.4-.28-.89-.13-1.18a13.93,13.93,0,0,1,1.7-2.76,23.14,23.14,0,0,1,2.35-2.17l0-.33a12.81,12.81,0,0,0-2.72.29,9.37,9.37,0,0,0-4.89,3.77c-.17.25-.59.33-.9.49,0-.37-.13-.85.05-1.08C40.79,7.6,41.59,6.75,42.39,5.84Z"/><path d="M10.79,0A10.8,10.8,0,0,1,21,14.56a2.46,2.46,0,0,0,0,1.54c.41,1.25,1,2.43,1.43,3.68a1.82,1.82,0,0,1-.05,1.46,1.68,1.68,0,0,1-1.43.2c-1.15-.33-2.24-.86-3.39-1.21a2.15,2.15,0,0,0-1.48.07c-4.18,2.11-8.23,1.88-11.91-1A10.2,10.2,0,0,1,.41,8.08C1.57,3.6,4.64,1,9.16.08A3.83,3.83,0,0,1,9.74,0C10.09,0,10.44,0,10.79,0Zm8.6,18.73.07-.33c-.06-.18-.11-.37-.18-.55a5.89,5.89,0,0,1-.17-4.56,8.43,8.43,0,0,0-3.92-10A8.68,8.68,0,0,0,3.73,15.74a8.39,8.39,0,0,0,10.4,3C16,17.88,17.55,17.23,19.39,18.73Z"/><path d="M39.71,15.71c-.52.53-.81,1.08-1.21,1.17s-.78-.4-1.41-.77c.23,0,.16,0,.08,0l-1.3.18c.27-.39.49-1,.84-1.12a18.65,18.65,0,0,1,3.58-.45c.31,0,.63.51,1,.78a11.78,11.78,0,0,1-1.18.25A.73.73,0,0,1,39.71,15.71Z"/><path d="M50,16.12c-.27.23-.58.72-1,.77s-.73-.39-1-.58H46.82c.18-.38.26-.89.55-1.13a2.62,2.62,0,0,1,3.05-.28c.33.18.5.66.74,1Z"/><path d="M51.68,22.67a2.8,2.8,0,0,1-2.74,2.94c-.29,0-.58-.34-.86-.53.25-.18.47-.47.75-.53,1.42-.33,1.86-.91,1.71-2.23a3.38,3.38,0,0,1,.29-1.11,12.23,12.23,0,0,1,.79,1A1,1,0,0,1,51.68,22.67Z"/><path d="M10.18,15.81c-.85-.48-1.62-.86-2.31-1.34-.19-.13-.16-.58-.23-.88a2.33,2.33,0,0,1,.84,0c.51.23,1,.56,1.74,1,0-1.16,0-2.06,0-3a.71.71,0,0,0-.39-.49A2.7,2.7,0,0,1,7.75,8.32a3,3,0,0,1,2.61-2.84,12.46,12.46,0,0,1,0-1.73c0-.23.32-.43.5-.64.17.22.45.42.48.66a12.23,12.23,0,0,1,0,1.6,15.59,15.59,0,0,1,1.87,1c.2.13.2.56.29.86a2.59,2.59,0,0,1-.83,0,10,10,0,0,1-1.26-.64v3.89c1.21.44,2.46,1,2.33,2.67a2.75,2.75,0,0,1-2.5,2.58,5.65,5.65,0,0,1,0,1.31c-.06.28-.34.52-.53.77-.18-.25-.47-.48-.53-.75A6.65,6.65,0,0,1,10.18,15.81Zm-.42-5.65.45-.22V6.72A1.67,1.67,0,0,0,8.84,8.56C8.91,9.12,9.44,9.63,9.76,10.16Zm2,1.4-.32.2v2.67l.36.19c.33-.51.91-1,.9-1.55S12.05,12.06,11.71,11.56Z"/></g></g></g></svg>