<svg xmlns="http://www.w3.org/2000/svg" viewBox="0 0 461.94 41.99"><defs><style>.cls-1{fill:#fff;}</style></defs><g id="Capa_2" data-name="Capa 2"><g id="Capa_1-2" data-name="Capa 1"><path class="cls-1" d="M9.35,29.05Q52.49,24,95.86,21.38q43.14-2.56,86.38-2.69,43.44-.14,86.83,2.23,43.14,2.34,86.12,7.13,10.74,1.2,21.46,2.55c3.72.46,7.43.95,11.14,1.44.12,0,1.54.21.47.06s.36,0,.48.07l2.57.35c1.85.26,3.71.51,5.56.78q21.39,3,42.7,6.65,5.32.91,10.64,1.86c4.79.85,10.3-1.29,11.49-6.52,1-4.56-1.38-10.58-6.52-11.49q-43.57-7.74-87.54-13-43.33-5.19-86.92-7.89Q237.37.22,193.91,0T107.08,2.08q-43.59,2.28-87,7.06c-3.58.4-7.15.81-10.73,1.23C4.51,10.93-.24,14.26,0,19.71c.2,4.57,4.14,10,9.34,9.34Z"/></g></g></svg>