<svg width="419" height="13" viewBox="0 0 419 13" fill="none" xmlns="http://www.w3.org/2000/svg">
<path d="M3.31986 10.6901C29.2399 9.35677 55.1665 8.31678 81.0999 7.57011C107.173 6.79011 133.253 6.28344 159.34 6.05011C186.007 5.81011 212.673 5.85677 239.34 6.19011C266.547 6.53011 293.75 7.16011 320.95 8.08011C349.157 9.02677 377.353 10.2668 405.54 11.8001L416.22 12.3901C419.78 12.6001 419.77 7.05011 416.22 6.85011C387.92 5.25011 359.586 3.93343 331.22 2.9001C303.933 1.90676 276.633 1.20343 249.32 0.790097C222.58 0.38343 195.837 0.26343 169.09 0.430096C142.963 0.590096 116.84 1.02678 90.7199 1.74011C64.7599 2.46011 38.8098 3.4401 12.8698 4.6801L3.25985 5.1501C-0.290151 5.3301 -0.310151 10.8701 3.25985 10.6901H3.31986Z" fill="#F9EB37"/>
</svg>
