<svg xmlns="http://www.w3.org/2000/svg" viewBox="0 0 280.72 25.52"><defs><style>.cls-1{fill:#f1e337;}</style></defs><g id="Capa_2" data-name="Capa 2"><g id="Capa_1-2" data-name="Capa 1"><path class="cls-1" d="M5.68,17.65Q31.9,14.58,58.25,13t52.5-1.64q26.38-.06,52.76,1.36,26.22,1.42,52.34,4.34,6.53.72,13,1.54l6.77.88.29,0,.28,0,1.56.21,3.38.47q13,1.85,26,4.05c2.16.37,4.32.74,6.47,1.13,2.91.51,6.26-.79,7-4,.63-2.76-.84-6.42-4-7q-26.48-4.71-53.2-7.89-26.32-3.17-52.82-4.8Q144.25.14,117.84,0T65.07,1.26Q38.58,2.66,12.2,5.56C10,5.8,7.85,6,5.68,6.3,2.74,6.64-.14,8.66,0,12c.12,2.77,2.51,6,5.67,5.67Z"/></g></g></svg>