<svg width="367" height="33" viewBox="0 0 367 33" fill="none" xmlns="http://www.w3.org/2000/svg">
<path d="M6.81018 22.1701C29.7302 19.5035 52.7302 17.4668 75.8102 16.0601C98.7302 14.6868 121.68 13.9701 144.66 13.9101C167.64 13.8501 190.71 14.4435 213.87 15.6901C236.797 16.9301 259.68 18.8235 282.52 21.3701C288.22 22.0368 293.92 22.7035 299.62 23.3701C302.62 23.7401 305.54 24.1301 308.5 24.5201C308.5 24.5201 309.65 24.6801 308.96 24.5801C308.27 24.4801 309.4 24.6401 309.42 24.6501L311.47 24.9301L315.91 25.5501C327.284 27.1501 338.617 28.9168 349.91 30.8501L358.4 32.3301C361.89 32.9501 365.9 31.3901 366.77 27.5801C367.52 24.2601 365.77 19.8801 362.01 19.2101C338.924 15.1101 315.724 11.6668 292.41 8.88013C269.384 6.12013 246.287 4.02346 223.12 2.59012C200.087 1.15679 177.024 0.386794 153.93 0.280127C130.837 0.17346 107.764 0.746795 84.7102 2.00013C61.5702 3.17346 38.4568 5.03346 15.3702 7.58013C12.5102 7.90013 9.66018 8.22013 6.81018 8.58013C3.29018 8.99013 -0.18982 11.4101 0.0101799 15.3801C0.16018 18.7101 3.01018 22.6301 6.81018 22.1901V22.1701Z" fill="#F9EB37"/>
</svg>
