<svg xmlns="http://www.w3.org/2000/svg" viewBox="0 0 44.09 38.8"><defs><style>.cls-1{fill:#f1e337;}</style></defs><g id="Capa_2" data-name="Capa 2"><g id="Capa_1-2" data-name="Capa 1"><g id="LExz4q"><path class="cls-1" d="M6.47,38.8c-1.21,0-1.77-.43-2-1.5q-1.56-7.5-3.09-15Q.72,18.95,0,15.64a2.22,2.22,0,0,1,1.61-2.4L21.17,9.41,37.8,6.19A9,9,0,0,1,39,6a.63.63,0,0,1,.72.58c.36,1.82.75,3.63,1.1,5.44q1.41,7.47,2.78,15c.18.95.32,1.92.45,2.88.11.79-.11.88-.68,1Q38.76,32,34.19,33.11c-7.39,1.83-14.85,3.3-22.31,4.75-1.64.31-3.28.59-4.91.88A4.93,4.93,0,0,1,6.47,38.8Zm-.26-1.61,36.86-7.47L40.15,14.41c-12.43,2-24.74,4.28-37,6.87ZM38.8,7.05,1.7,14.21l.55,2.7C14.57,14.32,26.9,12,39.33,10Z"/><path class="cls-1" d="M38.74,3.09c-.47,0-.73-.28-.62-.62A22.41,22.41,0,0,1,39,.23.64.64,0,0,1,39.58,0a.65.65,0,0,1,.28.58,21.4,21.4,0,0,1-.8,2.2C39,3,38.8,3,38.74,3.09Z"/><path class="cls-1" d="M40.21,4.4c.06-.06.14-.25.28-.33.6-.38,1.21-.72,1.82-1.08a.49.49,0,0,1,.73.16.48.48,0,0,1-.19.72c-.62.37-1.24.74-1.87,1.08C40.6,5.16,40.21,4.92,40.21,4.4Z"/><path class="cls-1" d="M42.77,7.14c-.34,0-.68,0-1-.08a.51.51,0,0,1,.07-1,15.75,15.75,0,0,1,1.82.14.73.73,0,0,1,.44.48c.07.3-.17.49-.47.51a5.92,5.92,0,0,1-.84,0Z"/><path class="cls-1" d="M6.57,32.18c-.14-.18-.37-.34-.41-.53s.15-.52.47-.58l2.94-.63,8.83-1.86c.36-.08.65,0,.74.36s-.16.57-.52.65L6.85,32.08l-.19,0Z"/><path class="cls-1" d="M7.4,28.52a1.66,1.66,0,0,1-1.84-1.19c-.21-.85-.39-1.71-.55-2.57a1.51,1.51,0,0,1,1.12-1.69c1.09-.26,2.18-.47,3.28-.64a1.54,1.54,0,0,1,1.67,1.29c.17.84.31,1.69.44,2.54a1.48,1.48,0,0,1-1,1.66C9.38,28.19,8.25,28.36,7.4,28.52Zm2-5.45c-1,.2-2,.39-2.94.62a.86.86,0,0,0-.74,1.15c.14.77.31,1.53.49,2.29a.87.87,0,0,0,1,.7c.92-.15,1.85-.31,2.77-.49a.85.85,0,0,0,.8-1.1c-.11-.8-.25-1.58-.41-2.37A1,1,0,0,0,9.41,23.07Z"/><path class="cls-1" d="M7.05,35c-.14-.17-.35-.33-.4-.53s.15-.52.47-.58c1-.22,2.05-.46,3.08-.65l5.65-1c.36-.06.65,0,.74.38s-.19.57-.56.64L7.34,34.91l-.19,0Z"/><path class="cls-1" d="M40.31,27.13c.35,0,.58.18.62.52a.51.51,0,0,1-.5.57l-5.65,1c-.31.05-.59,0-.68-.34a.47.47,0,0,1,.39-.64C36.43,27.83,38.37,27.48,40.31,27.13Z"/><path class="cls-1" d="M36,26.91c-.13,0-.29.05-.37,0s-.44-.33-.44-.5.27-.49.43-.49A6,6,0,0,0,38,25.32c.15-.07.49.09.61.24s0,.54-.25.69A5.17,5.17,0,0,1,36,26.91Z"/><path class="cls-1" d="M10.07,25.39a3.8,3.8,0,0,1-.71.52,8.94,8.94,0,0,1-1.51.43.81.81,0,0,1-.64-.17.43.43,0,0,1,.12-.68,2.93,2.93,0,0,1,2-.57C9.56,25,9.74,25.17,10.07,25.39Z"/></g></g></g></svg>