<svg xmlns="http://www.w3.org/2000/svg" viewBox="0 0 36.91 44.74"><defs><style>.cls-1{fill:#f1e337;}</style></defs><g id="Capa_2" data-name="Capa 2"><g id="Capa_1-2" data-name="Capa 1"><g id="YceAkK"><path class="cls-1" d="M20.55,8.69c1.38.2,2.76.3,4.08.63,6,1.51,9.6,5.42,11,11.38a14.93,14.93,0,0,1-2.35,12.23.93.93,0,0,0-.13.57c.1,1.06.23,2.12.32,3.18a2,2,0,0,1-.72,1.88c.74.21,1.52.09,2.24.69a7.42,7.42,0,0,1-.93.32,18.75,18.75,0,0,1-6,.06l-.35-.05a2.14,2.14,0,0,1-1.76-.78c0,.83.05,1.64,0,2.44a3.16,3.16,0,0,1-1.08,2.16,24,24,0,0,1,5.27.58l0,.19a5,5,0,0,1-.72.23,36.06,36.06,0,0,1-6.73.31c-1.27,0-2.54-.15-3.8-.28a2.49,2.49,0,0,1-2.21-2.57c0-.65,0-1.31,0-2a9.26,9.26,0,0,0-1.6-.15,21.34,21.34,0,0,1-6.62-.43l-.51-.12a2.17,2.17,0,0,1-1.77-2.34c0-.49,0-1,0-1.48a.64.64,0,0,0-.47-.64,9.78,9.78,0,0,1-5.27-5.3A5.58,5.58,0,0,1,0,27.8a3.17,3.17,0,0,1,2.5-3.65L3,24a9,9,0,0,1,.38-3.47c.37-1.09.85-2.14,1.3-3.26A5.9,5.9,0,0,1,2.78,15a5.62,5.62,0,0,1-.49-2.91A3.2,3.2,0,0,1,5.11,9.16,5.91,5.91,0,0,1,11,11.11l.25.29,2-1-.3-.22c-3.12-2-3.66-6.12-.39-8.82a5.51,5.51,0,0,1,6-.83A5.28,5.28,0,0,1,20.82,8.3ZM9.42,35.87a.48.48,0,0,0,.06.11l.15.09A17.56,17.56,0,0,0,23,38.34C29.93,36.71,36,30,34.82,21.7a13.41,13.41,0,0,0-4.27-8.29A14.51,14.51,0,0,0,19.63,9.78a1.54,1.54,0,0,0-.49.15c-1.4.7-2.81,1.39-4.46,1a.8.8,0,0,0-.42.09,20.17,20.17,0,0,0-4.13,2.19,14.8,14.8,0,0,0-5.61,6.63,8.91,8.91,0,0,0-.65,3.76l.82-.06A11.85,11.85,0,0,1,12.41,26,7.87,7.87,0,0,1,15,29.18a4.38,4.38,0,0,1-2.55,6.09,8.65,8.65,0,0,1-1.35.36C10.58,35.74,10,35.79,9.42,35.87Zm-.16-1.24a12.07,12.07,0,0,0,1.2-.22,1.57,1.57,0,0,0,1.23-1.77,4.36,4.36,0,0,0-.31-1.35,11.82,11.82,0,0,0-5.69-5.95,4.12,4.12,0,0,0-2.47-.41,2.45,2.45,0,0,0-2.3,2.19A3.85,3.85,0,0,0,1,28.29C1.84,31.61,5.71,34.57,9.26,34.63Zm6.9-24.77a4.56,4.56,0,0,0,4.62-4.47A4.42,4.42,0,0,0,16.24,1a4.54,4.54,0,0,0-4.58,4.46A4.47,4.47,0,0,0,16.16,9.86ZM17.63,40c0,.76-.06,1.46,0,2.15A1.26,1.26,0,0,0,19,43.42c1.18,0,2.36,0,3.54-.09a2.42,2.42,0,0,0,2.12-1.2,4.87,4.87,0,0,0,.23-3.07A17.24,17.24,0,0,1,17.63,40ZM6.34,24.41l0,.15c.12.07.25.13.37.21A13.31,13.31,0,0,1,12.3,31.1a3.35,3.35,0,0,1-.22,3.35,3.52,3.52,0,0,0,2.39-2.64A4.4,4.4,0,0,0,13.2,28,9.88,9.88,0,0,0,9,25.19C8.13,24.87,7.22,24.67,6.34,24.41ZM7.74,13.8c-.51-.52-1-1.06-1.53-1.56a4,4,0,0,0-1.91-1c-.72-.17-.9-.06-1,.66a4.76,4.76,0,0,0,2,4.66ZM32.26,34.15a18.82,18.82,0,0,1-5.48,4.21,1.59,1.59,0,0,0,.68.26,11.4,11.4,0,0,0,4.07-.47,1.21,1.21,0,0,0,1-1.44C32.48,35.9,32.36,35.09,32.26,34.15ZM10.41,11.89a4.84,4.84,0,0,0-5.76-1.55,7.73,7.73,0,0,1,3.8,2.93Zm1.2,26.61-4.5-2.7V37a1,1,0,0,0,.71,1A8.6,8.6,0,0,0,11.61,38.5Z"/><path class="cls-1" d="M30.55,9.84c.08-.18.11-.29.17-.39.69-1.31,1.4-2.62,2.09-3.93.15-.28.34-.51.69-.32s.3.45.14.74q-1.06,2-2.12,4c-.13.24-.3.44-.58.32S30.67,10,30.55,9.84Z"/><path class="cls-1" d="M36.91,8.67a3.55,3.55,0,0,1-.25.43l-2.54,3.13c-.21.26-.46.39-.74.14s-.17-.48,0-.73c.85-1.05,1.7-2.11,2.57-3.15a.74.74,0,0,1,.56-.19C36.67,8.31,36.78,8.53,36.91,8.67Z"/><path class="cls-1" d="M29.25,7c-.05.8-.09,1.4-.12,2,0,.33-.14.55-.49.53s-.43-.25-.42-.56c.07-1.21.13-2.42.2-3.63,0-.29.16-.47.47-.46s.45.23.44.53Z"/><path class="cls-1" d="M26,15a11.87,11.87,0,0,1,1.72.56,2.72,2.72,0,0,1,1.36,3.35,6.72,6.72,0,0,1-2.82,3.89,22.62,22.62,0,0,1-3,1.65c-.67.32-1,0-.93-.76a9.5,9.5,0,0,0-.48-4.49,7,7,0,0,0-.67-1.37.88.88,0,0,0-1.61.07,2.66,2.66,0,0,0-.26.6c-.09.32-.24.56-.61.46s-.38-.37-.29-.7a2.37,2.37,0,0,1,2.05-1.87c1.08-.19,2.13-.61,3.2-.89C24.39,15.31,25.15,15.18,26,15Zm-2.71,8.41A9,9,0,0,0,26.88,21a5.34,5.34,0,0,0,1.33-2.43,1.93,1.93,0,0,0-1.53-2.47,3.1,3.1,0,0,0-1.17-.07c-.89.17-1.76.4-2.63.62-.38.09-.75.23-1.12.35A10.24,10.24,0,0,1,23.29,23.41Z"/><path class="cls-1" d="M15.44,16.05c-.76-.41-1.57-.8-2.33-1.28-.28-.18-.08-.49.16-.7a11.89,11.89,0,0,1,4.38-2.47,11.47,11.47,0,0,1,3.53-.55,1.34,1.34,0,0,1,.72.23c.57.42,1.12.88,1.67,1.33.21.17.42.35.3.66s-.39.31-.66.31a12.07,12.07,0,0,0-6.5,1.74c-.32.19-.61.4-.92.6A2.05,2.05,0,0,1,15.44,16.05Zm6.63-3.46A1.8,1.8,0,0,0,20.65,12a11.22,11.22,0,0,0-6,2.19,4.11,4.11,0,0,0-.35.29,8.93,8.93,0,0,1,.82.41.62.62,0,0,0,.71-.05,27.65,27.65,0,0,1,3.11-1.48A27.5,27.5,0,0,1,22.07,12.59Z"/><path class="cls-1" d="M16.33,22.05a1.76,1.76,0,1,1-3.51,0,1.76,1.76,0,0,1,3.51,0Z"/><path class="cls-1" d="M5.28,19.9a2.49,2.49,0,0,1,1.83-2.15A1,1,0,0,1,8.2,18.93a5.7,5.7,0,0,1-.74,1.79,1.1,1.1,0,0,1-1.36.42A1.36,1.36,0,0,1,5.28,19.9Z"/><path class="cls-1" d="M2.71,29.13c0-1,.4-1.48,1-1.54a1.59,1.59,0,0,1,1.49,1.2,1.3,1.3,0,0,1-.46,1.38,1.09,1.09,0,0,1-1.23.13A1.35,1.35,0,0,1,2.71,29.13Zm1-.61c-.18.39-.11.88.14.94a.47.47,0,0,0,.37-.19C4.41,29,4.18,28.71,3.75,28.52Z"/><path class="cls-1" d="M7.31,31.25a1.2,1.2,0,0,1,1.07-1.31,1.46,1.46,0,0,1,1.35,1.31c0,.69-.69,1.54-1.21,1.52A1.42,1.42,0,0,1,7.31,31.25Zm1-.35c-.18.37-.13.84.13.91a.41.41,0,0,0,.37-.17C9,31.36,8.78,31,8.36,30.9Z"/><path class="cls-1" d="M14.91,2.79c-.14-.58,0-.91.3-1s.47.12.61.67a9.47,9.47,0,0,1,1.05.26c.27.1.51.29.37.63s-.42.36-.73.21a1.08,1.08,0,0,0-1.24.11.81.81,0,0,0-.24.63c0,.15.31.31.51.36a9,9,0,0,0,.91.08A1.76,1.76,0,0,1,18,5.87a1.58,1.58,0,0,1-.37,1.78.47.47,0,0,0-.08.37c0,.3.07.58-.29.68s-.51-.07-.61-.39c0-.1-.18-.19-.3-.24a6.68,6.68,0,0,1-.87-.37A.48.48,0,0,1,15.31,7c.23-.26.46-.15.74,0a1,1,0,0,0,.8.09.78.78,0,0,0,.32-.64.89.89,0,0,0-.43-.58,1.85,1.85,0,0,0-.85-.18c-1,0-1.53-.32-1.76-1S14.13,3.43,14.91,2.79Z"/></g></g></g></svg>