<svg xmlns="http://www.w3.org/2000/svg" viewBox="0 0 29.19 40.36"><defs><style>.cls-1{fill:#f1e337;}</style></defs><g id="Capa_2" data-name="Capa 2"><g id="Capa_1-2" data-name="Capa 1"><g id="INv2p7"><path class="cls-1" d="M0,23.42A28.13,28.13,0,0,1,4.51,8.78,14,14,0,0,1,8.07,4.86,8,8,0,0,1,13,3.2a6.13,6.13,0,0,1,2.62.67.9.9,0,0,0,.47.13,5.8,5.8,0,0,1,5.49,2.6,14.34,14.34,0,0,1,2.5,6,30.88,30.88,0,0,1,.15,10.33,35.36,35.36,0,0,1-1,5.51,25.85,25.85,0,0,1-3.4,7.62,10.11,10.11,0,0,1-4.15,3.68,8,8,0,0,1-4.93.42,27.84,27.84,0,0,1-3.46-.88A8.9,8.9,0,0,1,1.64,33.8,27.28,27.28,0,0,1,0,23.42Zm5.56,1.66a26.87,26.87,0,0,0,.61,6.37A12.48,12.48,0,0,0,8.6,36.83a4.74,4.74,0,0,0,4.51,1.93,6.61,6.61,0,0,0,3.22-1.53,15.55,15.55,0,0,0,4.07-5.35,31.1,31.1,0,0,0,3-18.08,14.92,14.92,0,0,0-2-5.92,6.18,6.18,0,0,0-2.95-2.67,5,5,0,0,0-4.76.72A13.23,13.23,0,0,0,9.6,10.46,30.16,30.16,0,0,0,5.56,25.08Zm-.83,3.41c0-.52-.07-1-.09-1.47a32.74,32.74,0,0,1,.73-8A.49.49,0,0,0,5,18.33a4.79,4.79,0,0,0-3.08-.19.47.47,0,0,0-.39.42A29.4,29.4,0,0,0,1,26.22c.05.82.17,1.64.26,2.53A5.52,5.52,0,0,1,4.73,28.49ZM9.43,9A5.1,5.1,0,0,0,6.72,8,.7.7,0,0,0,6,8.27a24.81,24.81,0,0,0-3.59,7.09c-.19.59-.35,1.18-.55,1.84a5.87,5.87,0,0,1,3.82.41A27.89,27.89,0,0,1,9.43,9ZM4.86,29.51a4.33,4.33,0,0,0-3.09,0c-.21.08-.35.18-.29.46A17.64,17.64,0,0,0,3.11,34.7c.3.52.66,1,.93,1.42L6.5,35.3A19.1,19.1,0,0,1,4.86,29.51ZM10,8.05c.62-.63,1.24-1.37,2-2s1.57-1.14,2.33-1.67c-1.82-.91-6.05.6-7.12,2.55ZM9.07,38.73,7.16,36.45A.27.27,0,0,0,7,36.34a3.49,3.49,0,0,0-2.11.55A8.64,8.64,0,0,0,9.07,38.73Z"/><path class="cls-1" d="M29.19,6.57c-.09.07-.22.25-.39.3-.87.23-1.75.44-2.64.65a.42.42,0,0,1-.57-.3.42.42,0,0,1,.32-.59c.9-.23,1.81-.46,2.72-.67C29,5.89,29.2,6.12,29.19,6.57Z"/><path class="cls-1" d="M24.11,4.71c-.41,0-.69-.39-.47-.68.55-.77,1.13-1.52,1.74-2.24a.64.64,0,0,1,.59,0,.56.56,0,0,1,.11.54c-.55.77-1.14,1.51-1.73,2.25C24.29,4.65,24.16,4.68,24.11,4.71Z"/><path class="cls-1" d="M22.35.74c-.05.65-.1,1.27-.15,1.89,0,.31-.17.52-.5.49s-.44-.27-.42-.58c0-.65.1-1.3.14-1.95,0-.33.11-.61.5-.59s.47.3.43.64Z"/><path class="cls-1" d="M21.62,19.05c-.2,4.35-1,7.9-3,11.1a9.07,9.07,0,0,1-2.88,3,3.94,3.94,0,0,1-5.53-.93,9.4,9.4,0,0,1-1.88-4.51A20.66,20.66,0,0,1,11,13.7a8.61,8.61,0,0,1,3-3.16,4,4,0,0,1,5.4,1,8.7,8.7,0,0,1,1.81,4.17C21.45,17,21.54,18.34,21.62,19.05Zm-1,0c-.07-.68-.13-1.7-.29-2.7a8.84,8.84,0,0,0-1.59-4.09,3.08,3.08,0,0,0-4.49-.78,8,8,0,0,0-2.5,2.69A19.82,19.82,0,0,0,9.25,27.6a8.5,8.5,0,0,0,1.65,4,3,3,0,0,0,4.27.77,7.63,7.63,0,0,0,2.38-2.35C19.71,26.84,20.52,23.21,20.66,19Z"/><path class="cls-1" d="M18.8,8.65c-.13.14-.23.33-.35.35a.7.7,0,0,1-.55-.16,2,2,0,0,0-1.75-.68,3,3,0,0,0-.8.25c-.29.13-.53.11-.68-.18s0-.49.23-.64a3,3,0,0,1,3.58.51A2.75,2.75,0,0,1,18.8,8.65Z"/><path class="cls-1" d="M13,37.14a4.76,4.76,0,0,1-2.46-.72c-.29-.17-.48-.4-.26-.73s.47-.24.74-.07a4,4,0,0,0,2.27.59c.44,0,.7.15.68.45s-.29.49-.63.48Z"/><path class="cls-1" d="M14.5,27.42c-.51,0-.92,0-1.32,0A1.4,1.4,0,0,1,12,26.57c-.13-.27-.13-.53.17-.69s.48,0,.64.23a1.19,1.19,0,0,0,1.48.3.28.28,0,0,0,.12-.19c0-1.26,0-2.52,0-3.8-.52.06-.93.13-1.35.14a1.23,1.23,0,0,1-1.36-1.38A4,4,0,0,1,12,20a6.36,6.36,0,0,1,2.07-2.61.77.77,0,0,0,.26-.5c0-.41,0-.83,0-1.24s.13-.57.5-.55.44.26.44.56,0,.74,0,1.14h.53a2.22,2.22,0,0,1,2,1.16c.17.27.22.56-.09.75s-.54,0-.7-.25a1.28,1.28,0,0,0-1.42-.7c-.11,0-.29.14-.29.22,0,1.07,0,2.14,0,3.24.37-.06.68-.1,1-.16a1.68,1.68,0,0,1,1.87,2,5.52,5.52,0,0,1-2.43,3.79.61.61,0,0,0-.32.62c0,.45,0,.91,0,1.36s-.12.58-.48.58-.46-.23-.46-.55S14.5,27.87,14.5,27.42Zm.86-5.28v3.64l.11.06c.3-.34.63-.67.91-1a4,4,0,0,0,.84-1.93.75.75,0,0,0-.89-.92A9.79,9.79,0,0,0,15.36,22.14Zm-1-3.71-.1-.05c-.22.25-.47.48-.67.74a4.17,4.17,0,0,0-.92,1.9c-.08.45.11.66.55.62s.77-.14,1.14-.2Z"/></g></g></g></svg>