<svg xmlns="http://www.w3.org/2000/svg" viewBox="0 0 875.69 25.22"><defs><style>.cls-1{fill:#f1e337;}</style></defs><g id="Capa_2" data-name="Capa 2"><g id="Capa_1-2" data-name="Capa 1"><path class="cls-1" d="M5.59,21.65Q87,17.56,168.45,15.1q81.87-2.44,163.79-3.18,83.76-.75,167.53.3,85.46,1.08,170.88,4,88.58,3,177.09,7.79,11.18.6,22.36,1.24c7.46.42,7.44-11.19,0-11.61q-88.89-5-177.85-8.28Q606.54,2.22,520.77.9q-84-1.26-168-.75Q270.73.68,188.71,2.91q-81.54,2.24-163,6.14L5.59,10c-7.43.37-7.48,12,0,11.61Z"/></g></g></svg>