<svg xmlns="http://www.w3.org/2000/svg" viewBox="0 0 42.82 30.66"><defs><style>.cls-1{fill:#f9eb37;}</style></defs><g id="Capa_2" data-name="Capa 2"><g id="TEXTOS"><g id="q0Hpm0"><path class="cls-1" d="M19.9,30.66h-1l-1,0-1.44,0-.85,0h-.75l-.55,0-1.77-.06c-.76,0-1.56-.07-2.38-.13-1.09-.07-2.16-.15-3.24-.29H6.81a8.65,8.65,0,0,1-1.67-.33A6.22,6.22,0,0,1,.78,25a23.17,23.17,0,0,1-.44-2.84c-.09-.87-.16-1.77-.21-2.68,0-.45,0-.9-.07-1.35l0-.5c0-1.17,0-2.42,0-4,0-1,.07-2,.15-3,0-.76.13-1.77.26-2.78A16.13,16.13,0,0,1,.86,5.38,6.19,6.19,0,0,1,5.4.86a14,14,0,0,1,2-.33L9.05.38c.47,0,.95-.07,1.43-.09L12,.21l.64,0h.15l1.3,0,.66,0c.91,0,1.82,0,2.73-.06L19.1,0c1.42,0,2.84,0,4.22,0h.87l1.59,0,1,0,.81,0L30,.17c1,0,1.8.08,2.53.13S34,.39,34.63.46l.23,0a14.11,14.11,0,0,1,2.52.38,6.15,6.15,0,0,1,4.56,4.47A18.17,18.17,0,0,1,42.41,8c.1.85.17,1.7.23,2.5,0,.53.07,1.07.09,1.61,0,.34,0,.68,0,1s0,.58,0,.87c0,.84,0,1.58,0,2.25l0,.54c0,.74,0,1.5-.08,2.26l0,.55c0,.36,0,.72-.07,1.08,0,.59-.1,1.21-.17,1.82s-.19,1.47-.33,2.18a6.93,6.93,0,0,1-1.06,2.66,6.16,6.16,0,0,1-3.83,2.56,19,19,0,0,1-2.19.32l-1.74.15-.57,0-.77,0-3.35.14-1.34,0c-.49,0-1,0-1.48,0l-1.32,0c-.67,0-1.34,0-2,0H19.9ZM12.81,2.42h0l-.65,0-1.53.08-1.38.1c-.47,0-1,.08-1.56.14A11.8,11.8,0,0,0,6,3,3.87,3.87,0,0,0,3,6a14.07,14.07,0,0,0-.37,2c-.12,1-.2,1.93-.25,2.66-.07,1-.11,2-.13,2.91,0,1.57,0,2.77,0,3.89l0,.51.06,1.32c0,.87.12,1.74.21,2.57A21,21,0,0,0,3,24.46a3.93,3.93,0,0,0,2.85,3.13,7.67,7.67,0,0,0,1.28.24h.11c1,.13,2.05.21,3.1.28l2.32.12,1.75.06.55,0h.71l.92,0c.44,0,.89,0,1.36,0l1,0c.55,0,1.12,0,1.67,0h1.84c.63,0,1.28,0,1.9,0,.46,0,.92,0,1.38,0s.95,0,1.42,0l1.37,0h.64l2.66-.13.7,0,.57-.05c.55,0,1.12-.08,1.68-.14a16.63,16.63,0,0,0,1.93-.28A3.92,3.92,0,0,0,39.2,26a4.75,4.75,0,0,0,.7-1.81c.13-.64.23-1.31.3-2s.12-1.19.17-1.75l.06-1,0-.56c0-.72.07-1.46.08-2.18l0-.54c0-.64,0-1.31,0-2.12l0-.87c0-.34,0-.67,0-1,0-.52,0-1-.08-1.53-.06-.77-.13-1.59-.23-2.39a14.83,14.83,0,0,0-.4-2.29,3.94,3.94,0,0,0-3-2.91,14.4,14.4,0,0,0-2.16-.31l-.23,0-2-.16-2.49-.12-2.33-.08-.79,0-1.11,0c-.49,0-1,0-1.5,0h-.9c-1.35,0-2.74,0-4.13,0l-1.6,0c-.9,0-1.8,0-2.7,0l-.64,0C13.75,2.4,13.28,2.42,12.81,2.42Zm4.61,20A1.27,1.27,0,0,1,17,22.4a1.09,1.09,0,0,1-.64-.59,1.58,1.58,0,0,1-.14-.72V9.6a1.22,1.22,0,0,1,2-1.12l7.62,4.4,2.22,1.28a1.27,1.27,0,0,1,.83,1.17,1.25,1.25,0,0,1-.84,1.18l-4.18,2.42-5.73,3.31-.18.09,0,0A1.11,1.11,0,0,1,17.42,22.47Zm1.09-11.22v8.17L22.74,17l2.85-1.65-.88-.5Z"/></g></g></g></svg>