<svg xmlns="http://www.w3.org/2000/svg" viewBox="0 0 33.57 24.04"><g id="Capa_2" data-name="Capa 2"><g id="TEXTOS"><g id="q0Hpm0"><path d="M15.6,24H14L12.9,24H11.65l-.43,0L9.83,23.9c-.59,0-1.23,0-1.86-.1-.86-.05-1.7-.11-2.54-.22H5.34A7.22,7.22,0,0,1,4,23.31,4.87,4.87,0,0,1,.61,19.57a19.32,19.32,0,0,1-.35-2.23C.19,16.66.14,16,.1,15.24c0-.35,0-.7,0-1.06l0-.39c0-.92,0-1.9,0-3.17,0-.77.05-1.56.11-2.36,0-.6.1-1.39.21-2.19A12.58,12.58,0,0,1,.68,4.22,4.8,4.8,0,0,1,4.24.68,9.08,9.08,0,0,1,5.83.42L7.09.3,8.22.22,9.43.16l.5,0h.12l1,0,.52,0,2.14,0L15,0c1.11,0,2.22,0,3.3,0H19c.4,0,.82,0,1.24,0l.82,0h.64l1.86.06,2,.1,1.64.13h.18a11.73,11.73,0,0,1,2,.3,4.83,4.83,0,0,1,3.57,3.51,13.93,13.93,0,0,1,.37,2.05c.08.67.13,1.33.18,2,0,.42.06.84.07,1.27l0,.79c0,.23,0,.46,0,.68,0,.66,0,1.24,0,1.77v.42c0,.58,0,1.18-.07,1.77,0,.15,0,.29,0,.43s0,.57-.05.85c0,.47-.09.95-.14,1.43s-.15,1.15-.26,1.71a5.19,5.19,0,0,1-.83,2.08,4.8,4.8,0,0,1-3,2,14.72,14.72,0,0,1-1.71.25l-1.37.12-.45,0-.6,0L22.42,24l-1,0-1.17,0h-1c-.53,0-1.05,0-1.56,0h-2ZM10,1.9h0l-.5,0L8.32,2l-1.08.07L6,2.17a9.1,9.1,0,0,0-1.32.21A3,3,0,0,0,2.38,4.69,10.73,10.73,0,0,0,2.09,6.3c-.1.75-.16,1.51-.2,2.08,0,.78-.09,1.54-.11,2.28,0,1.23,0,2.17,0,3.05v.4c0,.35,0,.69.05,1,0,.68.09,1.36.16,2a18.61,18.61,0,0,0,.31,2,3.08,3.08,0,0,0,2.23,2.45,5.67,5.67,0,0,0,1,.19h.08c.8.1,1.61.16,2.44.21l1.81.1,1.38.05h1l.72,0,1.07,0h3.58c.49,0,1,0,1.49,0l1.08,0,1.11,0,1.07,0h.51l2.08-.1.55,0L26,22l1.31-.11a13.92,13.92,0,0,0,1.52-.22,3.11,3.11,0,0,0,1.94-1.3A3.68,3.68,0,0,0,31.28,19q.15-.76.24-1.56c.05-.46.09-.93.13-1.37,0-.27,0-.54.05-.81s0-.3,0-.44c0-.57.05-1.15.07-1.71v-.43c0-.5,0-1,0-1.66l0-.68c0-.26,0-.53,0-.79s0-.81-.07-1.2c0-.6-.1-1.24-.17-1.87a13.7,13.7,0,0,0-.32-1.79,3.05,3.05,0,0,0-2.32-2.28,11.08,11.08,0,0,0-1.69-.25l-.18,0L25.4,2,23.45,1.9l-1.83-.07H21l-.87,0L19,1.78h-.71c-1.05,0-2.14,0-3.24,0l-1.25,0-2.12,0-.5,0C10.78,1.88,10.41,1.9,10,1.9Zm3.62,15.71a.79.79,0,0,1-.3-.05.89.89,0,0,1-.51-.46,1.29,1.29,0,0,1-.1-.56v-9a1,1,0,0,1,1.53-.89l6,3.45,1.74,1a1,1,0,0,1,0,1.84l-3.28,1.9-4.49,2.59a.61.61,0,0,1-.14.07l0,0A.92.92,0,0,1,13.66,17.61Zm.85-8.79v6.4l3.32-1.91L20.06,12l-.69-.4Z"/></g></g></g></svg>