<svg width="21" height="21" viewBox="0 0 21 21" fill="none" xmlns="http://www.w3.org/2000/svg">
<g clip-path="url(#clip0_28_5465)">
<path d="M0.65625 10.5C0.65625 12.4359 1.21406 14.2406 2.16562 15.75H18.8016C19.7531 14.2406 20.3109 12.4359 20.3109 10.5C20.3109 8.56406 19.7531 6.75937 18.8016 5.25H2.16562C1.21406 6.75937 0.65625 8.56406 0.65625 10.5Z" fill="#FFCE31"/>
<path d="M18.8344 5.25C17.0953 2.49375 14.011 0.65625 10.5 0.65625C6.98909 0.65625 3.90471 2.49375 2.16565 5.25H18.8344ZM2.16565 15.75C3.90471 18.5063 6.98909 20.3438 10.5 20.3438C14.011 20.3438 17.0953 18.5063 18.8344 15.75H2.16565Z" fill="#ED4C5C"/>
<path d="M3.01874 9.41718H4.06874V10.0078H3.01874V9.41718ZM3.01874 13.7484H4.10155V14.3062H3.01874V13.7484Z" fill="#C8B100"/>
<path d="M2.92029 12.8297C2.82185 12.8953 2.75623 12.961 2.75623 12.9938C2.75623 13.0266 2.78904 13.0594 2.85466 13.0922C2.92029 13.125 2.98591 13.1907 2.9531 13.2563C3.01873 13.1907 3.05154 13.125 3.05154 13.0594C3.05154 12.961 2.98591 12.8625 2.92029 12.8297Z" fill="#ED4C5C"/>
<path d="M3.1828 10.0078H3.93749V13.7484H3.1828V10.0078Z" fill="white"/>
<path d="M4.72502 11.3859C4.56096 11.3203 4.26565 11.2547 3.93752 11.2547C3.83908 11.2547 3.70783 11.2547 3.57658 11.2875C3.11721 11.3531 2.75627 11.55 2.78908 11.6812L2.62502 11.3203C2.59221 11.1562 2.98596 10.9594 3.47815 10.8609C3.64221 10.8281 3.80627 10.8281 3.93752 10.8281C4.26565 10.8281 4.56096 10.8609 4.72502 10.9266V11.3859Z" fill="#ED4C5C"/>
<path d="M3.18284 11.8781C2.98596 11.8781 2.8219 11.8125 2.8219 11.7141C2.8219 11.6484 2.88752 11.55 3.01877 11.4844H3.21565L3.18284 11.8781ZM3.93752 11.5828C4.06877 11.6156 4.16721 11.6484 4.23284 11.6812C4.26565 11.7141 4.1344 11.8453 3.93752 11.9438V11.5828Z" fill="#ED4C5C"/>
<path d="M2.69063 12.6C2.65781 12.5344 2.8875 12.4031 3.18281 12.3047C3.31406 12.2719 3.4125 12.2063 3.57656 12.1406C3.97031 11.9766 4.29844 11.7469 4.23281 11.6813L4.29844 12.075C4.33125 12.1406 4.06875 12.3375 3.675 12.5344C3.54375 12.6 3.31406 12.6985 3.18281 12.7313C2.95313 12.7969 2.75625 12.9281 2.75625 12.961L2.69063 12.6Z" fill="#ED4C5C"/>
<path d="M10.0735 9.41718H11.1235V10.0078H10.0735V9.41718ZM10.0406 13.7484H11.1235V14.3062H10.0406V13.7484Z" fill="#C8B100"/>
<path d="M11.2219 12.8297C11.3203 12.8953 11.386 12.961 11.386 12.9938C11.386 13.0266 11.3531 13.0594 11.2875 13.0922C11.2219 13.1578 11.1563 13.2563 11.1891 13.2891C11.1234 13.2235 11.0906 13.1578 11.0906 13.0922C11.0906 12.961 11.1563 12.8625 11.2219 12.8297Z" fill="#ED4C5C"/>
<path d="M10.2047 10.0078H10.9594V13.7484H10.2047V10.0078Z" fill="white"/>
<path d="M9.41718 11.3859C9.58124 11.3203 9.87655 11.2547 10.2047 11.2547C10.3031 11.2547 10.4344 11.2547 10.5656 11.2875C11.025 11.3531 11.3859 11.55 11.3531 11.6812L11.5172 11.2875C11.55 11.1234 11.1562 10.9266 10.6641 10.8281H10.2047C9.87655 10.8281 9.58124 10.8609 9.41718 10.9266V11.3859Z" fill="#ED4C5C"/>
<path d="M10.9594 11.8781C11.1563 11.8781 11.3203 11.8125 11.3203 11.7141C11.3203 11.6484 11.2547 11.55 11.1234 11.4844H10.9266L10.9594 11.8781ZM10.2047 11.5828C10.0734 11.6156 9.97501 11.6484 9.90938 11.6812C9.87657 11.7141 10.0078 11.8453 10.2047 11.9438V11.5828Z" fill="#ED4C5C"/>
<path d="M11.4516 12.6C11.4844 12.5344 11.2547 12.4031 10.9594 12.3047C10.8281 12.2719 10.7297 12.2063 10.5656 12.1406C10.1719 11.9766 9.84376 11.7469 9.90939 11.6813L9.84376 12.075C9.81095 12.1406 10.0734 12.3375 10.4672 12.5344C10.5984 12.6 10.8281 12.6984 10.9594 12.7313C11.1891 12.7969 11.3859 12.9609 11.3531 12.9938L11.4516 12.6ZM7.0547 7.3172C7.67814 7.3172 8.95782 7.44845 9.4172 7.90783C8.92501 9.08907 8.13751 8.59689 7.0547 8.59689C6.0047 8.59689 5.18439 9.08907 4.6922 7.90783C5.15157 7.44845 6.39845 7.3172 7.0547 7.3172Z" fill="#ED4C5C"/>
<path d="M8.66251 8.62969C8.26876 8.4 7.67814 8.36719 7.0547 8.36719C6.43126 8.36719 5.84064 8.43281 5.44689 8.62969L5.57814 9.1875C5.93907 9.28594 6.46407 9.35156 7.0547 9.35156C7.64532 9.35156 8.13751 9.28594 8.53126 9.1875L8.66251 8.62969ZM9.22032 7.21875C9.08908 7.12031 8.82658 7.02187 8.59689 7.02187C8.49845 7.02187 8.40001 7.02187 8.30157 7.05469C8.30157 7.05469 8.1047 6.79219 7.64532 6.79219C7.48126 6.79219 7.35001 6.825 7.21876 6.89062V6.85781C7.18595 6.79219 7.12032 6.72656 7.0547 6.72656C6.98907 6.72656 6.89064 6.825 6.89064 6.89062V6.92344C6.75939 6.85781 6.62814 6.825 6.46408 6.825C6.0047 6.825 5.80783 7.12031 5.80783 7.0875C5.70939 7.05469 5.61095 7.05469 5.51251 7.05469C4.00314 7.05469 4.75782 8.07188 4.75782 8.07188L4.92189 7.875C4.56095 7.41563 4.88907 7.15312 5.54532 7.15312C5.64376 7.15312 5.70939 7.15312 5.77501 7.18594C5.54532 7.51406 5.97189 7.80937 5.97189 7.80937L6.07032 7.64531C5.84064 7.48125 5.80783 6.92344 6.46408 6.92344C6.62814 6.92344 6.75939 6.95625 6.89064 7.05469C6.89064 7.0875 6.85782 7.54688 6.82501 7.6125L7.08751 7.84219L7.35001 7.6125C7.3172 7.51406 7.28439 7.0875 7.28439 7.05469C7.38283 6.98906 7.54689 6.92344 7.71095 6.92344C8.40001 6.92344 8.40001 7.48125 8.1047 7.64531L8.20314 7.80937C8.20314 7.80937 8.56407 7.51406 8.40001 7.18594C8.46564 7.18594 8.56407 7.15312 8.6297 7.15312C9.4172 7.15312 9.45001 7.74375 9.25314 7.875L9.38439 8.07188C9.31876 8.07188 9.6797 7.6125 9.22032 7.21875Z" fill="#C8B100"/>
<path d="M6.85779 6.59531C6.85779 6.49688 6.95623 6.39844 7.05466 6.39844C7.18591 6.39844 7.25154 6.49688 7.25154 6.59531C7.25154 6.69375 7.1531 6.79219 7.05466 6.79219C6.95623 6.79219 6.85779 6.69375 6.85779 6.59531Z" fill="#005BBF"/>
<path d="M6.98904 6.03748V6.13591H6.8906V6.23435H6.98904V6.56248H6.85779V6.66091H7.25154L7.28435 6.59529L7.25154 6.56248H7.12029V6.23435H7.21873V6.13591H7.12029V6.03748H6.98904Z" fill="#C8B100"/>
<path d="M7.05466 9.28595C6.52966 9.28595 6.07029 9.22032 5.70935 9.12189C6.07029 9.02345 6.52966 8.95782 7.05466 8.95782C7.57966 8.95782 8.03904 9.02345 8.39998 9.12189C8.07185 9.22032 7.57966 9.28595 7.05466 9.28595Z" fill="#ED4C5C"/>
<path d="M7.08748 14.9625C6.46404 14.9625 5.87341 14.7985 5.34841 14.5688C4.95466 14.3719 4.72498 14.011 4.72498 13.5844V12.0094H9.44998V13.5844C9.44998 14.011 9.18748 14.4047 8.82654 14.5688C8.30154 14.8313 7.71091 14.9625 7.08748 14.9625ZM7.05466 9.3844H9.41716V12.0094H7.05466V9.3844Z" fill="white"/>
<path d="M7.08748 13.5844C7.08748 14.2078 6.56248 14.7 5.90623 14.7C5.24998 14.7 4.72498 14.2078 4.72498 13.5844V12.0094H7.08748V13.5844Z" fill="#ED4C5C"/>
<path d="M5.2172 14.5031C5.28282 14.5359 5.38126 14.6015 5.51251 14.6343V11.9437H5.25001L5.2172 14.5031ZM4.6922 13.5515C4.6922 13.8797 4.82345 14.1422 4.9547 14.2734V11.9437H4.6922V13.5515Z" fill="#C8B100"/>
<path d="M5.74219 14.7H6.00469V11.9437H5.74219V14.7Z" fill="#C7B500"/>
<path d="M6.26721 14.6343C6.36565 14.6015 6.4969 14.5359 6.56252 14.5031V11.9437H6.30002L6.26721 14.6343Z" fill="#C8B100"/>
<path d="M4.6922 9.3844H7.0547V12.0094H4.6922V9.3844Z" fill="#ED4C5C"/>
<path d="M6.82501 14.2734C6.95626 14.175 7.0547 13.9453 7.08751 13.6828V11.9766H6.82501V14.2734Z" fill="#C8B100"/>
<path d="M9.44998 12.0094V13.5844C9.44998 14.2078 8.92498 14.7 8.26873 14.7C7.61248 14.7 7.08748 14.2078 7.08748 13.5844V12.0094H9.44998ZM8.59685 9.84373C8.69529 10.0406 8.69529 10.5328 8.39998 10.4344C8.4656 10.4672 8.49841 10.6969 8.59685 10.8281C8.76091 11.025 8.95779 10.8609 8.92498 10.6312C8.85935 10.2703 8.89216 10.0406 8.95779 9.67967C8.95779 9.71248 9.12185 9.71248 9.18748 9.64685C9.15466 9.74529 9.12185 9.87654 9.18748 9.87654C9.12185 9.97498 8.95779 10.139 8.92498 10.2375C8.89216 10.4672 9.2531 10.8937 8.85935 10.9922C8.59685 11.0578 8.76091 11.2547 8.85935 11.3531C8.85935 11.3531 8.7281 11.7797 8.79373 11.7469C8.53123 11.8453 8.59685 11.6156 8.59685 11.6156C8.7281 11.2219 8.36716 11.189 8.39998 11.1234C8.07185 11.0906 8.43279 11.4187 8.13748 11.4187C8.07185 11.4187 7.9406 11.4844 7.9406 11.4844C7.57966 11.4515 7.77654 11.1234 7.90779 11.1562C8.00623 11.189 8.10466 11.3531 8.10466 11.1234C8.10466 11.1234 7.9406 10.8609 8.36716 10.8609C8.2031 10.8609 8.10466 10.7297 8.03904 10.5656C7.97341 10.5984 7.87498 10.7625 7.51404 10.7953C7.51404 10.7953 7.4156 10.4344 7.51404 10.5C7.64529 10.5656 7.71091 10.5656 7.84216 10.4344C7.77654 10.3359 7.38279 10.2047 7.44841 9.97498C7.44841 9.90935 7.64529 9.81092 7.64529 9.81092C7.61248 9.97498 7.71091 10.139 7.90779 10.139C8.17029 10.1719 8.07185 10.0734 8.10466 10.0078C8.13748 9.94217 8.33435 10.0406 8.26873 9.87654C8.26873 9.84373 8.03904 9.81092 8.10466 9.71248C8.23591 9.54842 8.43279 9.67967 8.59685 9.84373ZM7.08748 14.6344L7.02185 14.4703L7.08748 14.2734L7.1531 14.4703L7.08748 14.6344Z" fill="#ED4C5C"/>
<path d="M5.41404 9.94219V10.1062H5.47966V10.2375H5.3156V10.5656H5.41404V11.2875H5.21716V11.6484H6.56248V11.2875H6.39841V10.5656H6.46404V10.2375H6.29998V10.1062H6.39841V9.94219H6.07029V10.1062H6.13591V10.2375H5.97185V9.84375H6.07029V9.67969H5.70935V9.84375H5.80779V10.2375H5.64373V10.1062H5.70935V9.94219H5.41404ZM9.12185 13.9781V12.3375H7.4156V13.9781L8.2031 14.3391H8.30154L9.12185 13.9781ZM8.2031 12.4688V13.0266L7.64529 12.4688H8.2031ZM7.51404 12.5016L8.17029 13.1578L7.51404 13.8141V12.5016ZM7.57966 13.9453L8.2031 13.3219V14.2406L7.57966 13.9453ZM8.30154 14.2078V13.2891L8.92498 13.9125L8.30154 14.2078ZM8.9906 13.8141L8.33435 13.1578L8.9906 12.5016V13.8141ZM8.30154 12.4688H8.85935L8.30154 13.0266V12.4688Z" fill="#C8B100"/>
<path d="M6.29999 11.9765C6.29999 11.4844 6.62811 11.1234 7.05468 11.1234C7.48124 11.1234 7.80936 11.5172 7.80936 11.9765C7.80936 12.4359 7.48124 12.8297 7.05468 12.8297C6.62811 12.8297 6.29999 12.4687 6.29999 11.9765Z" fill="#ED4C5C"/>
<path d="M6.52966 11.9766C6.52966 11.6156 6.75935 11.3531 7.05466 11.3531C7.34998 11.3531 7.57966 11.6485 7.57966 11.9766C7.57966 12.3375 7.34998 12.6 7.05466 12.6C6.79216 12.6328 6.52966 12.3375 6.52966 11.9766Z" fill="#005BBF"/>
<path d="M6.82498 11.55L6.69373 11.9109L6.79216 11.9437L6.72654 12.075H6.92341L6.85779 11.9437L6.95623 11.9109L6.82498 11.55ZM7.31716 11.55L7.18591 11.9109L7.28435 11.9437L7.21873 12.075H7.4156L7.38279 11.9437L7.48123 11.9109L7.31716 11.55ZM7.08748 11.9766L6.92341 12.3375L7.02185 12.3703L6.98904 12.5015H7.1531L7.12029 12.3703L7.21873 12.3375L7.08748 11.9766Z" fill="#C8B100"/>
</g>
<defs>
<clipPath id="clip0_28_5465">
<rect width="21" height="21" fill="white"/>
</clipPath>
</defs>
</svg>
