<svg width="64" height="64" viewBox="0 0 64 64" fill="none" xmlns="http://www.w3.org/2000/svg">
<path d="M32.0002 2C18.9002 2 7.8002 10.4 3.7002 22H60.3002C56.2002 10.4 45.1002 2 32.0002 2Z" fill="#FFE62E"/>
<path d="M32.0002 62C45.1002 62 56.2002 53.7 60.3002 42H3.7002C7.8002 53.7 18.9002 62 32.0002 62Z" fill="#ED4C5C"/>
<path d="M3.7 22C2.6 25.1 2 28.5 2 32C2 35.5 2.6 38.9 3.7 42H60.3C61.4 38.9 62 35.5 62 32C62 28.5 61.4 25.1 60.3 22H3.7Z" fill="#2A5F9E"/>
<path d="M34.6 27.1L35.6 28.2L35.4 26.7L36.7 26.1L35.3 25.8L35.1 24.4L34.4 25.7L32.9 25.4L33.9 26.5L33.2 27.8L34.6 27.1ZM29.2 27.2L30.5 27.8L29.8 26.5L30.8 25.4L29.3 25.7L28.6 24.4L28.4 25.9L26.9 26.1L28.3 26.8L28.2 28.2L29.2 27.2ZM24.2 29L25.7 29.2L24.5 28.2L25 26.9L23.7 27.6L22.5 26.6L23 28.1L21.7 28.8L23.2 28.9L23.6 30.4L24.2 29ZM20.2 32.5L21.7 32.1L20.2 31.6V30.1L19.3 31.3L17.8 30.8L18.7 32L17.9 33.1L19.3 32.7L20.3 33.9L20.2 32.5ZM17.9 37L19.1 36.1L17.5 36.2L17 34.8L16.6 36.2H15L16.3 37L15.9 38.4L17.1 37.5L18.5 38.3L17.9 37ZM46.1 36.8L45.6 38.2L46.9 37.3L48.1 38.2L47.7 36.8L49 36H47.4L47 34.7L46.5 36H44.9L46.1 36.8ZM43.6 32.3L43.7 33.7L44.6 32.6L46 32.9L45.1 31.8L46 30.6L44.6 31.1L43.6 30V31.4L42.2 31.9L43.6 32.3ZM39.6 28.9L40.2 30.3L40.6 28.8L42.1 28.7L40.8 28L41.2 26.5L40 27.5L38.7 26.8L39.3 28.1L38.1 29.1L39.6 28.9Z" fill="white"/>
</svg>
